InterAlia-Medium.ufo
<glyph name="exclam" format="2">
  <advance height="2479.0" width="601.4"/>
  <unicode hex="0021"/>
  <outline>
    <contour>
      <point x="420.6" y="1489.0" type="line"/>
      <point x="180.8" y="1489.0" type="line"/>
      <point x="200.4" y="428.2" type="line"/>
      <point x="401.0" y="428.2" type="line"/>
    </contour>
    <component base="period" xOffset="11.200000000000001"/>
  </outline>
</glyph>
<glyph name="numbersign" format="2">
  <advance height="2479.0" width="1304.8"/>
  <unicode hex="0023"/>
  <outline>
    <contour>
      <point x="704.8" y="0.0" type="line"/>
      <point x="879.0" y="0.0" type="line"/>
      <point x="1123.8" y="1489.0" type="line"/>
      <point x="948.8" y="1489.0" type="line"/>
    </contour>
    <contour>
      <point x="30.4" y="398.4" type="line"/>
      <point x="1158.8" y="398.4" type="line"/>
      <point x="1187.2" y="573.4" type="line"/>
      <point x="58.6" y="573.4" type="line"/>
    </contour>
    <contour>
      <point x="180.8" y="0.0" type="line"/>
      <point x="355.8" y="0.0" type="line"/>
      <point x="600.0" y="1489.0" type="line"/>
      <point x="425.0" y="1489.0" type="line"/>
    </contour>
    <contour>
      <point x="116.8" y="916.4" type="line"/>
      <point x="1245.4" y="916.4" type="line"/>
      <point x="1274.4" y="1090.6" type="line"/>
      <point x="145.0" y="1090.6" type="line"/>
    </contour>
  </outline>
</glyph>
<glyph name="percent" format="2">
  <advance height="2479.0" width="1696.0"/>
  <unicode hex="0025"/>
  <anchor x="1077.8" y="791.0" name="dnom"/>
  <anchor x="603.2" y="698.0" name="numr"/>
  <outline>
    <contour>
      <point x="920.6" y="279.0" type="line" smooth="yes"/>
      <point x="920.6" y="110.8"/>
      <point x="1027.0" y="-30.6"/>
      <point x="1223.8" y="-30.6" type="curve" smooth="yes"/>
      <point x="1419.2" y="-30.6"/>
      <point x="1525.2" y="110.8"/>
      <point x="1525.2" y="279.0" type="curve" smooth="yes"/>
      <point x="1525.2" y="358.0" type="line" smooth="yes"/>
      <point x="1525.2" y="526.8"/>
      <point x="1421.4" y="667.6"/>
      <point x="1223.8" y="667.6" type="curve" smooth="yes"/>
      <point x="1030.0" y="667.6"/>
      <point x="920.6" y="526.2"/>
      <point x="920.6" y="358.0" type="curve" smooth="yes"/>
    </contour>
    <contour>
      <point x="1090.4" y="358.0" type="line" smooth="yes"/>
      <point x="1090.4" y="441.6"/>
      <point x="1127.6" y="522.2"/>
      <point x="1223.8" y="522.2" type="curve" smooth="yes"/>
      <point x="1324.4" y="522.2"/>
      <point x="1355.6" y="441.6"/>
      <point x="1355.6" y="358.0" type="curve" smooth="yes"/>
      <point x="1355.6" y="279.0" type="line" smooth="yes"/>
      <point x="1355.6" y="195.4"/>
      <point x="1321.4" y="115.4"/>
      <point x="1223.8" y="115.4" type="curve" smooth="yes"/>
      <point x="1125.2" y="115.4"/>
      <point x="1090.4" y="196.0"/>
      <point x="1090.4" y="279.0" type="curve" smooth="yes"/>
    </contour>
    <contour>
      <point x="172.0" y="1132.0" type="line" smooth="yes"/>
      <point x="172.0" y="963.8"/>
      <point x="277.4" y="822.2"/>
      <point x="475.2" y="822.2" type="curve" smooth="yes"/>
      <point x="669.6" y="822.2"/>
      <point x="776.6" y="963.2"/>
      <point x="776.6" y="1132.0" type="curve" smooth="yes"/>
      <point x="776.6" y="1210.0" type="line" smooth="yes"/>
      <point x="776.6" y="1378.8"/>
      <point x="672.6" y="1520.4"/>
      <point x="475.2" y="1520.4" type="curve" smooth="yes"/>
      <point x="281.0" y="1520.4"/>
      <point x="172.0" y="1378.8"/>
      <point x="172.0" y="1210.0" type="curve" smooth="yes"/>
    </contour>
    <contour>
      <point x="341.6" y="1210.0" type="line" smooth="yes"/>
      <point x="341.6" y="1293.0"/>
      <point x="378.2" y="1375.0"/>
      <point x="475.2" y="1375.0" type="curve" smooth="yes"/>
      <point x="575.0" y="1375.0"/>
      <point x="606.2" y="1293.6"/>
      <point x="606.2" y="1210.0" type="curve" smooth="yes"/>
      <point x="606.2" y="1132.0" type="line" smooth="yes"/>
      <point x="606.2" y="1047.4"/>
      <point x="572.0" y="967.4"/>
      <point x="475.2" y="967.4" type="curve" smooth="yes"/>
      <point x="376.2" y="967.4"/>
      <point x="341.6" y="1047.4"/>
      <point x="341.6" y="1132.0" type="curve" smooth="yes"/>
    </contour>
    <component base="fraction" xOffset="559.4"/>
  </outline>
</glyph>
<glyph name="ampersand" format="2">
  <advance height="2479.0" width="1332.8"/>
  <unicode hex="0026"/>
  <outline>
    <contour>
      <point x="579.6" y="-20.6" type="curve"/>
      <point x="718.2" y="-20.6"/>
      <point x="873.0" y="26.6"/>
      <point x="973.6" y="128.2" type="curve"/>
      <point x="991.4" y="143.6"/>
      <point x="1006.2" y="159.0"/>
      <point x="1023.0" y="174.4" type="curve"/>
      <point x="1104.4" y="243.2"/>
      <point x="1222.0" y="387.6"/>
      <point x="1222.0" y="677.0" type="curve"/>
      <point x="1025.8" y="677.0" type="line"/>
      <point x="1025.8" y="364.6"/>
      <point x="799.4" y="163.0"/>
      <point x="580.6" y="163.0" type="curve" smooth="yes"/>
      <point x="419.4" y="163.0"/>
      <point x="313.4" y="272.8"/>
      <point x="313.4" y="401.8" type="curve"/>
      <point x="313.4" y="447.2"/>
      <point x="351.8" y="539.0"/>
      <point x="468.4" y="624.8" type="curve" smooth="yes"/>
      <point x="767.8" y="845.4" type="line" smooth="yes"/>
      <point x="890.8" y="935.4"/>
      <point x="964.8" y="1039.2"/>
      <point x="964.8" y="1181.4" type="curve"/>
      <point x="964.8" y="1355.4"/>
      <point x="825.2" y="1505.8"/>
      <point x="596.0" y="1505.8" type="curve" smooth="yes"/>
      <point x="369.2" y="1505.8"/>
      <point x="220.0" y="1359.0"/>
      <point x="220.0" y="1153.6" type="curve" smooth="yes"/>
      <point x="220.0" y="972.8"/>
      <point x="348.0" y="843.0"/>
      <point x="491.4" y="672.8" type="curve" smooth="yes"/>
      <point x="1064.6" y="0.0" type="line"/>
      <point x="1309.6" y="0.0" type="line"/>
      <point x="618.2" y="826.8" type="line" smooth="yes"/>
      <point x="519.8" y="945.2"/>
      <point x="425.0" y="1048.6"/>
      <point x="425.0" y="1150.0" type="curve" smooth="yes"/>
      <point x="425.0" y="1236.8"/>
      <point x="496.0" y="1323.8"/>
      <point x="600.8" y="1324.0" type="curve" smooth="yes"/>
      <point x="701.0" y="1324.0"/>
      <point x="766.4" y="1245.0"/>
      <point x="766.4" y="1175.4" type="curve"/>
      <point x="766.4" y="1086.6"/>
      <point x="718.4" y="1032.8"/>
      <point x="636.8" y="979.4" type="curve"/>
      <point x="397.4" y="809.6" type="line"/>
      <point x="220.2" y="688.6"/>
      <point x="97.4" y="578.2"/>
      <point x="97.4" y="396.0" type="curve"/>
      <point x="97.4" y="156.2"/>
      <point x="280.2" y="-20.6"/>
    </contour>
  </outline>
</glyph>
<glyph name="parenleft" format="2">
  <advance height="2479.0" width="774.0"/>
  <unicode hex="0028"/>
  <outline>
    <contour>
      <point x="209.4" y="617.6" type="curve" smooth="yes"/>
      <point x="209.4" y="253.2"/>
      <point x="307.2" y="-51.0"/>
      <point x="492.0" y="-309.8" type="curve"/>
      <point x="691.4" y="-309.8" type="line"/>
      <point x="547.4" y="-117.8"/>
      <point x="435.4" y="272.2"/>
      <point x="435.4" y="617.6" type="curve" smooth="yes"/>
      <point x="435.4" y="963.8"/>
      <point x="547.4" y="1353.0"/>
      <point x="691.4" y="1545.0" type="curve"/>
      <point x="492.0" y="1545.0" type="line"/>
      <point x="307.2" y="1286.2"/>
      <point x="209.4" y="982.8"/>
    </contour>
  </outline>
</glyph>
<glyph name="asterisk" format="2">
  <advance height="2479.0" width="1068.2"/>
  <unicode hex="002A"/>
  <outline>
    <contour>
      <point x="454.8" y="652.0" type="line"/>
      <point x="613.4" y="652.0" type="line"/>
      <point x="599.2" y="959.2" type="line"/>
      <point x="858.4" y="791.8" type="line"/>
      <point x="937.6" y="930.2" type="line"/>
      <point x="662.4" y="1071.0" type="line"/>
      <point x="937.6" y="1210.8" type="line"/>
      <point x="858.4" y="1349.2" type="line"/>
      <point x="599.2" y="1181.8" type="line"/>
      <point x="613.4" y="1489.0" type="line"/>
      <point x="454.8" y="1489.0" type="line"/>
      <point x="469.0" y="1181.8" type="line"/>
      <point x="209.8" y="1349.2" type="line"/>
      <point x="130.6" y="1210.8" type="line"/>
      <point x="405.8" y="1071.0" type="line"/>
      <point x="130.6" y="930.2" type="line"/>
      <point x="209.8" y="791.8" type="line"/>
      <point x="469.0" y="959.2" type="line"/>
    </contour>
  </outline>
</glyph>
<glyph name="plus" format="2">
  <advance height="2479.0" width="1364.0"/>
  <unicode hex="002B"/>
  <outline>
    <contour>
      <point x="583.8" y="95.0" type="line"/>
      <point x="779.4" y="95.0" type="line"/>
      <point x="779.4" y="1078.2" type="line"/>
      <point x="583.8" y="1078.2" type="line"/>
    </contour>
    <contour>
      <point x="190.4" y="488.4" type="line"/>
      <point x="1173.6" y="488.4" type="line"/>
      <point x="1173.6" y="684.0" type="line"/>
      <point x="190.4" y="684.0" type="line"/>
    </contour>
  </outline>
</glyph>
<glyph name="comma" format="2">
  <advance height="2479.0" width="588.8"/>
  <unicode hex="002C"/>
  <outline>
    <contour>
      <point x="428.8" y="204.0" type="line"/>
      <point x="219.4" y="204.0" type="line"/>
      <point x="212.2" y="122.0" type="line" smooth="yes"/>
      <point x="195.4" y="-75.2"/>
      <point x="149.2" y="-273.4"/>
      <point x="129.4" y="-364.0" type="curve"/>
      <point x="283.6" y="-364.0" type="line"/>
      <point x="318.6" y="-268.6"/>
      <point x="395.8" y="-50.4"/>
      <point x="418.0" y="124.4" type="curve" smooth="yes"/>
    </contour>
  </outline>
</glyph>
<glyph name="hyphen" format="2">
  <advance height="2479.0" width="948.8"/>
  <unicode hex="002D"/>
  <outline>
    <contour>
      <point x="804.6" y="724.2" type="line"/>
      <point x="143.4" y="724.2" type="line"/>
      <point x="143.4" y="535.6" type="line"/>
      <point x="804.6" y="535.6" type="line"/>
    </contour>
  </outline>
</glyph>
<glyph name="period" format="2">
  <advance height="2479.0" width="579.2"/>
  <unicode hex="002E"/>
  <outline>
    <contour>
      <point x="289.6" y="-14.2" type="curve" smooth="yes"/>
      <point x="368.6" y="-14.2"/>
      <point x="434.8" y="51.0"/>
      <point x="435.2" y="131.2" type="curve" smooth="yes"/>
      <point x="434.8" y="211.0"/>
      <point x="368.6" y="276.2"/>
      <point x="289.6" y="276.2" type="curve" smooth="yes"/>
      <point x="209.4" y="276.2"/>
      <point x="143.8" y="211.0"/>
      <point x="144.0" y="131.2" type="curve" smooth="yes"/>
      <point x="143.8" y="51.0"/>
      <point x="209.4" y="-14.2"/>
    </contour>
  </outline>
</glyph>
<glyph name="slash" format="2">
  <advance height="2479.0" width="752.8"/>
  <unicode hex="002F"/>
  <outline>
    <contour>
      <point x="713.6" y="1559.0" type="line"/>
      <point x="520.0" y="1559.0" type="line"/>
      <point x="40.0" y="-224.0" type="line"/>
      <point x="233.6" y="-224.0" type="line"/>
    </contour>
  </outline>
</glyph>
<glyph name="zero" format="2">
  <advance height="2479.0" width="1323.0"/>
  <unicode hex="0030"/>
  <outline>
    <contour>
      <point x="661.6" y="-24.2" type="curve" smooth="yes"/>
      <point x="1005.8" y="-24.2"/>
      <point x="1207.2" y="256.2"/>
      <point x="1207.4" y="744.4" type="curve" smooth="yes"/>
      <point x="1207.6" y="1228.8"/>
      <point x="1003.4" y="1510.0"/>
      <point x="661.6" y="1510.0" type="curve" smooth="yes"/>
      <point x="319.6" y="1510.0"/>
      <point x="116.0" y="1229.0"/>
      <point x="115.6" y="744.4" type="curve" smooth="yes"/>
      <point x="115.4" y="256.6"/>
      <point x="317.2" y="-24.0"/>
    </contour>
    <contour>
      <point x="661.6" y="169.6" type="curve" smooth="yes"/>
      <point x="460.0" y="169.6"/>
      <point x="339.2" y="371.2"/>
      <point x="339.4" y="744.4" type="curve" smooth="yes"/>
      <point x="339.8" y="1115.2"/>
      <point x="461.6" y="1319.2"/>
      <point x="661.6" y="1319.2" type="curve" smooth="yes"/>
      <point x="861.4" y="1319.2"/>
      <point x="983.4" y="1115.2"/>
      <point x="983.6" y="744.4" type="curve" smooth="yes"/>
      <point x="983.8" y="371.2"/>
      <point x="863.0" y="169.6"/>
    </contour>
  </outline>
</glyph>
<glyph name="one" format="2">
  <advance height="2479.0" width="968.0"/>
  <unicode hex="0031"/>
  <outline>
    <contour>
      <point x="708.2" y="1489.0" type="line"/>
      <point x="489.0" y="1489.0" type="line"/>
      <point x="118.0" y="1246.6" type="line"/>
      <point x="118.0" y="1031.6" type="line"/>
      <point x="474.4" y="1263.4" type="line"/>
      <point x="482.6" y="1263.4" type="line"/>
      <point x="482.6" y="0.0" type="line"/>
      <point x="708.2" y="0.0" type="line"/>
    </contour>
  </outline>
</glyph>
<glyph name="two" format="2">
  <advance height="2479.0" width="1256.0"/>
  <unicode hex="0032"/>
  <anchor x="850.4" y="777.8" name="cross"/>
  <outline>
    <contour>
      <point x="143.0" y="0.0" type="line"/>
      <point x="1123.6" y="0.0" type="line"/>
      <point x="1123.6" y="192.6" type="line"/>
      <point x="452.8" y="192.6" type="line"/>
      <point x="452.8" y="204.0" type="line"/>
      <point x="748.8" y="512.8" type="line" smooth="yes"/>
      <point x="1021.6" y="789.4"/>
      <point x="1099.6" y="921.2"/>
      <point x="1099.6" y="1087.6" type="curve" smooth="yes"/>
      <point x="1099.6" y="1327.2"/>
      <point x="904.6" y="1510.0"/>
      <point x="624.2" y="1510.0" type="curve" smooth="yes"/>
      <point x="346.2" y="1510.0"/>
      <point x="141.8" y="1329.0"/>
      <point x="142.0" y="1057.6" type="curve"/>
      <point x="356.4" y="1057.6" type="line"/>
      <point x="356.2" y="1217.8"/>
      <point x="458.6" y="1322.2"/>
      <point x="619.4" y="1322.2" type="curve" smooth="yes"/>
      <point x="770.6" y="1322.2"/>
      <point x="885.6" y="1229.0"/>
      <point x="885.6" y="1080.6" type="curve" smooth="yes"/>
      <point x="885.6" y="949.2"/>
      <point x="807.2" y="853.8"/>
      <point x="647.8" y="685.4" type="curve" smooth="yes"/>
      <point x="143.0" y="163.0" type="line"/>
    </contour>
  </outline>
</glyph>
<glyph name="three" format="2">
  <advance height="2479.0" width="1318.8"/>
  <unicode hex="0033"/>
  <outline>
    <contour>
      <point x="661.8" y="-20.0" type="curve" smooth="yes"/>
      <point x="965.8" y="-20.0"/>
      <point x="1189.2" y="161.8"/>
      <point x="1188.8" y="408.8" type="curve" smooth="yes"/>
      <point x="1189.2" y="596.4"/>
      <point x="1075.2" y="732.6"/>
      <point x="876.8" y="762.6" type="curve"/>
      <point x="876.8" y="774.6" type="line"/>
      <point x="1033.0" y="815.2"/>
      <point x="1133.4" y="936.4"/>
      <point x="1133.0" y="1104.0" type="curve" smooth="yes"/>
      <point x="1133.4" y="1323.0"/>
      <point x="954.0" y="1510.0"/>
      <point x="667.2" y="1510.0" type="curve" smooth="yes"/>
      <point x="394.0" y="1510.0"/>
      <point x="174.8" y="1344.2"/>
      <point x="167.4" y="1102.4" type="curve"/>
      <point x="384.8" y="1102.4" type="line"/>
      <point x="389.8" y="1239.0"/>
      <point x="518.4" y="1322.2"/>
      <point x="664.8" y="1322.2" type="curve" smooth="yes"/>
      <point x="817.0" y="1322.2"/>
      <point x="916.2" y="1229.8"/>
      <point x="915.8" y="1092.4" type="curve" smooth="yes"/>
      <point x="916.2" y="948.0"/>
      <point x="800.8" y="854.4"/>
      <point x="635.2" y="854.4" type="curve" smooth="yes"/>
      <point x="509.6" y="854.4" type="line"/>
      <point x="509.6" y="670.6" type="line"/>
      <point x="635.2" y="670.6" type="line" smooth="yes"/>
      <point x="842.2" y="670.6"/>
      <point x="961.2" y="565.8"/>
      <point x="961.0" y="415.8" type="curve" smooth="yes"/>
      <point x="961.2" y="271.6"/>
      <point x="836.0" y="173.0"/>
      <point x="660.8" y="173.0" type="curve" smooth="yes"/>
      <point x="499.0" y="173.0"/>
      <point x="372.8" y="255.8"/>
      <point x="364.6" y="388.4" type="curve"/>
      <point x="136.0" y="388.4" type="line"/>
      <point x="145.0" y="145.6"/>
      <point x="360.8" y="-20.0"/>
    </contour>
  </outline>
</glyph>
<glyph name="four" format="2">
  <advance height="2479.0" width="1339.4"/>
  <unicode hex="0034"/>
  <outline>
    <contour>
      <point x="112.0" y="290.6" type="line"/>
      <point x="1230.2" y="290.6" type="line"/>
      <point x="1230.2" y="481.4" type="line"/>
      <point x="347.8" y="481.4" type="line"/>
      <point x="347.8" y="493.4" type="line"/>
      <point x="808.4" y="1222.2" type="line"/>
      <point x="898.6" y="1222.2" type="line"/>
      <point x="898.6" y="1489.0" type="line"/>
      <point x="756.0" y="1489.0" type="line"/>
      <point x="112.0" y="472.6" type="line"/>
    </contour>
    <contour>
      <point x="817.8" y="0.0" type="line"/>
      <point x="1032.8" y="0.0" type="line"/>
      <point x="1032.8" y="1489.0" type="line"/>
      <point x="819.4" y="1489.0" type="line"/>
      <point x="819.4" y="429.0" type="line"/>
      <point x="817.8" y="346.6" type="line"/>
    </contour>
  </outline>
</glyph>
<glyph name="five" format="2">
  <advance height="2479.0" width="1270.0"/>
  <unicode hex="0035"/>
  <outline>
    <contour>
      <point x="635.0" y="-20.0" type="curve" smooth="yes"/>
      <point x="934.0" y="-20.0"/>
      <point x="1147.8" y="191.2"/>
      <point x="1147.8" y="481.6" type="curve" smooth="yes"/>
      <point x="1147.8" y="769.4"/>
      <point x="948.2" y="979.0"/>
      <point x="676.0" y="979.0" type="curve" smooth="yes"/>
      <point x="565.8" y="979.0"/>
      <point x="463.0" y="936.8"/>
      <point x="404.8" y="879.6" type="curve"/>
      <point x="395.8" y="879.6" type="line"/>
      <point x="444.0" y="1296.6" type="line"/>
      <point x="1075.4" y="1296.6" type="line"/>
      <point x="1075.4" y="1489.0" type="line"/>
      <point x="257.0" y="1489.0" type="line"/>
      <point x="172.6" y="738.6" type="line"/>
      <point x="378.6" y="708.6" type="line"/>
      <point x="435.2" y="758.4"/>
      <point x="534.6" y="792.8"/>
      <point x="625.4" y="792.8" type="curve" smooth="yes"/>
      <point x="802.2" y="791.2"/>
      <point x="930.6" y="659.0"/>
      <point x="930.6" y="476.8" type="curve" smooth="yes"/>
      <point x="930.6" y="298.0"/>
      <point x="806.2" y="169.0"/>
      <point x="635.0" y="169.0" type="curve" smooth="yes"/>
      <point x="491.2" y="169.0"/>
      <point x="376.0" y="260.6"/>
      <point x="365.0" y="388.4" type="curve"/>
      <point x="146.6" y="388.4" type="line"/>
      <point x="155.8" y="151.2"/>
      <point x="361.6" y="-20.0"/>
    </contour>
  </outline>
</glyph>
<glyph name="six" format="2">
  <advance height="2479.0" width="1302.0"/>
  <unicode hex="0036"/>
  <outline>
    <contour>
      <point x="663.4" y="-20.0" type="curve" smooth="yes"/>
      <point x="974.6" y="-23.2"/>
      <point x="1180.6" y="200.6"/>
      <point x="1180.4" y="486.4" type="curve" smooth="yes"/>
      <point x="1180.6" y="771.4"/>
      <point x="973.8" y="976.6"/>
      <point x="715.8" y="976.6" type="curve" smooth="yes"/>
      <point x="558.6" y="976.6"/>
      <point x="423.0" y="900.4"/>
      <point x="346.0" y="774.6" type="curve"/>
      <point x="335.4" y="774.6" type="line"/>
      <point x="335.8" y="1113.2"/>
      <point x="463.6" y="1313.4"/>
      <point x="682.4" y="1313.4" type="curve" smooth="yes"/>
      <point x="825.0" y="1313.4"/>
      <point x="916.0" y="1226.6"/>
      <point x="946.0" y="1102.4" type="curve"/>
      <point x="1168.0" y="1102.4" type="line"/>
      <point x="1133.4" y="1338.2"/>
      <point x="948.2" y="1510.0"/>
      <point x="682.4" y="1510.0" type="curve" smooth="yes"/>
      <point x="336.4" y="1510.0"/>
      <point x="120.2" y="1212.4"/>
      <point x="120.0" y="695.0" type="curve" smooth="yes"/>
      <point x="119.6" y="146.0"/>
      <point x="398.0" y="-17.6"/>
    </contour>
    <contour>
      <point x="663.0" y="169.0" type="curve" smooth="yes"/>
      <point x="489.8" y="169.0"/>
      <point x="362.6" y="314.2"/>
      <point x="363.2" y="481.0" type="curve" smooth="yes"/>
      <point x="364.2" y="648.0"/>
      <point x="496.2" y="794.0"/>
      <point x="667.8" y="794.0" type="curve" smooth="yes"/>
      <point x="837.4" y="794.0"/>
      <point x="963.0" y="656.0"/>
      <point x="962.6" y="483.4" type="curve" smooth="yes"/>
      <point x="963.0" y="307.8"/>
      <point x="832.6" y="169.0"/>
    </contour>
  </outline>
</glyph>
<glyph name="seven" format="2">
  <advance height="2479.0" width="1185.4"/>
  <unicode hex="0037"/>
  <outline>
    <contour>
      <point x="194.0" y="0.0" type="line"/>
      <point x="428.4" y="0.0" type="line"/>
      <point x="1076.2" y="1290.2" type="line"/>
      <point x="1076.2" y="1489.0" type="line"/>
      <point x="92.0" y="1489.0" type="line"/>
      <point x="92.0" y="1296.6" type="line"/>
      <point x="843.8" y="1296.6" type="line"/>
      <point x="843.8" y="1286.0" type="line"/>
    </contour>
  </outline>
</glyph>
<glyph name="eight" format="2">
  <advance height="2479.0" width="1293.2"/>
  <unicode hex="0038"/>
  <outline>
    <contour>
      <point x="646.2" y="-20.0" type="curve" smooth="yes"/>
      <point x="956.8" y="-20.0"/>
      <point x="1175.2" y="155.0"/>
      <point x="1176.0" y="397.6" type="curve" smooth="yes"/>
      <point x="1175.2" y="584.8"/>
      <point x="1043.4" y="742.4"/>
      <point x="876.4" y="772.2" type="curve"/>
      <point x="876.4" y="781.8" type="line"/>
      <point x="1021.8" y="816.4"/>
      <point x="1120.2" y="952.6"/>
      <point x="1121.0" y="1112.2" type="curve" smooth="yes"/>
      <point x="1120.2" y="1340.4"/>
      <point x="919.2" y="1510.0"/>
      <point x="646.2" y="1510.0" type="curve" smooth="yes"/>
      <point x="370.8" y="1510.0"/>
      <point x="170.6" y="1340.6"/>
      <point x="171.4" y="1112.2" type="curve" smooth="yes"/>
      <point x="170.6" y="952.8"/>
      <point x="268.4" y="816.4"/>
      <point x="416.0" y="781.8" type="curve"/>
      <point x="416.0" y="772.2" type="line"/>
      <point x="245.8" y="742.4"/>
      <point x="115.4" y="584.8"/>
      <point x="116.2" y="397.6" type="curve" smooth="yes"/>
      <point x="115.4" y="155.0"/>
      <point x="334.0" y="-20.0"/>
    </contour>
    <contour>
      <point x="646.2" y="163.8" type="curve" smooth="yes"/>
      <point x="460.2" y="163.8"/>
      <point x="342.6" y="262.4"/>
      <point x="344.2" y="411.0" type="curve" smooth="yes"/>
      <point x="342.6" y="566.2"/>
      <point x="470.6" y="677.0"/>
      <point x="646.2" y="677.0" type="curve" smooth="yes"/>
      <point x="820.2" y="677.0"/>
      <point x="948.2" y="566.0"/>
      <point x="949.0" y="411.0" type="curve" smooth="yes"/>
      <point x="948.2" y="262.2"/>
      <point x="830.6" y="163.8"/>
    </contour>
    <contour>
      <point x="646.2" y="856.8" type="curve" smooth="yes"/>
      <point x="495.6" y="856.8"/>
      <point x="388.8" y="951.6"/>
      <point x="390.4" y="1094.2" type="curve" smooth="yes"/>
      <point x="388.8" y="1233.6"/>
      <point x="492.4" y="1326.2"/>
      <point x="646.2" y="1326.2" type="curve" smooth="yes"/>
      <point x="798.4" y="1326.2"/>
      <point x="901.0" y="1233.4"/>
      <point x="902.6" y="1094.2" type="curve" smooth="yes"/>
      <point x="901.0" y="951.4"/>
      <point x="794.4" y="856.8"/>
    </contour>
  </outline>
</glyph>
<glyph name="nine" format="2">
  <advance height="2479.0" width="1302.0"/>
  <unicode hex="0039"/>
  <outline>
    <contour>
      <point x="638.6" y="1510.0" type="curve" smooth="yes"/>
      <point x="326.2" y="1512.4"/>
      <point x="121.4" y="1288.2"/>
      <point x="121.6" y="1005.6" type="curve" smooth="yes"/>
      <point x="122.0" y="721.2"/>
      <point x="327.6" y="516.8"/>
      <point x="586.2" y="516.8" type="curve" smooth="yes"/>
      <point x="743.4" y="516.8"/>
      <point x="879.2" y="593.0"/>
      <point x="956.0" y="718.8" type="curve"/>
      <point x="966.6" y="718.8" type="line"/>
      <point x="966.4" y="375.8"/>
      <point x="837.6" y="176.6"/>
      <point x="619.6" y="176.6" type="curve" smooth="yes"/>
      <point x="476.8" y="176.6"/>
      <point x="385.4" y="263.4"/>
      <point x="356.0" y="390.2" type="curve"/>
      <point x="134.8" y="390.2" type="line"/>
      <point x="167.0" y="149.8"/>
      <point x="353.6" y="-20.0"/>
      <point x="619.6" y="-20.0" type="curve" smooth="yes"/>
      <point x="965.8" y="-20.0"/>
      <point x="1182.4" y="276.6"/>
      <point x="1182.2" y="798.4" type="curve" smooth="yes"/>
      <point x="1181.8" y="1343.0"/>
      <point x="904.0" y="1507.6"/>
    </contour>
    <contour>
      <point x="639.2" y="1320.8" type="curve" smooth="yes"/>
      <point x="812.2" y="1320.8"/>
      <point x="938.6" y="1174.8"/>
      <point x="938.8" y="1011.0" type="curve" smooth="yes"/>
      <point x="939.2" y="845.6"/>
      <point x="805.0" y="699.4"/>
      <point x="635.2" y="699.4" type="curve" smooth="yes"/>
      <point x="463.8" y="699.4"/>
      <point x="339.8" y="836.0"/>
      <point x="339.4" y="1008.6" type="curve" smooth="yes"/>
      <point x="339.2" y="1182.0"/>
      <point x="468.6" y="1320.8"/>
    </contour>
  </outline>
</glyph>
<glyph name="less" format="2">
  <advance height="2479.0" width="1364.0"/>
  <unicode hex="003C"/>
  <outline>
    <contour>
      <point x="199.4" y="505.4" type="line"/>
      <point x="1164.6" y="37.0" type="line"/>
      <point x="1164.6" y="259.2" type="line"/>
      <point x="452.2" y="583.6" type="line"/>
      <point x="459.4" y="570.6" type="line"/>
      <point x="459.4" y="601.8" type="line"/>
      <point x="452.2" y="589.6" type="line"/>
      <point x="1164.6" y="914.2" type="line"/>
      <point x="1164.6" y="1136.2" type="line"/>
      <point x="199.4" y="668.0" type="line"/>
    </contour>
  </outline>
</glyph>
<glyph name="equal" format="2">
  <advance height="2479.0" width="1364.0"/>
  <unicode hex="003D"/>
  <outline>
    <contour>
      <point x="216.0" y="715.4" type="line"/>
      <point x="1148.0" y="715.4" type="line"/>
      <point x="1148.0" y="906.2" type="line"/>
      <point x="216.0" y="906.2" type="line"/>
    </contour>
    <contour>
      <point x="216.0" y="267.0" type="line"/>
      <point x="1148.0" y="267.0" type="line"/>
      <point x="1148.0" y="457.8" type="line"/>
      <point x="216.0" y="457.8" type="line"/>
    </contour>
  </outline>
</glyph>
<glyph name="greater" format="2">
  <advance height="2479.0" width="1364.0"/>
  <unicode hex="003E"/>
  <outline>
    <contour>
      <point x="1164.6" y="505.4" type="line"/>
      <point x="1164.6" y="668.0" type="line"/>
      <point x="199.4" y="1136.2" type="line"/>
      <point x="199.4" y="914.2" type="line"/>
      <point x="911.6" y="589.6" type="line"/>
      <point x="904.6" y="601.8" type="line"/>
      <point x="904.6" y="570.6" type="line"/>
      <point x="911.6" y="583.6" type="line"/>
      <point x="199.4" y="259.2" type="line"/>
      <point x="199.4" y="37.0" type="line"/>
    </contour>
  </outline>
</glyph>
<glyph name="question" format="2">
  <advance height="2479.0" width="1076.8"/>
  <unicode hex="003F"/>
  <outline>
    <contour>
      <point x="384.0" y="428.2" type="line"/>
      <point x="592.6" y="428.2" type="line"/>
      <point x="592.6" y="442.4" type="line" smooth="yes"/>
      <point x="595.0" y="609.6"/>
      <point x="642.6" y="684.4"/>
      <point x="766.2" y="760.8" type="curve" smooth="yes"/>
      <point x="897.0" y="839.0"/>
      <point x="977.0" y="949.4"/>
      <point x="977.0" y="1113.6" type="curve" smooth="yes"/>
      <point x="977.0" y="1349.8"/>
      <point x="798.2" y="1510.0"/>
      <point x="531.2" y="1510.0" type="curve" smooth="yes"/>
      <point x="285.8" y="1510.0"/>
      <point x="89.4" y="1366.4"/>
      <point x="80.0" y="1104.8" type="curve"/>
      <point x="301.6" y="1104.8" type="line"/>
      <point x="310.4" y="1259.2"/>
      <point x="419.8" y="1327.0"/>
      <point x="530.6" y="1327.0" type="curve" smooth="yes"/>
      <point x="654.8" y="1327.0"/>
      <point x="754.4" y="1244.2"/>
      <point x="754.4" y="1116.0" type="curve" smooth="yes"/>
      <point x="754.4" y="1007.0"/>
      <point x="687.6" y="930.6"/>
      <point x="601.0" y="877.6" type="curve" smooth="yes"/>
      <point x="465.0" y="794.0"/>
      <point x="385.6" y="712.0"/>
      <point x="384.0" y="442.4" type="curve" smooth="yes"/>
    </contour>
    <component base="period" xOffset="204.2"/>
  </outline>
</glyph>
<glyph name="at" format="2">
  <advance height="2479.0" width="1981.6"/>
  <unicode hex="0040"/>
  <outline>
    <contour>
      <point x="1043.0" y="-405.2" type="curve" smooth="yes"/>
      <point x="1211.4" y="-405.2"/>
      <point x="1405.0" y="-359.4"/>
      <point x="1495.4" y="-316.8" type="curve"/>
      <point x="1444.0" y="-157.4" type="line"/>
      <point x="1383.4" y="-179.8"/>
      <point x="1215.0" y="-232.6"/>
      <point x="1052.4" y="-232.6" type="curve" smooth="yes"/>
      <point x="563.2" y="-232.6"/>
      <point x="300.6" y="37.0"/>
      <point x="300.2" y="520.4" type="curve" smooth="yes"/>
      <point x="300.6" y="983.0"/>
      <point x="559.6" y="1280.8"/>
      <point x="1025.6" y="1280.8" type="curve" smooth="yes"/>
      <point x="1451.0" y="1280.8"/>
      <point x="1704.6" y="1008.6"/>
      <point x="1704.2" y="639.0" type="curve" smooth="yes"/>
      <point x="1704.6" y="322.8"/>
      <point x="1663.8" y="181.0"/>
      <point x="1531.6" y="181.0" type="curve" smooth="yes"/>
      <point x="1456.2" y="181.0"/>
      <point x="1415.4" y="242.4"/>
      <point x="1415.2" y="318.8" type="curve" smooth="yes"/>
      <point x="1415.2" y="993.4" type="line"/>
      <point x="1236.6" y="993.4" type="line"/>
      <point x="1236.6" y="912.2" type="line"/>
      <point x="1227.2" y="912.2" type="line"/>
      <point x="1205.6" y="976.2"/>
      <point x="1078.4" y="1033.0"/>
      <point x="927.2" y="1015.4" type="curve" smooth="yes"/>
      <point x="716.2" y="989.8"/>
      <point x="536.4" y="816.8"/>
      <point x="536.2" y="529.8" type="curve" smooth="yes"/>
      <point x="536.4" y="231.6"/>
      <point x="689.0" y="31.799999999999997"/>
      <point x="934.2" y="21.599999999999998" type="curve" smooth="yes"/>
      <point x="1099.0" y="14.599999999999998"/>
      <point x="1207.2" y="91.6"/>
      <point x="1241.8" y="177.6" type="curve"/>
      <point x="1250.0" y="177.6" type="line"/>
      <point x="1267.6" y="60.8"/>
      <point x="1394.4" y="8.599999999999998"/>
      <point x="1518.8" y="12.8" type="curve" smooth="yes"/>
      <point x="1828.8" y="18.6"/>
      <point x="1888.2" y="324.2"/>
      <point x="1887.8" y="631.4" type="curve" smooth="yes"/>
      <point x="1888.2" y="1069.0"/>
      <point x="1588.2" y="1450.4"/>
      <point x="1032.8" y="1450.4" type="curve" smooth="yes"/>
      <point x="449.6" y="1450.4"/>
      <point x="107.4" y="1094.6"/>
      <point x="107.2" y="521.6" type="curve" smooth="yes"/>
      <point x="107.4" y="-68.6"/>
      <point x="441.4" y="-405.2"/>
    </contour>
    <contour>
      <point x="975.8" y="200.0" type="curve" smooth="yes"/>
      <point x="786.4" y="200.0"/>
      <point x="720.6" y="363.2"/>
      <point x="720.4" y="538.8" type="curve" smooth="yes"/>
      <point x="720.6" y="706.6"/>
      <point x="815.0" y="839.4"/>
      <point x="979.4" y="839.4" type="curve" smooth="yes"/>
      <point x="1156.8" y="839.4"/>
      <point x="1237.0" y="760.2"/>
      <point x="1237.2" y="539.4" type="curve" smooth="yes"/>
      <point x="1238.2" y="312.8"/>
      <point x="1165.2" y="200.0"/>
    </contour>
  </outline>
</glyph>
<glyph name="A" format="2">
  <advance height="2479.0" width="1433.8"/>
  <unicode hex="0041"/>
  <anchor x="716.6" y="0.0" name="bottom"/>
  <anchor x="1382.2" y="0.0" name="ogonek"/>
  <anchor x="488.0" y="1489.0" name="tonos"/>
  <anchor x="716.6" y="1676.0" name="top"/>
  <outline>
    <contour>
      <point x="289.4" y="0.0" type="line"/>
      <point x="711.4" y="1219.0" type="line"/>
      <point x="722.4" y="1219.0" type="line"/>
      <point x="1143.6" y="0.0" type="line"/>
      <point x="1382.2" y="0.0" type="line"/>
      <point x="846.2" y="1489.0" type="line"/>
      <point x="586.8" y="1489.0" type="line"/>
      <point x="51.0" y="0.0" type="line"/>
    </contour>
    <contour>
      <point x="329.0" y="583.2" type="line"/>
      <point x="329.0" y="394.6" type="line"/>
      <point x="1102.8" y="394.6" type="line"/>
      <point x="1102.8" y="583.2" type="line"/>
    </contour>
  </outline>
</glyph>
<glyph name="B" format="2">
  <advance height="2479.0" width="1339.0"/>
  <unicode hex="0042"/>
  <anchor x="649.4" y="0.0" name="bottom"/>
  <anchor x="642.8" y="1676.0" name="top"/>
  <outline>
    <contour>
      <point x="163.2" y="0.0" type="line"/>
      <point x="734.6" y="0.0" type="line" smooth="yes"/>
      <point x="1081.0" y="0.0"/>
      <point x="1237.0" y="173.0"/>
      <point x="1237.0" y="401.2" type="curve" smooth="yes"/>
      <point x="1237.0" y="631.2"/>
      <point x="1075.6" y="761.0"/>
      <point x="927.8" y="769.8" type="curve"/>
      <point x="927.8" y="784.6" type="line"/>
      <point x="1064.6" y="818.6"/>
      <point x="1179.0" y="912.2"/>
      <point x="1179.0" y="1098.6" type="curve" smooth="yes"/>
      <point x="1179.0" y="1318.4"/>
      <point x="1026.0" y="1489.0"/>
      <point x="709.2" y="1489.0" type="curve" smooth="yes"/>
      <point x="163.2" y="1489.0" type="line"/>
    </contour>
    <contour>
      <point x="388.8" y="192.6" type="line"/>
      <point x="388.8" y="669.8" type="line"/>
      <point x="720.6" y="669.8" type="line" smooth="yes"/>
      <point x="901.2" y="669.8"/>
      <point x="1013.8" y="553.4"/>
      <point x="1013.8" y="411.6" type="curve" smooth="yes"/>
      <point x="1013.8" y="287.0"/>
      <point x="928.2" y="192.6"/>
      <point x="713.0" y="192.6" type="curve" smooth="yes"/>
    </contour>
    <contour>
      <point x="388.8" y="845.4" type="line"/>
      <point x="388.8" y="1297.6" type="line"/>
      <point x="695.2" y="1297.6" type="line" smooth="yes"/>
      <point x="873.6" y="1297.6"/>
      <point x="958.2" y="1204.2"/>
      <point x="958.2" y="1081.2" type="curve" smooth="yes"/>
      <point x="958.2" y="937.2"/>
      <point x="840.8" y="845.4"/>
      <point x="689.2" y="845.4" type="curve" smooth="yes"/>
    </contour>
  </outline>
</glyph>
<glyph name="C" format="2">
  <advance height="2479.0" width="1506.0"/>
  <unicode hex="0043"/>
  <anchor x="784.0" y="-8.4" name="cedilla"/>
  <anchor x="785.8" y="1676.0" name="top"/>
  <outline>
    <contour>
      <point x="1400.6" y="1005.4" type="line"/>
      <point x="1350.2" y="1323.2"/>
      <point x="1100.0" y="1510.0"/>
      <point x="785.8" y="1510.0" type="curve" smooth="yes"/>
      <point x="400.6" y="1510.0"/>
      <point x="115.6" y="1221.2"/>
      <point x="115.6" y="745.0" type="curve"/>
      <point x="115.6" y="268.2"/>
      <point x="399.0" y="-20.0"/>
      <point x="785.8" y="-20.0" type="curve" smooth="yes"/>
      <point x="1112.2" y="-20.0"/>
      <point x="1352.4" y="184.4"/>
      <point x="1400.6" y="479.0" type="curve"/>
      <point x="1174.4" y="479.6" type="line"/>
      <point x="1135.2" y="289.4"/>
      <point x="974.8" y="184.8"/>
      <point x="787.4" y="184.8" type="curve" smooth="yes"/>
      <point x="531.2" y="184.8"/>
      <point x="338.8" y="380.6"/>
      <point x="338.8" y="745.0" type="curve"/>
      <point x="338.8" y="1106.4"/>
      <point x="530.6" y="1304.4"/>
      <point x="788.0" y="1304.4" type="curve" smooth="yes"/>
      <point x="976.8" y="1304.4"/>
      <point x="1137.0" y="1198.0"/>
      <point x="1174.4" y="1005.4" type="curve"/>
    </contour>
  </outline>
</glyph>
<glyph name="D" format="2">
  <advance height="2479.0" width="1477.8"/>
  <unicode hex="0044"/>
  <anchor x="633.4" y="0.0" name="bottom"/>
  <anchor x="276.2" y="772.0" name="cross"/>
  <anchor x="612.2" y="1676.0" name="top"/>
  <outline>
    <contour>
      <point x="645.8" y="0.0" type="line" smooth="yes"/>
      <point x="1099.8" y="0.0"/>
      <point x="1362.2" y="281.4"/>
      <point x="1362.2" y="747.4" type="curve" smooth="yes"/>
      <point x="1362.2" y="1210.0"/>
      <point x="1099.8" y="1489.0"/>
      <point x="660.6" y="1489.0" type="curve" smooth="yes"/>
      <point x="269.6" y="1489.0" type="line"/>
      <point x="269.6" y="1292.4" type="line"/>
      <point x="647.8" y="1292.4" type="line" smooth="yes"/>
      <point x="973.6" y="1292.4"/>
      <point x="1140.8" y="1097.6"/>
      <point x="1140.8" y="747.4" type="curve" smooth="yes"/>
      <point x="1140.8" y="393.8"/>
      <point x="973.6" y="196.6"/>
      <point x="633.4" y="196.6" type="curve" smooth="yes"/>
      <point x="278.0" y="196.6" type="line"/>
      <point x="278.0" y="0.0" type="line"/>
    </contour>
    <contour>
      <point x="388.8" y="1489.0" type="line"/>
      <point x="163.2" y="1489.0" type="line"/>
      <point x="163.2" y="0.0" type="line"/>
      <point x="388.8" y="0.0" type="line"/>
    </contour>
  </outline>
</glyph>
<glyph name="E" format="2">
  <advance height="2479.0" width="1234.8"/>
  <unicode hex="0045"/>
  <anchor x="618.6" y="0.0" name="bottom"/>
  <anchor x="621.6" y="0.0" name="cedilla"/>
  <anchor x="1106.2" y="0.0" name="ogonek"/>
  <anchor x="118.2" y="1489.0" name="tonos"/>
  <anchor x="629.8" y="1676.0" name="top"/>
  <outline>
    <contour>
      <point x="163.2" y="0.0" type="line"/>
      <point x="1106.2" y="0.0" type="line"/>
      <point x="1106.2" y="193.2" type="line"/>
      <point x="388.8" y="193.2" type="line"/>
      <point x="388.8" y="649.2" type="line"/>
      <point x="1049.2" y="649.2" type="line"/>
      <point x="1049.2" y="842.4" type="line"/>
      <point x="388.8" y="842.4" type="line"/>
      <point x="388.8" y="1296.0" type="line"/>
      <point x="1097.0" y="1296.0" type="line"/>
      <point x="1097.0" y="1489.0" type="line"/>
      <point x="163.2" y="1489.0" type="line"/>
    </contour>
  </outline>
</glyph>
<glyph name="F" format="2">
  <advance height="2479.0" width="1200.0"/>
  <unicode hex="0046"/>
  <anchor x="575.8" y="12.0" name="bottom"/>
  <anchor x="276.2" y="329.2" name="cross"/>
  <anchor x="641.4" y="1676.0" name="top"/>
  <outline>
    <contour>
      <point x="163.2" y="0.0" type="line"/>
      <point x="388.8" y="0.0" type="line"/>
      <point x="388.8" y="649.2" type="line"/>
      <point x="1021.4" y="649.2" type="line"/>
      <point x="1021.4" y="842.4" type="line"/>
      <point x="388.8" y="842.4" type="line"/>
      <point x="388.8" y="1296.0" type="line"/>
      <point x="1087.0" y="1296.0" type="line"/>
      <point x="1087.0" y="1489.0" type="line"/>
      <point x="163.2" y="1489.0" type="line"/>
    </contour>
  </outline>
</glyph>
<glyph name="G" format="2">
  <advance height="2479.0" width="1533.4"/>
  <unicode hex="0047"/>
  <anchor x="777.4" y="1.2000000000000002" name="bottom"/>
  <anchor x="780.4" y="1676.0" name="top"/>
  <outline>
    <contour>
      <point x="1171.8" y="1018.8" type="curve"/>
      <point x="1402.4" y="1018.8" type="line"/>
      <point x="1351.4" y="1309.0"/>
      <point x="1104.2" y="1510.0"/>
      <point x="782.6" y="1510.0" type="curve" smooth="yes"/>
      <point x="396.8" y="1510.0"/>
      <point x="115.6" y="1219.4"/>
      <point x="115.6" y="744.4" type="curve" smooth="yes"/>
      <point x="115.6" y="272.6"/>
      <point x="389.0" y="-20.0"/>
      <point x="792.0" y="-20.0" type="curve" smooth="yes"/>
      <point x="1154.0" y="-20.0"/>
      <point x="1412.2" y="216.4"/>
      <point x="1412.2" y="593.0" type="curve" smooth="yes"/>
      <point x="1412.2" y="762.4" type="line"/>
      <point x="826.6" y="762.4" type="line"/>
      <point x="826.6" y="576.8" type="line"/>
      <point x="1253.0" y="576.8" type="line"/>
      <point x="1195.2" y="587.0" type="line"/>
      <point x="1195.2" y="341.0"/>
      <point x="1034.4" y="184.8"/>
      <point x="792.6" y="184.8" type="curve" smooth="yes"/>
      <point x="530.0" y="184.8"/>
      <point x="338.8" y="383.6"/>
      <point x="338.8" y="745.6" type="curve" smooth="yes"/>
      <point x="338.8" y="1106.8"/>
      <point x="531.8" y="1304.4"/>
      <point x="784.4" y="1304.4" type="curve" smooth="yes"/>
      <point x="981.8" y="1304.4"/>
      <point x="1115.8" y="1196.0"/>
    </contour>
  </outline>
</glyph>
<glyph name="H" format="2">
  <advance height="2479.0" width="1520.0"/>
  <unicode hex="0048"/>
  <anchor x="758.4" y="0.0" name="bottom"/>
  <anchor x="292.8" y="-2.4" name="cedilla"/>
  <anchor x="1448.0" y="83.8" name="cyrtic"/>
  <anchor x="1356.0" y="0.0" name="right"/>
  <anchor x="128.2" y="1489.0" name="tonos"/>
  <anchor x="765.6" y="1678.4" name="top"/>
  <outline>
    <contour>
      <point x="163.2" y="0.0" type="line"/>
      <point x="388.8" y="0.0" type="line"/>
      <point x="388.8" y="649.2" type="line"/>
      <point x="1131.2" y="649.2" type="line"/>
      <point x="1131.2" y="0.0" type="line"/>
      <point x="1356.0" y="0.0" type="line"/>
      <point x="1356.0" y="1489.0" type="line"/>
      <point x="1131.2" y="1489.0" type="line"/>
      <point x="1131.2" y="842.4" type="line"/>
      <point x="388.8" y="842.4" type="line"/>
      <point x="388.8" y="1489.0" type="line"/>
      <point x="163.2" y="1489.0" type="line"/>
    </contour>
  </outline>
</glyph>
<glyph name="J" format="2">
  <advance height="2479.0" width="1130.4"/>
  <unicode hex="004A"/>
  <anchor x="853.8" y="884.0" name="cross"/>
  <anchor x="854.4" y="1676.0" name="top"/>
  <outline>
    <contour>
      <point x="742.8" y="1489.0" type="line"/>
      <point x="742.8" y="433.6" type="line"/>
      <point x="742.4" y="261.8"/>
      <point x="661.6" y="170.8"/>
      <point x="518.8" y="170.8" type="curve" smooth="yes"/>
      <point x="387.4" y="170.8"/>
      <point x="296.0" y="249.0"/>
      <point x="295.2" y="372.2" type="curve"/>
      <point x="71.8" y="372.2" type="line"/>
      <point x="71.6" y="120.4"/>
      <point x="261.0" y="-20.0"/>
      <point x="513.6" y="-20.0" type="curve" smooth="yes"/>
      <point x="786.8" y="-20.0"/>
      <point x="966.2" y="146.6"/>
      <point x="966.4" y="433.6" type="curve"/>
      <point x="966.4" y="1489.0" type="line"/>
    </contour>
  </outline>
</glyph>
<glyph name="K" format="2">
  <advance height="2479.0" width="1360.6"/>
  <unicode hex="004B"/>
  <anchor x="679.4" y="0.6000000000000001" name="bottom"/>
  <anchor x="684.8" y="1676.0" name="top"/>
  <outline>
    <contour>
      <point x="163.2" y="0.0" type="line"/>
      <point x="388.8" y="0.0" type="line"/>
      <point x="388.8" y="463.2" type="line"/>
      <point x="564.4" y="665.4" type="line"/>
      <point x="1045.8" y="0.0" type="line"/>
      <point x="1316.8" y="0.0" type="line"/>
      <point x="713.0" y="818.8" type="line"/>
      <point x="1314.4" y="1489.0" type="line"/>
      <point x="1031.4" y="1489.0" type="line"/>
      <point x="406.6" y="778.2" type="line"/>
      <point x="388.8" y="778.2" type="line"/>
      <point x="388.8" y="1489.0" type="line"/>
      <point x="163.2" y="1489.0" type="line"/>
    </contour>
  </outline>
</glyph>
<glyph name="L" format="2">
  <advance height="2479.0" width="1155.4"/>
  <unicode hex="004C"/>
  <anchor x="613.4" y="0.0" name="bottom"/>
  <anchor x="276.2" y="772.0" name="cross"/>
  <anchor x="605.0" y="809.8" name="dot"/>
  <anchor x="632.0" y="1489.0" name="raccent"/>
  <anchor x="275.6" y="1676.0" name="top"/>
  <outline>
    <contour>
      <point x="163.2" y="0.0" type="line"/>
      <point x="1063.0" y="0.0" type="line"/>
      <point x="1063.0" y="193.2" type="line"/>
      <point x="388.8" y="193.2" type="line"/>
      <point x="388.8" y="1489.0" type="line"/>
      <point x="163.2" y="1489.0" type="line"/>
    </contour>
  </outline>
</glyph>
<glyph name="M" format="2">
  <advance height="2479.0" width="1839.2"/>
  <unicode hex="004D"/>
  <anchor x="919.6" y="0.0" name="bottom"/>
  <anchor x="1675.2" y="0.0" name="right"/>
  <anchor x="919.6" y="1676.0" name="top"/>
  <outline>
    <contour>
      <point x="163.2" y="1489.0" type="line"/>
      <point x="163.2" y="0.0" type="line"/>
      <point x="377.6" y="0.0" type="line"/>
      <point x="377.6" y="1079.0" type="line"/>
      <point x="391.8" y="1079.0" type="line"/>
      <point x="830.2" y="0.0" type="line"/>
      <point x="1008.2" y="0.0" type="line"/>
      <point x="1446.6" y="1077.8" type="line"/>
      <point x="1461.0" y="1077.8" type="line"/>
      <point x="1461.0" y="0.0" type="line"/>
      <point x="1675.2" y="0.0" type="line"/>
      <point x="1675.2" y="1489.0" type="line"/>
      <point x="1401.8" y="1489.0" type="line"/>
      <point x="927.8" y="331.6" type="line"/>
      <point x="910.6" y="331.6" type="line"/>
      <point x="436.6" y="1489.0" type="line"/>
    </contour>
  </outline>
</glyph>
<glyph name="N" format="2">
  <advance height="2479.0" width="1529.8"/>
  <unicode hex="004E"/>
  <anchor x="765.2" y="0.0" name="bottom"/>
  <anchor x="1378.2" y="0.0" name="right"/>
  <anchor x="765.2" y="1676.0" name="top"/>
  <outline>
    <contour>
      <point x="1365.8" y="1489.0" type="line"/>
      <point x="1143.2" y="1489.0" type="line"/>
      <point x="1143.2" y="395.6" type="line"/>
      <point x="1129.0" y="395.6" type="line"/>
      <point x="371.8" y="1489.0" type="line"/>
      <point x="163.2" y="1489.0" type="line"/>
      <point x="163.2" y="0.0" type="line"/>
      <point x="388.8" y="0.0" type="line"/>
      <point x="388.8" y="1091.8" type="line"/>
      <point x="401.8" y="1091.8" type="line"/>
      <point x="1159.0" y="0.0" type="line"/>
      <point x="1365.8" y="0.0" type="line"/>
    </contour>
  </outline>
</glyph>
<glyph name="O" format="2">
  <advance height="2479.0" width="1573.0"/>
  <unicode hex="004F"/>
  <anchor x="787.0" y="0.0" name="bottom"/>
  <anchor x="941.8" y="-3.5999999999999996" name="ogonek"/>
  <anchor x="192.8" y="1489.0" name="tonos"/>
  <anchor x="787.0" y="1676.0" name="top"/>
  <outline>
    <contour>
      <point x="1457.4" y="745.0" type="curve"/>
      <point x="1457.4" y="1221.2"/>
      <point x="1172.6" y="1510.0"/>
      <point x="787.0" y="1510.0" type="curve" smooth="yes"/>
      <point x="400.6" y="1510.0"/>
      <point x="115.6" y="1221.2"/>
      <point x="115.6" y="745.0" type="curve"/>
      <point x="115.6" y="268.4"/>
      <point x="400.6" y="-20.0"/>
      <point x="787.0" y="-20.0" type="curve" smooth="yes"/>
      <point x="1172.6" y="-20.0"/>
      <point x="1457.4" y="267.8"/>
    </contour>
    <contour>
      <point x="1235.0" y="745.0" type="curve"/>
      <point x="1235.0" y="381.8"/>
      <point x="1043.0" y="184.8"/>
      <point x="787.0" y="184.8" type="curve" smooth="yes"/>
      <point x="530.0" y="184.8"/>
      <point x="338.8" y="381.8"/>
      <point x="338.8" y="745.0" type="curve"/>
      <point x="338.8" y="1108.0"/>
      <point x="530.0" y="1304.4"/>
      <point x="787.0" y="1304.4" type="curve" smooth="yes"/>
      <point x="1043.0" y="1304.4"/>
      <point x="1235.0" y="1108.0"/>
    </contour>
  </outline>
</glyph>
<glyph name="P" format="2">
  <advance height="2479.0" width="1308.8"/>
  <unicode hex="0050"/>
  <anchor x="131.2" y="1489.0" name="tonos"/>
  <anchor x="650.6" y="1676.0" name="top"/>
  <outline>
    <contour>
      <point x="163.2" y="0.0" type="line"/>
      <point x="388.8" y="0.0" type="line"/>
      <point x="388.8" y="1296.6" type="line"/>
      <point x="671.0" y="1296.6" type="line" smooth="yes"/>
      <point x="893.0" y="1296.6"/>
      <point x="983.6" y="1175.8"/>
      <point x="983.6" y="1007.0" type="curve" smooth="yes"/>
      <point x="983.6" y="838.4"/>
      <point x="893.0" y="714.4"/>
      <point x="673.4" y="714.4" type="curve" smooth="yes"/>
      <point x="328.8" y="714.4" type="line"/>
      <point x="328.8" y="523.6" type="line"/>
      <point x="694.4" y="523.6" type="line" smooth="yes"/>
      <point x="1039.2" y="523.6"/>
      <point x="1210.4" y="732.4"/>
      <point x="1210.4" y="1007.0" type="curve" smooth="yes"/>
      <point x="1210.4" y="1280.8"/>
      <point x="1040.4" y="1489.0"/>
      <point x="695.0" y="1489.0" type="curve" smooth="yes"/>
      <point x="163.2" y="1489.0" type="line"/>
    </contour>
  </outline>
</glyph>
<glyph name="Q" format="2">
  <advance height="2479.0" width="1573.6"/>
  <unicode hex="0051"/>
  <anchor x="787.0" y="0.0" name="bottom"/>
  <anchor x="941.8" y="-3.5999999999999996" name="ogonek"/>
  <anchor x="192.8" y="1489.0" name="tonos"/>
  <anchor x="787.0" y="1676.0" name="top"/>
  <outline>
    <contour>
      <point x="711.2" y="482.6" type="line"/>
      <point x="957.4" y="160.8" type="line"/>
      <point x="1013.4" y="82.4" type="line"/>
      <point x="1179.2" y="-134.2" type="line"/>
      <point x="1409.2" y="-134.2" type="line"/>
      <point x="1161.6" y="189.6" type="line"/>
      <point x="1088.0" y="279.6" type="line"/>
      <point x="932.4" y="482.6" type="line"/>
    </contour>
    <component base="O"/>
  </outline>
</glyph>
<glyph name="R" format="2">
  <advance height="2479.0" width="1320.6"/>
  <unicode hex="0052"/>
  <anchor x="677.2" y="0.0" name="bottom"/>
  <anchor x="651.8" y="1676.0" name="top"/>
  <outline>
    <contour>
      <point x="163.2" y="0.0" type="line"/>
      <point x="388.8" y="0.0" type="line"/>
      <point x="388.8" y="1296.6" type="line"/>
      <point x="671.0" y="1296.6" type="line" smooth="yes"/>
      <point x="892.2" y="1296.6"/>
      <point x="983.6" y="1191.8"/>
      <point x="983.6" y="1023.0" type="curve" smooth="yes"/>
      <point x="983.6" y="854.4"/>
      <point x="892.2" y="757.2"/>
      <point x="673.4" y="757.2" type="curve" smooth="yes"/>
      <point x="291.2" y="757.2" type="line"/>
      <point x="291.2" y="564.0" type="line"/>
      <point x="694.4" y="564.0" type="line" smooth="yes"/>
      <point x="1039.2" y="564.0"/>
      <point x="1210.4" y="747.8"/>
      <point x="1210.4" y="1023.0" type="curve" smooth="yes"/>
      <point x="1210.4" y="1296.8"/>
      <point x="1040.4" y="1489.0"/>
      <point x="695.0" y="1489.0" type="curve" smooth="yes"/>
      <point x="163.2" y="1489.0" type="line"/>
    </contour>
    <contour>
      <point x="898.6" y="672.0" type="line"/>
      <point x="650.0" y="672.0" type="line"/>
      <point x="1011.6" y="0.0" type="line"/>
      <point x="1266.6" y="0.0" type="line"/>
    </contour>
  </outline>
</glyph>
<glyph name="S" format="2">
  <advance height="2479.0" width="1317.6"/>
  <unicode hex="0053"/>
  <anchor x="661.8" y="-20.8" name="bottom"/>
  <anchor x="661.4" y="0.0" name="cedilla"/>
  <anchor x="658.4" y="1676.0" name="top"/>
  <outline>
    <contour>
      <point x="975.8" y="1098.4" type="curve"/>
      <point x="1192.4" y="1098.4" type="line"/>
      <point x="1185.6" y="1336.8"/>
      <point x="975.0" y="1510.0"/>
      <point x="672.4" y="1510.0" type="curve" smooth="yes"/>
      <point x="373.6" y="1510.0"/>
      <point x="144.4" y="1339.0"/>
      <point x="144.8" y="1082.4" type="curve" smooth="yes"/>
      <point x="144.6" y="875.0"/>
      <point x="293.8" y="753.8"/>
      <point x="532.2" y="689.0" type="curve" smooth="yes"/>
      <point x="709.0" y="641.0" type="line" smooth="yes"/>
      <point x="867.8" y="598.4"/>
      <point x="990.4" y="546.2"/>
      <point x="990.6" y="413.4" type="curve" smooth="yes"/>
      <point x="990.4" y="268.4"/>
      <point x="851.4" y="172.4"/>
      <point x="660.6" y="172.4" type="curve" smooth="yes"/>
      <point x="487.2" y="172.4"/>
      <point x="343.4" y="249.4"/>
      <point x="330.8" y="412.0" type="curve"/>
      <point x="104.4" y="412.0" type="line"/>
      <point x="119.2" y="142.0"/>
      <point x="328.2" y="-24.2"/>
      <point x="661.8" y="-24.2" type="curve" smooth="yes"/>
      <point x="1011.8" y="-24.2"/>
      <point x="1213.0" y="159.4"/>
      <point x="1213.2" y="411.0" type="curve" smooth="yes"/>
      <point x="1213.0" y="680.4"/>
      <point x="973.8" y="784.2"/>
      <point x="785.0" y="831.2" type="curve" smooth="yes"/>
      <point x="639.8" y="868.4" type="line" smooth="yes"/>
      <point x="522.6" y="897.6"/>
      <point x="368.4" y="953.0"/>
      <point x="369.2" y="1095.4" type="curve" smooth="yes"/>
      <point x="369.4" y="1222.0"/>
      <point x="485.0" y="1315.6"/>
      <point x="667.6" y="1315.6" type="curve" smooth="yes"/>
      <point x="838.6" y="1315.6"/>
      <point x="959.8" y="1235.4"/>
    </contour>
  </outline>
</glyph>
<glyph name="T" format="2">
  <advance height="2479.0" width="1333.0"/>
  <unicode hex="0054"/>
  <anchor x="665.8" y="0.0" name="bottom"/>
  <anchor x="683.8" y="0.0" name="cedilla"/>
  <anchor x="665.8" y="747.6" name="cross"/>
  <anchor x="878.4" y="83.8" name="cyrtic"/>
  <anchor x="729.4" y="0.0" name="right"/>
  <anchor x="666.4" y="1676.0" name="top"/>
  <outline>
    <contour>
      <point x="90.2" y="1296.0" type="line"/>
      <point x="554.2" y="1296.0" type="line"/>
      <point x="554.2" y="0.0" type="line"/>
      <point x="778.8" y="0.0" type="line"/>
      <point x="778.8" y="1296.0" type="line"/>
      <point x="1242.8" y="1296.0" type="line"/>
      <point x="1242.8" y="1489.0" type="line"/>
      <point x="90.2" y="1489.0" type="line"/>
    </contour>
  </outline>
</glyph>
<glyph name="U" format="2">
  <advance height="2479.0" width="1510.8"/>
  <unicode hex="0055"/>
  <anchor x="755.0" y="-14.2" name="bottom"/>
  <anchor x="913.6" y="2.0" name="ogonek"/>
  <anchor x="848.6" y="0.0" name="right"/>
  <anchor x="755.0" y="1676.0" name="top"/>
  <outline>
    <contour>
      <point x="1121.8" y="1489.0" type="line"/>
      <point x="1121.8" y="528.4" type="line" smooth="yes"/>
      <point x="1121.8" y="326.2"/>
      <point x="982.0" y="180.8"/>
      <point x="755.0" y="180.8" type="curve" smooth="yes"/>
      <point x="528.8" y="180.8"/>
      <point x="388.8" y="326.2"/>
      <point x="388.8" y="528.4" type="curve" smooth="yes"/>
      <point x="388.8" y="1489.0" type="line"/>
      <point x="163.2" y="1489.0" type="line"/>
      <point x="163.2" y="509.4" type="line" smooth="yes"/>
      <point x="163.2" y="197.4"/>
      <point x="397.8" y="-24.2"/>
      <point x="755.0" y="-24.2" type="curve" smooth="yes"/>
      <point x="1112.2" y="-24.2"/>
      <point x="1346.8" y="197.4"/>
      <point x="1346.8" y="509.4" type="curve" smooth="yes"/>
      <point x="1346.8" y="1489.0" type="line"/>
    </contour>
  </outline>
</glyph>
<glyph name="W" format="2">
  <advance height="2479.0" width="2000.6"/>
  <unicode hex="0057"/>
  <anchor x="1000.8" y="9.6" name="bottom"/>
  <anchor x="1000.8" y="1676.0" name="top"/>
  <outline>
    <contour>
      <point x="454.8" y="0.0" type="line"/>
      <point x="681.0" y="0.0" type="line"/>
      <point x="994.8" y="1116.0" type="line"/>
      <point x="1006.0" y="1116.0" type="line"/>
      <point x="1319.8" y="0.0" type="line"/>
      <point x="1546.0" y="0.0" type="line"/>
      <point x="1960.2" y="1489.0" type="line"/>
      <point x="1722.8" y="1489.0" type="line"/>
      <point x="1433.4" y="334.8" type="line"/>
      <point x="1419.8" y="334.8" type="line"/>
      <point x="1117.0" y="1489.0" type="line"/>
      <point x="883.8" y="1489.0" type="line"/>
      <point x="581.8" y="335.4" type="line"/>
      <point x="567.4" y="335.4" type="line"/>
      <point x="278.0" y="1489.0" type="line"/>
      <point x="41.4" y="1489.0" type="line"/>
    </contour>
  </outline>
</glyph>
<glyph name="X" format="2">
  <advance height="2479.0" width="1364.4"/>
  <unicode hex="0058"/>
  <anchor x="681.6" y="8.4" name="bottom"/>
  <anchor x="681.6" y="745.0" name="cross"/>
  <anchor x="1267.4" y="83.8" name="cyrtic"/>
  <anchor x="1161.6" y="0.0" name="right"/>
  <anchor x="681.6" y="1676.0" name="top"/>
  <outline>
    <contour>
      <point x="320.2" y="1489.0" type="line"/>
      <point x="59.2" y="1489.0" type="line"/>
      <point x="531.6" y="745.0" type="line"/>
      <point x="56.2" y="0.0" type="line"/>
      <point x="318.6" y="0.0" type="line"/>
      <point x="676.4" y="574.8" type="line"/>
      <point x="687.4" y="574.8" type="line"/>
      <point x="1045.4" y="0.0" type="line"/>
      <point x="1308.2" y="0.0" type="line"/>
      <point x="840.6" y="745.0" type="line"/>
      <point x="1304.8" y="1489.0" type="line"/>
      <point x="1044.2" y="1489.0" type="line"/>
      <point x="687.4" y="907.2" type="line"/>
      <point x="676.4" y="907.2" type="line"/>
    </contour>
  </outline>
</glyph>
<glyph name="Y" format="2">
  <advance height="2479.0" width="1401.8"/>
  <unicode hex="0059"/>
  <anchor x="701.4" y="0.0" name="bottom"/>
  <anchor x="701.4" y="585.6" name="cross"/>
  <anchor x="813.4" y="0.0" name="ogonek"/>
  <anchor x="-16.4" y="1489.0" name="tonos"/>
  <anchor x="701.4" y="1676.0" name="top"/>
  <outline>
    <contour>
      <point x="48.6" y="1489.0" type="line"/>
      <point x="589.2" y="584.8" type="line"/>
      <point x="589.2" y="0.0" type="line"/>
      <point x="813.4" y="0.0" type="line"/>
      <point x="813.4" y="584.8" type="line"/>
      <point x="1353.2" y="1489.0" type="line"/>
      <point x="1098.2" y="1489.0" type="line"/>
      <point x="708.8" y="812.0" type="line"/>
      <point x="693.0" y="812.0" type="line"/>
      <point x="304.4" y="1489.0" type="line"/>
    </contour>
  </outline>
</glyph>
<glyph name="Z" format="2">
  <advance height="2479.0" width="1308.6"/>
  <unicode hex="005A"/>
  <anchor x="649.8" y="0.0" name="bottom"/>
  <anchor x="672.4" y="772.0" name="cross"/>
  <anchor x="655.2" y="1676.0" name="top"/>
  <outline>
    <contour>
      <point x="125.2" y="0.0" type="line"/>
      <point x="1190.0" y="0.0" type="line"/>
      <point x="1190.0" y="193.2" type="line"/>
      <point x="400.2" y="193.2" type="line"/>
      <point x="1183.4" y="1340.2" type="line"/>
      <point x="1183.4" y="1489.0" type="line"/>
      <point x="118.6" y="1489.0" type="line"/>
      <point x="118.6" y="1296.0" type="line"/>
      <point x="908.4" y="1296.0" type="line"/>
      <point x="125.2" y="149.6" type="line"/>
    </contour>
  </outline>
</glyph>
<glyph name="bracketleft" format="2">
  <advance height="2479.0" width="774.0"/>
  <unicode hex="005B"/>
  <outline>
    <contour>
      <point x="233.0" y="-309.8" type="line"/>
      <point x="711.6" y="-309.8" type="line"/>
      <point x="711.6" y="-137.4" type="line"/>
      <point x="441.4" y="-137.4" type="line"/>
      <point x="441.4" y="1373.4" type="line"/>
      <point x="711.6" y="1373.4" type="line"/>
      <point x="711.6" y="1545.0" type="line"/>
      <point x="233.0" y="1545.0" type="line"/>
    </contour>
  </outline>
</glyph>
<glyph name="backslash" format="2">
  <advance height="2479.0" width="752.8"/>
  <unicode hex="005C"/>
  <outline>
    <contour>
      <point x="519.2" y="-224.0" type="line"/>
      <point x="712.8" y="-224.0" type="line"/>
      <point x="232.8" y="1559.0" type="line"/>
      <point x="39.2" y="1559.0" type="line"/>
    </contour>
  </outline>
</glyph>
<glyph name="asciicircum" format="2">
  <advance height="2479.0" width="972.8"/>
  <unicode hex="005E"/>
  <outline>
    <contour>
      <point x="460.4" y="1350.0" type="line"/>
      <point x="460.4" y="1275.6" type="line"/>
      <point x="512.4" y="1275.6" type="line"/>
      <point x="512.4" y="1350.0" type="line"/>
    </contour>
    <contour>
      <point x="76.4" y="815.0" type="line"/>
      <point x="271.8" y="815.0" type="line"/>
      <point x="494.8" y="1304.6" type="line"/>
      <point x="478.0" y="1304.6" type="line"/>
      <point x="703.4" y="815.0" type="line"/>
      <point x="896.4" y="815.0" type="line"/>
      <point x="594.2" y="1447.6" type="line"/>
      <point x="378.6" y="1447.6" type="line"/>
    </contour>
  </outline>
</glyph>
<glyph name="underscore" format="2">
  <advance height="2479.0" width="941.8"/>
  <unicode hex="005F"/>
  <anchor x="469.2" y="150.6" name="_bottom"/>
  <outline>
    <contour>
      <point x="944.2" y="0.0" type="line"/>
      <point x="-2.4" y="0.0" type="line"/>
      <point x="-2.4" y="-185.0" type="line"/>
      <point x="944.2" y="-185.0" type="line"/>
    </contour>
  </outline>
</glyph>
<glyph name="grave" format="2">
  <advance height="2479.0" width="1018.0"/>
  <unicode hex="0060"/>
  <anchor x="619.4" y="1303.0" name="_top"/>
  <anchor x="600.2" y="1676.0" name="top"/>
  <outline>
    <contour>
      <point x="534.8" y="1265.8" type="line"/>
      <point x="708.6" y="1265.8" type="line"/>
      <point x="539.0" y="1601.4" type="line"/>
      <point x="309.6" y="1601.4" type="line"/>
    </contour>
  </outline>
</glyph>
<glyph name="a" format="2">
  <advance height="2479.0" width="1166.0"/>
  <unicode hex="0061"/>
  <anchor x="590.8" y="0.0" name="bottom"/>
  <anchor x="1022.4" y="0.0" name="ogonek"/>
  <anchor x="593.0" y="1303.0" name="rhalfring"/>
  <anchor x="600.2" y="1303.0" name="top"/>
  <outline>
    <contour>
      <point x="471.4" y="-24.6" type="curve" smooth="yes"/>
      <point x="656.6" y="-24.6"/>
      <point x="760.0" y="69.6"/>
      <point x="800.8" y="152.2" type="curve"/>
      <point x="809.8" y="152.2" type="line"/>
      <point x="809.8" y="0.0" type="line"/>
      <point x="1022.4" y="0.0" type="line"/>
      <point x="1022.4" y="741.8" type="line" smooth="yes"/>
      <point x="1022.4" y="1067.2"/>
      <point x="766.4" y="1132.0"/>
      <point x="589.0" y="1132.0" type="curve" smooth="yes"/>
      <point x="387.0" y="1132.0"/>
      <point x="200.6" y="1049.8"/>
      <point x="128.2" y="846.6" type="curve"/>
      <point x="332.6" y="800.2" type="line"/>
      <point x="364.0" y="879.0"/>
      <point x="446.2" y="955.0"/>
      <point x="592.6" y="955.0" type="curve" smooth="yes"/>
      <point x="732.2" y="955.0"/>
      <point x="804.6" y="882.2"/>
      <point x="804.6" y="755.4" type="curve" smooth="yes"/>
      <point x="804.6" y="750.8" type="line" smooth="yes"/>
      <point x="804.6" y="671.4"/>
      <point x="723.0" y="673.0"/>
      <point x="522.4" y="649.4" type="curve" smooth="yes"/>
      <point x="310.6" y="624.6"/>
      <point x="93.8" y="569.0"/>
      <point x="93.8" y="315.2" type="curve" smooth="yes"/>
      <point x="93.8" y="96.4"/>
      <point x="258.2" y="-24.6"/>
    </contour>
    <contour>
      <point x="518.4" y="149.2" type="curve" smooth="yes"/>
      <point x="395.2" y="149.2"/>
      <point x="306.4" y="205.0"/>
      <point x="306.4" y="312.8" type="curve" smooth="yes"/>
      <point x="306.4" y="429.0"/>
      <point x="410.4" y="470.6"/>
      <point x="535.4" y="487.2" type="curve" smooth="yes"/>
      <point x="606.6" y="496.4"/>
      <point x="773.4" y="515.8"/>
      <point x="805.0" y="546.6" type="curve"/>
      <point x="805.0" y="402.4" type="line" smooth="yes"/>
      <point x="805.0" y="270.8"/>
      <point x="699.8" y="149.2"/>
    </contour>
  </outline>
</glyph>
<glyph name="b" format="2">
  <advance height="2479.0" width="1281.0"/>
  <unicode hex="0062"/>
  <anchor x="677.4" y="0.0" name="bottom"/>
  <anchor x="273.2" y="1280.0" name="cross"/>
  <anchor x="716.0" y="1303.0" name="top"/>
  <outline>
    <contour>
      <point x="163.2" y="0.0" type="line"/>
      <point x="375.8" y="0.0" type="line"/>
      <point x="375.8" y="174.2" type="line"/>
      <point x="394.2" y="174.2" type="line"/>
      <point x="433.2" y="102.8"/>
      <point x="513.0" y="-21.4"/>
      <point x="716.6" y="-21.4" type="curve" smooth="yes"/>
      <point x="988.2" y="-21.4"/>
      <point x="1184.4" y="195.2"/>
      <point x="1184.4" y="556.6" type="curve" smooth="yes"/>
      <point x="1184.4" y="919.0"/>
      <point x="985.4" y="1132.0"/>
      <point x="714.6" y="1132.0" type="curve" smooth="yes"/>
      <point x="507.2" y="1132.0"/>
      <point x="432.6" y="1005.6"/>
      <point x="394.2" y="936.4" type="curve"/>
      <point x="381.0" y="936.4" type="line"/>
      <point x="381.0" y="1489.0" type="line"/>
      <point x="163.2" y="1489.0" type="line"/>
    </contour>
    <contour>
      <point x="377.0" y="559.0" type="curve" smooth="yes"/>
      <point x="377.0" y="792.0"/>
      <point x="479.2" y="946.2"/>
      <point x="668.4" y="946.2" type="curve" smooth="yes"/>
      <point x="865.0" y="946.2"/>
      <point x="964.2" y="780.0"/>
      <point x="964.2" y="559.0" type="curve" smooth="yes"/>
      <point x="964.2" y="334.6"/>
      <point x="862.6" y="163.6"/>
      <point x="668.4" y="163.6" type="curve" smooth="yes"/>
      <point x="481.6" y="163.6"/>
      <point x="377.0" y="323.2"/>
    </contour>
  </outline>
</glyph>
<glyph name="c" format="2">
  <advance height="2479.0" width="1162.8"/>
  <unicode hex="0063"/>
  <anchor x="612.6" y="0.0" name="cedilla"/>
  <anchor x="612.6" y="1303.0" name="top"/>
  <outline>
    <contour>
      <point x="616.8" y="-22.4" type="curve" smooth="yes"/>
      <point x="880.6" y="-22.4"/>
      <point x="1051.6" y="136.2"/>
      <point x="1075.6" y="353.8" type="curve"/>
      <point x="864.4" y="353.8" type="line"/>
      <point x="837.0" y="232.8"/>
      <point x="742.8" y="161.8"/>
      <point x="618.0" y="161.8" type="curve" smooth="yes"/>
      <point x="433.6" y="161.8"/>
      <point x="315.0" y="315.0"/>
      <point x="315.0" y="559.0" type="curve" smooth="yes"/>
      <point x="315.0" y="798.0"/>
      <point x="436.0" y="948.0"/>
      <point x="618.0" y="948.0" type="curve" smooth="yes"/>
      <point x="756.6" y="948.0"/>
      <point x="840.6" y="861.0"/>
      <point x="864.4" y="756.8" type="curve"/>
      <point x="1075.6" y="756.8" type="line"/>
      <point x="1052.0" y="982.2"/>
      <point x="869.0" y="1132.0"/>
      <point x="614.4" y="1132.0" type="curve" smooth="yes"/>
      <point x="299.2" y="1132.0"/>
      <point x="96.2" y="894.2"/>
      <point x="96.2" y="553.6" type="curve" smooth="yes"/>
      <point x="96.2" y="216.8"/>
      <point x="292.8" y="-22.4"/>
    </contour>
  </outline>
</glyph>
<glyph name="d" format="2">
  <advance height="2479.0" width="1281.8"/>
  <unicode hex="0064"/>
  <anchor x="624.0" y="0.0" name="bottom"/>
  <anchor x="1008.8" y="1280.0" name="cross"/>
  <anchor x="1254.6" y="1489.0" name="raccent"/>
  <anchor x="588.6" y="1489.0" name="top"/>
  <outline>
    <contour>
      <point x="564.4" y="-21.4" type="curve" smooth="yes"/>
      <point x="767.8" y="-21.4"/>
      <point x="847.8" y="102.8"/>
      <point x="887.4" y="174.2" type="curve"/>
      <point x="905.2" y="174.2" type="line"/>
      <point x="905.2" y="0.0" type="line"/>
      <point x="1117.8" y="0.0" type="line"/>
      <point x="1117.8" y="1489.0" type="line"/>
      <point x="899.8" y="1489.0" type="line"/>
      <point x="899.8" y="936.4" type="line"/>
      <point x="887.4" y="936.4" type="line"/>
      <point x="848.4" y="1005.6"/>
      <point x="773.8" y="1132.0"/>
      <point x="566.2" y="1132.0" type="curve" smooth="yes"/>
      <point x="296.4" y="1132.0"/>
      <point x="97.4" y="919.0"/>
      <point x="97.4" y="556.6" type="curve" smooth="yes"/>
      <point x="97.4" y="195.2"/>
      <point x="293.6" y="-21.4"/>
    </contour>
    <contour>
      <point x="612.6" y="163.6" type="curve" smooth="yes"/>
      <point x="418.4" y="163.6"/>
      <point x="316.8" y="334.6"/>
      <point x="316.8" y="559.0" type="curve" smooth="yes"/>
      <point x="316.8" y="780.0"/>
      <point x="416.0" y="946.2"/>
      <point x="612.6" y="946.2" type="curve" smooth="yes"/>
      <point x="802.6" y="946.2"/>
      <point x="904.0" y="792.0"/>
      <point x="904.0" y="559.0" type="curve" smooth="yes"/>
      <point x="904.0" y="323.2"/>
      <point x="800.2" y="163.6"/>
    </contour>
  </outline>
</glyph>
<glyph name="e" format="2">
  <advance height="2479.0" width="1203.4"/>
  <unicode hex="0065"/>
  <anchor x="603.8" y="0.0" name="bottom"/>
  <anchor x="607.2" y="0.0" name="cedilla"/>
  <anchor x="805.8" y="9.8" name="ogonek"/>
  <anchor x="603.8" y="1303.0" name="top"/>
  <outline>
    <contour>
      <point x="627.4" y="-22.4" type="curve"/>
      <point x="871.0" y="-22.4"/>
      <point x="1043.6" y="97.6"/>
      <point x="1093.6" y="279.4" type="curve"/>
      <point x="887.4" y="316.2" type="line"/>
      <point x="847.6" y="210.6"/>
      <point x="753.6" y="157.2"/>
      <point x="629.2" y="157.2" type="curve" smooth="yes"/>
      <point x="439.0" y="157.2"/>
      <point x="312.2" y="284.0"/>
      <point x="312.2" y="508.8" type="curve" smooth="yes"/>
      <point x="312.2" y="635.8" type="line" smooth="yes"/>
      <point x="312.6" y="802.2"/>
      <point x="429.4" y="951.4"/>
      <point x="613.8" y="951.4" type="curve"/>
      <point x="782.6" y="951.4"/>
      <point x="892.8" y="827.0"/>
      <point x="893.4" y="656.6" type="curve"/>
      <point x="218.8" y="656.6" type="line"/>
      <point x="218.8" y="493.0" type="line"/>
      <point x="1107.2" y="493.0" type="line"/>
      <point x="1107.2" y="570.2" type="line" smooth="yes"/>
      <point x="1107.2" y="974.0"/>
      <point x="866.0" y="1132.0"/>
      <point x="612.0" y="1132.0" type="curve" smooth="yes"/>
      <point x="300.4" y="1132.0"/>
      <point x="96.2" y="894.8"/>
      <point x="96.2" y="551.2" type="curve" smooth="yes"/>
      <point x="96.2" y="204.4"/>
      <point x="298.2" y="-22.4"/>
    </contour>
  </outline>
</glyph>
<glyph name="f" format="2">
  <advance height="2479.0" width="755.8"/>
  <unicode hex="0066"/>
  <anchor x="328.8" y="0.0" name="bottom"/>
  <anchor x="328.6" y="641.2" name="cross"/>
  <anchor x="415.2" y="1676.0" name="top"/>
  <outline>
    <contour>
      <point x="678.2" y="1117.0" type="line"/>
      <point x="46.2" y="1117.0" type="line"/>
      <point x="46.2" y="942.8" type="line"/>
      <point x="678.2" y="942.8" type="line"/>
    </contour>
    <component base="_part.f_base" xOffset="-3.4000000000000004"/>
  </outline>
</glyph>
<glyph name="g" format="2">
  <advance height="2479.0" width="1264.4"/>
  <unicode hex="0067"/>
  <anchor x="626.4" y="-436.8" name="bottom"/>
  <anchor x="1012.0" y="564.6" name="cross"/>
  <anchor x="628.0" y="1303.0" name="top"/>
  <outline>
    <contour>
      <point x="614.4" y="-442.0" type="curve" smooth="yes"/>
      <point x="899.4" y="-442.0"/>
      <point x="1118.4" y="-312.2"/>
      <point x="1118.4" y="-25.0" type="curve" smooth="yes"/>
      <point x="1118.4" y="1117.0" type="line"/>
      <point x="905.2" y="1117.0" type="line"/>
      <point x="905.2" y="936.4" type="line"/>
      <point x="889.8" y="936.4" type="line"/>
      <point x="850.8" y="1005.6"/>
      <point x="773.8" y="1132.0"/>
      <point x="566.2" y="1132.0" type="curve" smooth="yes"/>
      <point x="296.4" y="1132.0"/>
      <point x="97.4" y="919.0"/>
      <point x="97.4" y="563.0" type="curve" smooth="yes"/>
      <point x="97.4" y="206.4"/>
      <point x="300.0" y="16.6"/>
      <point x="564.4" y="16.6" type="curve" smooth="yes"/>
      <point x="769.0" y="16.6"/>
      <point x="849.0" y="131.8"/>
      <point x="888.0" y="204.0" type="curve"/>
      <point x="901.6" y="204.0" type="line"/>
      <point x="901.6" y="-15.399999999999999" type="line" smooth="yes"/>
      <point x="901.6" y="-191.4"/>
      <point x="781.6" y="-267.2"/>
      <point x="616.8" y="-267.2" type="curve" smooth="yes"/>
      <point x="435.8" y="-267.2"/>
      <point x="365.6" y="-176.0"/>
      <point x="326.4" y="-112.2" type="curve"/>
      <point x="139.4" y="-189.0" type="line"/>
      <point x="198.4" y="-325.6"/>
      <point x="348.0" y="-442.0"/>
    </contour>
    <contour>
      <point x="612.6" y="197.6" type="curve" smooth="yes"/>
      <point x="418.4" y="197.6"/>
      <point x="316.8" y="346.6"/>
      <point x="316.8" y="565.4" type="curve" smooth="yes"/>
      <point x="316.8" y="780.0"/>
      <point x="416.0" y="946.2"/>
      <point x="612.6" y="946.2" type="curve" smooth="yes"/>
      <point x="802.6" y="946.2"/>
      <point x="904.0" y="792.0"/>
      <point x="904.0" y="565.4" type="curve" smooth="yes"/>
      <point x="904.0" y="335.2"/>
      <point x="800.2" y="197.6"/>
    </contour>
  </outline>
</glyph>
<glyph name="h" format="2">
  <advance height="2479.0" width="1232.8"/>
  <unicode hex="0068"/>
  <anchor x="614.2" y="0.0" name="bottom"/>
  <anchor x="268.4" y="0.0" name="cedilla"/>
  <anchor x="254.0" y="1296.6" name="cross"/>
  <anchor x="254.6" y="1676.0" name="top"/>
  <outline>
    <contour>
      <point x="363.8" y="663.2" type="line" smooth="yes"/>
      <point x="364.0" y="841.4"/>
      <point x="476.0" y="942.8"/>
      <point x="631.6" y="942.8" type="curve" smooth="yes"/>
      <point x="781.0" y="942.8"/>
      <point x="870.2" y="848.6"/>
      <point x="870.0" y="684.0" type="curve" smooth="yes"/>
      <point x="870.0" y="0.0" type="line"/>
      <point x="1088.0" y="0.0" type="line"/>
      <point x="1088.0" y="710.6" type="line" smooth="yes"/>
      <point x="1088.0" y="989.0"/>
      <point x="934.8" y="1132.0"/>
      <point x="705.2" y="1132.0" type="curve" smooth="yes"/>
      <point x="531.4" y="1132.0"/>
      <point x="427.0" y="1055.8"/>
      <point x="374.4" y="935.4" type="curve"/>
      <point x="361.0" y="935.4" type="line"/>
      <point x="361.0" y="1489.0" type="line"/>
      <point x="146.0" y="1489.0" type="line"/>
      <point x="146.0" y="0.0" type="line"/>
      <point x="363.8" y="0.0" type="line"/>
    </contour>
  </outline>
</glyph>
<glyph name="l" format="2">
  <advance height="2479.0" width="509.8"/>
  <unicode hex="006C"/>
  <anchor x="255.0" y="0.0" name="bottom"/>
  <anchor x="255.0" y="768.0" name="cross"/>
  <anchor x="500.8" y="1489.0" name="raccent"/>
  <anchor x="253.4" y="1676.0" name="top"/>
  <outline>
    <contour>
      <point x="363.8" y="1489.0" type="line"/>
      <point x="146.0" y="1489.0" type="line"/>
      <point x="146.0" y="0.0" type="line"/>
      <point x="363.8" y="0.0" type="line"/>
    </contour>
  </outline>
</glyph>
<glyph name="m" format="2">
  <advance height="2479.0" width="1809.2"/>
  <unicode hex="006D"/>
  <anchor x="905.2" y="0.0" name="bottom"/>
  <anchor x="905.2" y="1303.0" name="top"/>
  <outline>
    <contour>
      <point x="146.0" y="0.0" type="line"/>
      <point x="363.8" y="0.0" type="line"/>
      <point x="363.8" y="688.8" type="line" smooth="yes"/>
      <point x="363.8" y="839.4"/>
      <point x="469.2" y="943.4"/>
      <point x="593.0" y="943.4" type="curve" smooth="yes"/>
      <point x="713.6" y="943.4"/>
      <point x="797.2" y="863.4"/>
      <point x="797.2" y="742.4" type="curve" smooth="yes"/>
      <point x="797.2" y="0.0" type="line"/>
      <point x="1013.2" y="0.0" type="line"/>
      <point x="1013.2" y="712.0" type="line" smooth="yes"/>
      <point x="1013.2" y="846.6"/>
      <point x="1096.2" y="943.4"/>
      <point x="1238.4" y="943.4" type="curve" smooth="yes"/>
      <point x="1352.6" y="943.4"/>
      <point x="1447.2" y="880.2"/>
      <point x="1447.2" y="728.8" type="curve" smooth="yes"/>
      <point x="1447.2" y="0.0" type="line"/>
      <point x="1664.4" y="0.0" type="line"/>
      <point x="1664.4" y="749.0" type="line" smooth="yes"/>
      <point x="1664.4" y="1004.6"/>
      <point x="1522.2" y="1132.0"/>
      <point x="1320.2" y="1132.0" type="curve" smooth="yes"/>
      <point x="1159.0" y="1132.0"/>
      <point x="1038.6" y="1054.6"/>
      <point x="984.8" y="935.4" type="curve"/>
      <point x="973.6" y="935.4" type="line"/>
      <point x="924.2" y="1057.8"/>
      <point x="821.6" y="1132.0"/>
      <point x="672.6" y="1132.0" type="curve" smooth="yes"/>
      <point x="525.6" y="1132.0"/>
      <point x="415.4" y="1058.4"/>
      <point x="368.6" y="935.4" type="curve"/>
      <point x="355.0" y="935.4" type="line"/>
      <point x="355.0" y="1117.0" type="line"/>
      <point x="146.0" y="1117.0" type="line"/>
    </contour>
  </outline>
</glyph>
<glyph name="n" format="2">
  <advance height="2479.0" width="1224.0"/>
  <unicode hex="006E"/>
  <anchor x="611.8" y="0.0" name="bottom"/>
  <anchor x="611.8" y="1303.0" name="top"/>
  <outline>
    <contour>
      <point x="363.8" y="663.2" type="line" smooth="yes"/>
      <point x="364.0" y="841.4"/>
      <point x="472.6" y="942.8"/>
      <point x="624.4" y="942.8" type="curve" smooth="yes"/>
      <point x="771.8" y="942.8"/>
      <point x="861.4" y="846.2"/>
      <point x="861.2" y="684.0" type="curve" smooth="yes"/>
      <point x="861.2" y="0.0" type="line"/>
      <point x="1078.4" y="0.0" type="line"/>
      <point x="1078.4" y="710.6" type="line" smooth="yes"/>
      <point x="1078.4" y="987.2"/>
      <point x="926.2" y="1132.0"/>
      <point x="698.0" y="1132.0" type="curve" smooth="yes"/>
      <point x="530.6" y="1132.0"/>
      <point x="420.6" y="1054.0"/>
      <point x="368.6" y="935.4" type="curve"/>
      <point x="355.0" y="935.4" type="line"/>
      <point x="355.0" y="1117.0" type="line"/>
      <point x="146.0" y="1117.0" type="line"/>
      <point x="146.0" y="0.0" type="line"/>
      <point x="363.8" y="0.0" type="line"/>
    </contour>
  </outline>
</glyph>
<glyph name="o" format="2">
  <advance height="2479.0" width="1233.6"/>
  <unicode hex="006F"/>
  <anchor x="616.8" y="0.0" name="bottom"/>
  <anchor x="752.4" y="0.0" name="ogonek"/>
  <anchor x="616.8" y="1303.0" name="top"/>
  <outline>
    <contour>
      <point x="616.8" y="-22.4" type="curve" smooth="yes"/>
      <point x="931.2" y="-22.4"/>
      <point x="1137.4" y="208.0"/>
      <point x="1137.4" y="553.6" type="curve" smooth="yes"/>
      <point x="1137.4" y="901.4"/>
      <point x="931.2" y="1132.0"/>
      <point x="616.8" y="1132.0" type="curve" smooth="yes"/>
      <point x="301.6" y="1132.0"/>
      <point x="96.2" y="901.4"/>
      <point x="96.2" y="553.6" type="curve" smooth="yes"/>
      <point x="96.2" y="208.0"/>
      <point x="301.6" y="-22.4"/>
    </contour>
    <contour>
      <point x="617.4" y="160.0" type="curve" smooth="yes"/>
      <point x="411.8" y="160.0"/>
      <point x="315.0" y="339.8"/>
      <point x="315.0" y="554.2" type="curve" smooth="yes"/>
      <point x="315.0" y="768.4"/>
      <point x="411.8" y="949.8"/>
      <point x="617.4" y="949.8" type="curve" smooth="yes"/>
      <point x="821.8" y="949.8"/>
      <point x="917.8" y="768.4"/>
      <point x="917.8" y="554.2" type="curve" smooth="yes"/>
      <point x="917.8" y="339.8"/>
      <point x="821.8" y="160.0"/>
    </contour>
  </outline>
</glyph>
<glyph name="p" format="2">
  <advance height="2479.0" width="1262.6"/>
  <unicode hex="0070"/>
  <anchor x="253.8" y="-415.4" name="bottom"/>
  <anchor x="1266.4" y="-491.4" name="bottom0315"/>
  <anchor x="255.2" y="-163.0" name="cross"/>
  <anchor x="671.0" y="1303.0" name="top"/>
  <outline>
    <contour>
      <point x="146.0" y="-419.0" type="line"/>
      <point x="363.8" y="-419.0" type="line"/>
      <point x="363.8" y="174.2" type="line"/>
      <point x="376.2" y="174.2" type="line"/>
      <point x="416.0" y="102.8"/>
      <point x="495.8" y="-21.4"/>
      <point x="699.2" y="-21.4" type="curve" smooth="yes"/>
      <point x="970.2" y="-21.4"/>
      <point x="1166.4" y="195.2"/>
      <point x="1166.4" y="556.6" type="curve" smooth="yes"/>
      <point x="1166.4" y="919.0"/>
      <point x="967.2" y="1132.0"/>
      <point x="697.4" y="1132.0" type="curve" smooth="yes"/>
      <point x="489.8" y="1132.0"/>
      <point x="415.4" y="1005.6"/>
      <point x="376.2" y="936.4" type="curve"/>
      <point x="358.4" y="936.4" type="line"/>
      <point x="358.4" y="1117.0" type="line"/>
      <point x="146.0" y="1117.0" type="line"/>
    </contour>
    <contour>
      <point x="359.8" y="559.0" type="curve" smooth="yes"/>
      <point x="359.8" y="792.0"/>
      <point x="461.0" y="946.2"/>
      <point x="651.2" y="946.2" type="curve" smooth="yes"/>
      <point x="847.8" y="946.2"/>
      <point x="947.0" y="780.0"/>
      <point x="947.0" y="559.0" type="curve" smooth="yes"/>
      <point x="947.0" y="334.6"/>
      <point x="845.4" y="163.6"/>
      <point x="651.2" y="163.6" type="curve" smooth="yes"/>
      <point x="463.4" y="163.6"/>
      <point x="359.8" y="323.2"/>
    </contour>
  </outline>
</glyph>
<glyph name="q" format="2">
  <advance height="2479.0" width="1262.6"/>
  <unicode hex="0071"/>
  <anchor x="1008.6" y="-415.4" name="bottom"/>
  <anchor x="1007.4" y="-163.0" name="cross"/>
  <anchor x="591.4" y="1303.0" name="top"/>
  <outline>
    <contour>
      <point x="898.6" y="-419.0" type="line"/>
      <point x="1116.6" y="-419.0" type="line"/>
      <point x="1116.6" y="1117.0" type="line"/>
      <point x="904.0" y="1117.0" type="line"/>
      <point x="904.0" y="936.4" type="line"/>
      <point x="886.4" y="936.4" type="line"/>
      <point x="847.2" y="1005.6"/>
      <point x="772.6" y="1132.0"/>
      <point x="565.0" y="1132.0" type="curve" smooth="yes"/>
      <point x="295.2" y="1132.0"/>
      <point x="96.2" y="919.0"/>
      <point x="96.2" y="556.6" type="curve" smooth="yes"/>
      <point x="96.2" y="195.2"/>
      <point x="292.4" y="-21.4"/>
      <point x="563.2" y="-21.4" type="curve" smooth="yes"/>
      <point x="766.6" y="-21.4"/>
      <point x="846.6" y="102.8"/>
      <point x="886.4" y="174.2" type="curve"/>
      <point x="898.6" y="174.2" type="line"/>
    </contour>
    <contour>
      <point x="611.4" y="163.6" type="curve" smooth="yes"/>
      <point x="417.2" y="163.6"/>
      <point x="315.6" y="334.6"/>
      <point x="315.6" y="559.0" type="curve" smooth="yes"/>
      <point x="315.6" y="780.0"/>
      <point x="414.8" y="946.2"/>
      <point x="611.4" y="946.2" type="curve" smooth="yes"/>
      <point x="801.4" y="946.2"/>
      <point x="902.8" y="792.0"/>
      <point x="902.8" y="559.0" type="curve" smooth="yes"/>
      <point x="902.8" y="323.2"/>
      <point x="799.0" y="163.6"/>
    </contour>
  </outline>
</glyph>
<glyph name="r" format="2">
  <advance height="2479.0" width="787.0"/>
  <unicode hex="0072"/>
  <anchor x="253.8" y="0.0" name="bottom"/>
  <anchor x="255.8" y="535.0" name="cross"/>
  <anchor x="434.2" y="1303.0" name="top"/>
  <outline>
    <contour>
      <point x="146.0" y="0.0" type="line"/>
      <point x="363.8" y="0.0" type="line"/>
      <point x="363.8" y="682.0" type="line" smooth="yes"/>
      <point x="363.8" y="828.4"/>
      <point x="476.6" y="934.0"/>
      <point x="630.8" y="934.0" type="curve" smooth="yes"/>
      <point x="675.8" y="934.0"/>
      <point x="726.8" y="925.6"/>
      <point x="744.4" y="920.4" type="curve"/>
      <point x="744.4" y="1128.8" type="line"/>
      <point x="722.0" y="1131.6"/>
      <point x="679.0" y="1134.4"/>
      <point x="651.2" y="1134.4" type="curve" smooth="yes"/>
      <point x="521.0" y="1134.4"/>
      <point x="408.8" y="1059.6"/>
      <point x="368.6" y="939.4" type="curve"/>
      <point x="356.8" y="939.4" type="line"/>
      <point x="356.8" y="1117.0" type="line"/>
      <point x="146.0" y="1117.0" type="line"/>
    </contour>
  </outline>
</glyph>
<glyph name="s" format="2">
  <advance height="2479.0" width="1097.6"/>
  <unicode hex="0073"/>
  <anchor x="558.6" y="0.0" name="bottom"/>
  <anchor x="558.0" y="0.0" name="cedilla"/>
  <anchor x="563.4" y="1303.0" name="top"/>
  <outline>
    <contour>
      <point x="983.0" y="844.2" type="line"/>
      <point x="938.6" y="1018.0"/>
      <point x="802.4" y="1132.0"/>
      <point x="561.0" y="1132.0" type="curve" smooth="yes"/>
      <point x="308.4" y="1132.0"/>
      <point x="129.8" y="998.6"/>
      <point x="130.2" y="800.8" type="curve" smooth="yes"/>
      <point x="129.8" y="642.4"/>
      <point x="225.4" y="536.6"/>
      <point x="435.0" y="490.2" type="curve" smooth="yes"/>
      <point x="623.4" y="448.8" type="line" smooth="yes"/>
      <point x="731.2" y="424.0"/>
      <point x="781.4" y="377.0"/>
      <point x="781.8" y="307.0" type="curve" smooth="yes"/>
      <point x="781.4" y="220.8"/>
      <point x="689.2" y="152.4"/>
      <point x="546.6" y="152.4" type="curve" smooth="yes"/>
      <point x="416.4" y="152.4"/>
      <point x="333.2" y="208.2"/>
      <point x="307.0" y="318.6" type="curve"/>
      <point x="96.8" y="286.6" type="line"/>
      <point x="133.2" y="88.8"/>
      <point x="297.6" y="-22.4"/>
      <point x="548.4" y="-22.4" type="curve" smooth="yes"/>
      <point x="818.2" y="-22.4"/>
      <point x="1005.4" y="121.2"/>
      <point x="1005.6" y="322.6" type="curve" smooth="yes"/>
      <point x="1005.4" y="480.6"/>
      <point x="904.8" y="578.2"/>
      <point x="700.0" y="625.6" type="curve" smooth="yes"/>
      <point x="521.8" y="666.6" type="line" smooth="yes"/>
      <point x="399.2" y="695.2"/>
      <point x="346.4" y="737.4"/>
      <point x="346.6" y="811.8" type="curve" smooth="yes"/>
      <point x="346.4" y="898.0"/>
      <point x="439.4" y="959.2"/>
      <point x="562.8" y="959.2" type="curve" smooth="yes"/>
      <point x="698.6" y="959.2"/>
      <point x="760.8" y="884.4"/>
      <point x="785.8" y="809.0" type="curve"/>
    </contour>
  </outline>
</glyph>
<glyph name="t" format="2">
  <advance height="2479.0" width="761.8"/>
  <unicode hex="0074"/>
  <anchor x="563.4" y="1562.0" name="raccent"/>
  <anchor x="425.6" y="0.0" name="bottom"/>
  <anchor x="514.0" y="0.0" name="cedilla"/>
  <anchor x="331.0" y="1499.6" name="top"/>
  <outline>
    <contour>
      <point x="668.0" y="1117.0" type="line"/>
      <point x="57.6" y="1117.0" type="line"/>
      <point x="57.6" y="942.8" type="line"/>
      <point x="668.0" y="942.8" type="line"/>
    </contour>
    <component base="_part.t_base"/>
  </outline>
</glyph>
<glyph name="u" format="2">
  <advance height="2479.0" width="1217.8"/>
  <unicode hex="0075"/>
  <anchor x="625.2" y="0.0" name="bottom"/>
  <anchor x="1072.0" y="0.0" name="ogonek"/>
  <anchor x="610.0" y="1303.0" name="top"/>
  <outline>
    <contour>
      <point x="854.0" y="463.4" type="line" smooth="yes"/>
      <point x="854.2" y="273.2"/>
      <point x="713.4" y="183.0"/>
      <point x="591.0" y="183.0" type="curve" smooth="yes"/>
      <point x="457.2" y="183.0"/>
      <point x="364.0" y="280.4"/>
      <point x="363.8" y="433.0" type="curve" smooth="yes"/>
      <point x="363.8" y="1117.0" type="line"/>
      <point x="146.0" y="1117.0" type="line"/>
      <point x="146.0" y="406.4" type="line" smooth="yes"/>
      <point x="146.2" y="129.6"/>
      <point x="297.8" y="-15.0"/>
      <point x="512.8" y="-15.0" type="curve" smooth="yes"/>
      <point x="681.2" y="-15.0"/>
      <point x="794.8" y="74.8"/>
      <point x="846.2" y="193.6" type="curve"/>
      <point x="858.2" y="193.6" type="line"/>
      <point x="858.2" y="0.0" type="line"/>
      <point x="1072.0" y="0.0" type="line"/>
      <point x="1072.0" y="1117.0" type="line"/>
      <point x="854.0" y="1117.0" type="line"/>
    </contour>
  </outline>
</glyph>
<glyph name="v" format="2">
  <advance height="2479.0" width="1159.8"/>
  <unicode hex="0076"/>
  <anchor x="580.0" y="0.0" name="bottom"/>
  <anchor x="580.0" y="1303.0" name="top"/>
  <outline>
    <contour>
      <point x="1102.4" y="1117.0" type="line"/>
      <point x="868.4" y="1117.0" type="line"/>
      <point x="585.8" y="257.2" type="line"/>
      <point x="574.0" y="257.2" type="line"/>
      <point x="291.4" y="1117.0" type="line"/>
      <point x="58.4" y="1117.0" type="line"/>
      <point x="463.8" y="0.0" type="line"/>
      <point x="696.0" y="0.0" type="line"/>
    </contour>
  </outline>
</glyph>
<glyph name="w" format="2">
  <advance height="2479.0" width="1689.6"/>
  <unicode hex="0077"/>
  <anchor x="843.0" y="0.0" name="bottom"/>
  <anchor x="844.8" y="1303.0" name="top"/>
  <outline>
    <contour>
      <point x="388.0" y="0.0" type="line"/>
      <point x="609.8" y="0.0" type="line"/>
      <point x="836.4" y="806.2" type="line"/>
      <point x="853.2" y="806.2" type="line"/>
      <point x="1079.8" y="0.0" type="line"/>
      <point x="1301.6" y="0.0" type="line"/>
      <point x="1629.6" y="1117.0" type="line"/>
      <point x="1405.2" y="1117.0" type="line"/>
      <point x="1187.2" y="300.4" type="line"/>
      <point x="1176.6" y="300.4" type="line"/>
      <point x="958.2" y="1117.0" type="line"/>
      <point x="733.8" y="1117.0" type="line"/>
      <point x="514.2" y="296.8" type="line"/>
      <point x="503.6" y="296.8" type="line"/>
      <point x="284.4" y="1117.0" type="line"/>
      <point x="60.0" y="1117.0" type="line"/>
    </contour>
  </outline>
</glyph>
<glyph name="x" format="2">
  <advance height="2479.0" width="1128.4"/>
  <unicode hex="0078"/>
  <anchor x="564.6" y="0.0" name="bottom"/>
  <anchor x="564.6" y="559.0" name="cross"/>
  <anchor x="1019.8" y="83.8" name="cyrtic"/>
  <anchor x="884.2" y="0.0" name="right"/>
  <anchor x="564.6" y="1303.0" name="top"/>
  <outline>
    <contour>
      <point x="317.6" y="1117.0" type="line"/>
      <point x="79.0" y="1117.0" type="line"/>
      <point x="422.2" y="559.0" type="line"/>
      <point x="74.8" y="0.0" type="line"/>
      <point x="313.6" y="0.0" type="line"/>
      <point x="564.6" y="417.4" type="line"/>
      <point x="816.0" y="0.0" type="line"/>
      <point x="1053.6" y="0.0" type="line"/>
      <point x="701.8" y="559.0" type="line"/>
      <point x="1050.6" y="1117.0" type="line"/>
      <point x="812.6" y="1117.0" type="line"/>
      <point x="564.6" y="682.2" type="line"/>
    </contour>
  </outline>
</glyph>
<glyph name="y" format="2">
  <advance height="2479.0" width="1159.8"/>
  <unicode hex="0079"/>
  <anchor x="879.8" y="-39.2" name="bottom"/>
  <anchor x="740.4" y="-419.0" name="ogonek"/>
  <anchor x="579.4" y="1303.0" name="top"/>
  <outline>
    <contour>
      <point x="283.6" y="-419.0" type="curve" smooth="yes"/>
      <point x="463.8" y="-419.0"/>
      <point x="577.4" y="-325.2"/>
      <point x="640.8" y="-149.0" type="curve" smooth="yes"/>
      <point x="1102.4" y="1117.0" type="line"/>
      <point x="868.4" y="1117.0" type="line"/>
      <point x="585.4" y="250.2" type="line"/>
      <point x="573.4" y="250.2" type="line"/>
      <point x="291.0" y="1117.0" type="line"/>
      <point x="58.4" y="1117.0" type="line"/>
      <point x="467.2" y="-14.6" type="line"/>
      <point x="440.0" y="-88.4" type="line" smooth="yes"/>
      <point x="384.2" y="-236.8"/>
      <point x="307.0" y="-249.0"/>
      <point x="187.2" y="-216.6" type="curve"/>
      <point x="135.4" y="-395.2" type="line"/>
      <point x="161.4" y="-406.4"/>
      <point x="218.0" y="-419.0"/>
    </contour>
  </outline>
</glyph>
<glyph name="z" format="2">
  <advance height="2479.0" width="1129.0"/>
  <unicode hex="007A"/>
  <anchor x="559.8" y="0.0" name="bottom"/>
  <anchor x="562.8" y="559.0" name="cross"/>
  <anchor x="563.4" y="1303.0" name="top"/>
  <outline>
    <contour>
      <point x="122.6" y="0.0" type="line"/>
      <point x="1019.6" y="0.0" type="line"/>
      <point x="1019.6" y="189.0" type="line"/>
      <point x="417.4" y="189.0" type="line"/>
      <point x="417.4" y="199.8" type="line"/>
      <point x="999.2" y="958.6" type="line"/>
      <point x="999.2" y="1117.0" type="line"/>
      <point x="142.2" y="1117.0" type="line"/>
      <point x="142.2" y="928.0" type="line"/>
      <point x="727.6" y="928.0" type="line"/>
      <point x="727.6" y="917.2" type="line"/>
      <point x="122.6" y="149.0" type="line"/>
    </contour>
  </outline>
</glyph>
<glyph name="braceleft" format="2">
  <advance height="2479.0" width="774.0"/>
  <unicode hex="007B"/>
  <outline>
    <contour>
      <point x="71.8" y="613.4" type="line"/>
      <point x="426.4" y="613.4"/>
      <point x="495.2" y="724.2"/>
      <point x="495.2" y="874.8" type="curve" smooth="yes"/>
      <point x="495.2" y="1138.8" type="line" smooth="yes"/>
      <point x="495.2" y="1300.0"/>
      <point x="541.4" y="1373.4"/>
      <point x="711.6" y="1373.4" type="curve"/>
      <point x="711.6" y="1545.0" type="line"/>
      <point x="423.6" y="1545.0"/>
      <point x="291.6" y="1447.4"/>
      <point x="291.6" y="1149.4" type="curve" smooth="yes"/>
      <point x="291.6" y="941.0" type="line" smooth="yes"/>
      <point x="291.6" y="784.6"/>
      <point x="235.4" y="723.0"/>
      <point x="71.8" y="723.0" type="curve"/>
    </contour>
    <contour>
      <point x="711.6" y="-309.8" type="curve"/>
      <point x="711.6" y="-137.4" type="line"/>
      <point x="541.4" y="-137.4"/>
      <point x="495.2" y="-64.0"/>
      <point x="495.2" y="96.4" type="curve" smooth="yes"/>
      <point x="495.2" y="361.2" type="line" smooth="yes"/>
      <point x="495.2" y="511.0"/>
      <point x="426.4" y="621.8"/>
      <point x="71.8" y="621.8" type="curve"/>
      <point x="71.8" y="513.0" type="line"/>
      <point x="235.4" y="513.0"/>
      <point x="291.6" y="450.6"/>
      <point x="291.6" y="295.0" type="curve" smooth="yes"/>
      <point x="291.6" y="85.8" type="line" smooth="yes"/>
      <point x="291.6" y="-211.4"/>
      <point x="423.6" y="-309.8"/>
    </contour>
    <contour>
      <point x="71.8" y="513.0" type="line"/>
      <point x="272.6" y="513.0" type="line"/>
      <point x="272.6" y="723.0" type="line"/>
      <point x="71.8" y="723.0" type="line"/>
    </contour>
  </outline>
</glyph>
<glyph name="bar" format="2">
  <advance height="2479.0" width="701.0"/>
  <unicode hex="007C"/>
  <outline>
    <contour>
      <point x="447.8" y="1969.0" type="line"/>
      <point x="253.2" y="1969.0" type="line"/>
      <point x="253.2" y="-480.0" type="line"/>
      <point x="447.8" y="-480.0" type="line"/>
    </contour>
  </outline>
</glyph>
<glyph name="asciitilde" format="2">
  <advance height="2479.0" width="1364.0"/>
  <unicode hex="007E"/>
  <outline>
    <contour>
      <point x="164.8" y="428.6" type="curve"/>
      <point x="348.6" y="428.6" type="line"/>
      <point x="346.4" y="553.6"/>
      <point x="401.4" y="603.6"/>
      <point x="476.8" y="603.6" type="curve" smooth="yes"/>
      <point x="527.4" y="603.6"/>
      <point x="558.6" y="580.8"/>
      <point x="626.8" y="521.6" type="curve" smooth="yes"/>
      <point x="731.4" y="430.6"/>
      <point x="804.2" y="390.0"/>
      <point x="902.4" y="390.0" type="curve" smooth="yes"/>
      <point x="1065.0" y="390.0"/>
      <point x="1204.8" y="503.4"/>
      <point x="1199.0" y="755.8" type="curve"/>
      <point x="1015.2" y="755.8" type="line"/>
      <point x="1017.6" y="639.6"/>
      <point x="965.4" y="581.6"/>
      <point x="887.2" y="581.6" type="curve" smooth="yes"/>
      <point x="836.2" y="581.6"/>
      <point x="802.4" y="605.2"/>
      <point x="736.6" y="662.8" type="curve" smooth="yes"/>
      <point x="630.4" y="755.4"/>
      <point x="558.2" y="794.4"/>
      <point x="461.6" y="794.4" type="curve" smooth="yes"/>
      <point x="296.4" y="794.4"/>
      <point x="158.4" y="681.8"/>
    </contour>
  </outline>
</glyph>
<glyph name="cent" format="2">
  <advance height="2479.0" width="1162.8"/>
  <unicode hex="00A2"/>
  <anchor x="612.6" y="190.6" name="cedilla"/>
  <anchor x="612.6" y="1493.6" name="top"/>
  <outline>
    <contour>
      <point x="549.8" y="0.0" type="line"/>
      <point x="668.8" y="0.0" type="line"/>
      <point x="668.8" y="1489.0" type="line"/>
      <point x="549.8" y="1489.0" type="line"/>
    </contour>
    <component base="c" yOffset="190.6"/>
  </outline>
</glyph>
<glyph name="sterling" format="2">
  <advance height="2479.0" width="1319.8"/>
  <unicode hex="00A3"/>
  <outline>
    <contour>
      <point x="1155.4" y="0.0" type="line"/>
      <point x="1155.4" y="193.2" type="line"/>
      <point x="137.4" y="193.2" type="line"/>
      <point x="137.4" y="0.0" type="line"/>
    </contour>
    <contour>
      <point x="850.2" y="583.6" type="line"/>
      <point x="850.2" y="777.0" type="line"/>
      <point x="132.0" y="777.0" type="line"/>
      <point x="132.0" y="583.6" type="line"/>
    </contour>
    <contour>
      <point x="497.4" y="1048.8" type="line"/>
      <point x="497.0" y="1234.8"/>
      <point x="616.2" y="1319.2"/>
      <point x="739.2" y="1319.2" type="curve" smooth="yes"/>
      <point x="857.8" y="1319.2"/>
      <point x="970.0" y="1247.0"/>
      <point x="955.4" y="1105.4" type="curve"/>
      <point x="1166.4" y="1072.0" type="line"/>
      <point x="1206.6" y="1303.0"/>
      <point x="1017.4" y="1510.0"/>
      <point x="732.2" y="1510.0" type="curve" smooth="yes"/>
      <point x="490.4" y="1510.0"/>
      <point x="270.4" y="1354.8"/>
      <point x="281.4" y="1048.8" type="curve" smooth="yes"/>
      <point x="302.8" y="415.2" type="line" smooth="yes"/>
      <point x="305.4" y="331.6"/>
      <point x="287.0" y="197.8"/>
      <point x="207.8" y="193.2" type="curve"/>
      <point x="393.6" y="136.0" type="line"/>
      <point x="493.2" y="194.2"/>
      <point x="526.2" y="295.4"/>
      <point x="520.4" y="421.0" type="curve" smooth="yes"/>
    </contour>
  </outline>
</glyph>
<glyph name="currency" format="2">
  <advance height="2479.0" width="1509.4"/>
  <unicode hex="00A4"/>
  <outline>
    <contour>
      <point x="751.8" y="-20.0" type="curve" smooth="yes"/>
      <point x="1082.6" y="-20.0"/>
      <point x="1352.8" y="253.0"/>
      <point x="1353.0" y="608.0" type="curve" smooth="yes"/>
      <point x="1352.8" y="963.0"/>
      <point x="1082.6" y="1233.0"/>
      <point x="751.8" y="1233.0" type="curve" smooth="yes"/>
      <point x="419.6" y="1233.0"/>
      <point x="152.0" y="963.0"/>
      <point x="152.2" y="608.0" type="curve"/>
      <point x="152.0" y="253.0"/>
      <point x="419.6" y="-20.0"/>
    </contour>
    <contour>
      <point x="751.8" y="149.8" type="curve" smooth="yes"/>
      <point x="512.6" y="149.8"/>
      <point x="320.6" y="355.4"/>
      <point x="321.0" y="608.0" type="curve"/>
      <point x="320.6" y="863.4"/>
      <point x="512.6" y="1066.2"/>
      <point x="751.8" y="1066.2" type="curve" smooth="yes"/>
      <point x="989.2" y="1066.2"/>
      <point x="1180.6" y="863.4"/>
      <point x="1180.8" y="608.0" type="curve" smooth="yes"/>
      <point x="1180.6" y="355.4"/>
      <point x="989.2" y="149.8"/>
    </contour>
    <contour>
      <point x="1180.6" y="921.6" type="line"/>
      <point x="1385.6" y="1128.4" type="line"/>
      <point x="1259.0" y="1257.4" type="line"/>
      <point x="1056.2" y="1050.6" type="line"/>
    </contour>
    <contour>
      <point x="1259.0" y="-18.4" type="line"/>
      <point x="1385.6" y="111.4" type="line"/>
      <point x="1180.6" y="314.6" type="line"/>
      <point x="1056.2" y="188.6" type="line"/>
    </contour>
    <contour>
      <point x="249.4" y="-18.4" type="line"/>
      <point x="454.2" y="188.6" type="line"/>
      <point x="327.6" y="314.6" type="line"/>
      <point x="124.8" y="111.4" type="line"/>
    </contour>
    <contour>
      <point x="327.6" y="921.6" type="line"/>
      <point x="454.2" y="1050.6" type="line"/>
      <point x="249.4" y="1257.4" type="line"/>
      <point x="124.8" y="1128.4" type="line"/>
    </contour>
  </outline>
</glyph>
<glyph name="yen" format="2">
  <advance height="2479.0" width="1139.2"/>
  <unicode hex="00A5"/>
  <outline>
    <contour>
      <point x="270.6" y="1489.0" type="line"/>
      <point x="29.0" y="1489.0" type="line"/>
      <point x="463.0" y="593.8" type="line"/>
      <point x="627.2" y="686.2" type="line"/>
    </contour>
    <contour>
      <point x="513.2" y="688.6" type="line"/>
      <point x="675.8" y="593.8" type="line"/>
      <point x="1110.2" y="1489.0" type="line"/>
      <point x="868.6" y="1489.0" type="line"/>
    </contour>
    <contour>
      <point x="680.4" y="783.4" type="line"/>
      <point x="456.0" y="783.4" type="line"/>
      <point x="456.0" y="0.0" type="line"/>
      <point x="680.4" y="0.0" type="line"/>
    </contour>
    <contour>
      <point x="995.2" y="750.6" type="line"/>
      <point x="132.8" y="750.6" type="line"/>
      <point x="132.8" y="603.4" type="line"/>
      <point x="995.2" y="603.4" type="line"/>
    </contour>
    <contour>
      <point x="995.2" y="462.6" type="line"/>
      <point x="132.8" y="462.6" type="line"/>
      <point x="132.8" y="315.4" type="line"/>
      <point x="995.2" y="315.4" type="line"/>
    </contour>
  </outline>
</glyph>
<glyph name="brokenbar" format="2">
  <advance height="2479.0" width="598.2"/>
  <unicode hex="00A6"/>
  <outline>
    <contour>
      <point x="199.6" y="405.8" type="line"/>
      <point x="199.6" y="-279.0" type="line"/>
      <point x="398.6" y="-279.0" type="line"/>
      <point x="398.6" y="405.8" type="line"/>
    </contour>
    <contour>
      <point x="398.6" y="1489.0" type="line"/>
      <point x="199.6" y="1489.0" type="line"/>
      <point x="199.6" y="807.2" type="line"/>
      <point x="398.6" y="807.2" type="line"/>
    </contour>
  </outline>
</glyph>
<glyph name="section" format="2">
  <advance height="2479.0" width="1157.4"/>
  <unicode hex="00A7"/>
  <outline>
    <contour>
      <point x="957.0" y="1131.2" type="line"/>
      <point x="956.8" y="1352.4"/>
      <point x="807.0" y="1510.0"/>
      <point x="572.8" y="1510.0" type="curve" smooth="yes"/>
      <point x="353.6" y="1510.0"/>
      <point x="197.4" y="1371.4"/>
      <point x="197.6" y="1182.0" type="curve" smooth="yes"/>
      <point x="197.4" y="1081.8"/>
      <point x="240.6" y="1003.2"/>
      <point x="305.8" y="938.6" type="curve"/>
      <point x="305.8" y="933.8" type="line"/>
      <point x="201.6" y="903.6"/>
      <point x="112.4" y="800.0"/>
      <point x="109.0" y="689.4" type="curve" smooth="yes"/>
      <point x="103.0" y="498.2"/>
      <point x="250.2" y="402.2"/>
      <point x="327.4" y="361.0" type="curve" smooth="yes"/>
      <point x="608.4" y="210.4" type="line" smooth="yes"/>
      <point x="673.0" y="174.8"/>
      <point x="757.6" y="127.2"/>
      <point x="757.8" y="28.8" type="curve" smooth="yes"/>
      <point x="757.6" y="-67.0"/>
      <point x="668.0" y="-111.4"/>
      <point x="572.2" y="-112.0" type="curve" smooth="yes"/>
      <point x="446.8" y="-113.8"/>
      <point x="359.6" y="-44.4"/>
      <point x="359.8" y="81.6" type="curve"/>
      <point x="155.8" y="81.6" type="line"/>
      <point x="155.8" y="-154.8"/>
      <point x="328.0" y="-302.4"/>
      <point x="571.0" y="-302.4" type="curve" smooth="yes"/>
      <point x="780.2" y="-302.4"/>
      <point x="960.2" y="-191.8"/>
      <point x="960.4" y="28.8" type="curve" smooth="yes"/>
      <point x="960.2" y="127.6"/>
      <point x="924.8" y="211.0"/>
      <point x="851.0" y="275.6" type="curve"/>
      <point x="852.0" y="278.6" type="line"/>
      <point x="947.8" y="308.2"/>
      <point x="1045.4" y="408.2"/>
      <point x="1049.0" y="520.8" type="curve" smooth="yes"/>
      <point x="1055.2" y="711.2"/>
      <point x="906.6" y="805.0"/>
      <point x="831.2" y="846.0" type="curve" smooth="yes"/>
      <point x="549.4" y="999.8" type="line" smooth="yes"/>
      <point x="484.2" y="1034.8"/>
      <point x="398.6" y="1100.0"/>
      <point x="398.8" y="1182.0" type="curve" smooth="yes"/>
      <point x="398.6" y="1253.0"/>
      <point x="460.4" y="1321.0"/>
      <point x="572.8" y="1321.0" type="curve" smooth="yes"/>
      <point x="697.8" y="1321.0"/>
      <point x="755.4" y="1240.2"/>
      <point x="755.6" y="1131.2" type="curve"/>
    </contour>
    <contour>
      <point x="857.6" y="515.4" type="curve"/>
      <point x="855.2" y="415.6"/>
      <point x="749.2" y="351.2"/>
      <point x="693.6" y="381.6" type="curve" smooth="yes"/>
      <point x="432.0" y="522.4" type="line" smooth="yes"/>
      <point x="356.8" y="563.4"/>
      <point x="297.4" y="615.4"/>
      <point x="299.8" y="694.6" type="curve" smooth="yes"/>
      <point x="302.0" y="796.2"/>
      <point x="396.0" y="866.0"/>
      <point x="456.0" y="832.6" type="curve" smooth="yes"/>
      <point x="727.0" y="685.4" type="line" smooth="yes"/>
      <point x="801.6" y="646.2"/>
      <point x="859.8" y="588.0"/>
    </contour>
  </outline>
</glyph>
<glyph name="dieresis" format="2">
  <advance height="2479.0" width="1171.6"/>
  <unicode hex="00A8"/>
  <anchor x="585.8" y="1303.0" name="_top"/>
  <anchor x="585.8" y="1676.0" name="top"/>
  <outline>
    <contour>
      <point x="372.6" y="1292.0" type="curve" smooth="yes"/>
      <point x="445.4" y="1292.0"/>
      <point x="500.4" y="1352.0"/>
      <point x="500.4" y="1419.4" type="curve" smooth="yes"/>
      <point x="500.4" y="1491.6"/>
      <point x="445.4" y="1545.8"/>
      <point x="372.6" y="1545.8" type="curve" smooth="yes"/>
      <point x="304.0" y="1545.8"/>
      <point x="243.6" y="1491.6"/>
      <point x="243.6" y="1419.4" type="curve" smooth="yes"/>
      <point x="243.6" y="1352.0"/>
      <point x="304.0" y="1292.0"/>
    </contour>
    <contour>
      <point x="800.4" y="1292.0" type="curve" smooth="yes"/>
      <point x="872.4" y="1292.0"/>
      <point x="928.0" y="1352.0"/>
      <point x="928.0" y="1419.4" type="curve" smooth="yes"/>
      <point x="928.0" y="1491.6"/>
      <point x="872.4" y="1545.8"/>
      <point x="800.4" y="1545.8" type="curve" smooth="yes"/>
      <point x="731.0" y="1545.8"/>
      <point x="671.2" y="1491.6"/>
      <point x="671.2" y="1419.4" type="curve" smooth="yes"/>
      <point x="671.2" y="1352.0"/>
      <point x="731.0" y="1292.0"/>
    </contour>
  </outline>
</glyph>
<glyph name="copyright" format="2">
  <advance height="2479.0" width="1873.0"/>
  <unicode hex="00A9"/>
  <outline>
    <contour>
      <point x="518.6" y="745.0" type="curve" smooth="yes"/>
      <point x="518.6" y="510.2"/>
      <point x="708.6" y="320.2"/>
      <point x="943.4" y="320.2" type="curve" smooth="yes"/>
      <point x="1147.8" y="320.2"/>
      <point x="1306.6" y="464.4"/>
      <point x="1332.8" y="656.6" type="curve"/>
      <point x="1143.4" y="656.6" type="line"/>
      <point x="1124.4" y="565.6"/>
      <point x="1046.0" y="501.2"/>
      <point x="943.4" y="501.2" type="curve" smooth="yes"/>
      <point x="809.6" y="501.2"/>
      <point x="700.4" y="610.4"/>
      <point x="700.4" y="745.2" type="curve" smooth="yes"/>
      <point x="700.4" y="879.2"/>
      <point x="809.6" y="988.0"/>
      <point x="943.4" y="988.0" type="curve" smooth="yes"/>
      <point x="1046.0" y="988.0"/>
      <point x="1137.2" y="923.6"/>
      <point x="1154.6" y="833.4" type="curve"/>
      <point x="1344.0" y="833.4" type="line"/>
      <point x="1318.6" y="1024.6"/>
      <point x="1147.8" y="1169.6"/>
      <point x="943.4" y="1169.6" type="curve" smooth="yes"/>
      <point x="708.6" y="1169.6"/>
      <point x="518.6" y="979.0"/>
    </contour>
    <component base="whiteCircle"/>
  </outline>
</glyph>
<glyph name="ordfeminine" format="2">
  <advance height="2479.0" width="945.2"/>
  <unicode hex="00AA"/>
  <outline>
    <contour>
      <point x="596.0" y="861.0" type="line"/>
      <point x="596.0" y="807.8"/>
      <point x="605.4" y="752.0"/>
      <point x="619.6" y="706.4" type="curve"/>
      <point x="799.2" y="706.4" type="line"/>
      <point x="777.2" y="766.2"/>
      <point x="771.8" y="825.4"/>
      <point x="771.8" y="887.0" type="curve" smooth="yes"/>
      <point x="771.8" y="1201.0" type="line"/>
      <point x="771.8" y="1385.0"/>
      <point x="654.6" y="1478.0"/>
      <point x="477.8" y="1478.0" type="curve" smooth="yes"/>
      <point x="287.8" y="1478.0"/>
      <point x="164.0" y="1379.0"/>
      <point x="164.0" y="1244.4" type="curve"/>
      <point x="338.2" y="1231.0" type="line"/>
      <point x="338.2" y="1295.0"/>
      <point x="390.2" y="1329.0"/>
      <point x="477.8" y="1329.0" type="curve" smooth="yes"/>
      <point x="558.0" y="1329.0"/>
      <point x="596.0" y="1284.8"/>
      <point x="596.0" y="1201.0" type="curve"/>
    </contour>
    <contour>
      <point x="639.6" y="1151.4" type="line"/>
      <point x="493.4" y="1151.4" type="line"/>
      <point x="261.0" y="1151.4"/>
      <point x="147.4" y="1068.0"/>
      <point x="147.4" y="919.0" type="curve" smooth="yes"/>
      <point x="147.4" y="783.0"/>
      <point x="238.0" y="692.0"/>
      <point x="399.2" y="692.0" type="curve" smooth="yes"/>
      <point x="537.4" y="692.0"/>
      <point x="613.0" y="769.8"/>
      <point x="642.6" y="834.4" type="curve"/>
      <point x="625.6" y="951.0" type="line"/>
      <point x="625.6" y="902.0"/>
      <point x="525.4" y="837.4"/>
      <point x="443.8" y="837.4" type="curve" smooth="yes"/>
      <point x="361.2" y="837.4"/>
      <point x="325.6" y="870.0"/>
      <point x="325.6" y="924.4" type="curve" smooth="yes"/>
      <point x="325.6" y="982.4"/>
      <point x="376.8" y="1035.4"/>
      <point x="493.4" y="1035.4" type="curve"/>
      <point x="639.6" y="1035.4" type="line"/>
    </contour>
  </outline>
</glyph>
<glyph name="logicalnot" format="2">
  <advance height="2479.0" width="1132.4"/>
  <unicode hex="00AC"/>
  <outline>
    <contour>
      <point x="990.0" y="806.0" type="line"/>
      <point x="146.8" y="806.0" type="line"/>
      <point x="146.8" y="634.0" type="line"/>
      <point x="990.0" y="634.0" type="line"/>
    </contour>
    <contour>
      <point x="990.0" y="727.0" type="line"/>
      <point x="787.2" y="727.0" type="line"/>
      <point x="787.2" y="375.0" type="line"/>
      <point x="990.0" y="375.0" type="line"/>
    </contour>
  </outline>
</glyph>
<glyph name="registered" format="2">
  <advance height="2479.0" width="1368.4"/>
  <unicode hex="00AE"/>
  <outline>
    <contour>
      <point x="478.4" y="666.0" type="line"/>
      <point x="603.6" y="666.0" type="line"/>
      <point x="603.6" y="1110.6" type="line"/>
      <point x="707.8" y="1110.6" type="line" smooth="yes"/>
      <point x="738.6" y="1110.6"/>
      <point x="783.6" y="1090.8"/>
      <point x="783.6" y="1029.0" type="curve" smooth="yes"/>
      <point x="783.6" y="969.2"/>
      <point x="740.2" y="939.2"/>
      <point x="705.4" y="939.2" type="curve" smooth="yes"/>
      <point x="548.6" y="939.2" type="line"/>
      <point x="548.6" y="847.4" type="line"/>
      <point x="739.0" y="847.4" type="line" smooth="yes"/>
      <point x="821.4" y="847.4"/>
      <point x="918.4" y="912.2"/>
      <point x="918.4" y="1029.0" type="curve" smooth="yes"/>
      <point x="918.4" y="1144.8"/>
      <point x="824.4" y="1203.0"/>
      <point x="747.2" y="1203.0" type="curve" smooth="yes"/>
      <point x="478.4" y="1203.0" type="line"/>
    </contour>
    <contour>
      <point x="808.6" y="917.4" type="line"/>
      <point x="676.2" y="917.4" type="line"/>
      <point x="801.8" y="666.0" type="line"/>
      <point x="938.6" y="666.0" type="line"/>
    </contour>
    <contour>
      <point x="684.6" y="346.0" type="curve" smooth="yes"/>
      <point x="1005.8" y="346.0"/>
      <point x="1265.8" y="607.0"/>
      <point x="1265.8" y="928.0" type="curve" smooth="yes"/>
      <point x="1265.8" y="1249.0"/>
      <point x="1005.6" y="1510.0"/>
      <point x="684.6" y="1510.0" type="curve" smooth="yes"/>
      <point x="362.6" y="1510.0"/>
      <point x="102.6" y="1249.0"/>
      <point x="102.6" y="928.0" type="curve" smooth="yes"/>
      <point x="102.6" y="607.0"/>
      <point x="362.6" y="346.0"/>
    </contour>
    <contour>
      <point x="684.6" y="490.6" type="curve" smooth="yes"/>
      <point x="442.4" y="490.6"/>
      <point x="246.4" y="686.6"/>
      <point x="246.4" y="928.0" type="curve" smooth="yes"/>
      <point x="246.4" y="1169.4"/>
      <point x="442.4" y="1365.4"/>
      <point x="684.6" y="1365.4" type="curve" smooth="yes"/>
      <point x="926.0" y="1365.4"/>
      <point x="1122.0" y="1169.4"/>
      <point x="1122.0" y="928.0" type="curve" smooth="yes"/>
      <point x="1122.0" y="686.4"/>
      <point x="926.2" y="490.6"/>
    </contour>
  </outline>
</glyph>
<glyph name="macron" format="2">
  <advance height="2479.0" width="998.2"/>
  <unicode hex="00AF"/>
  <anchor x="499.4" y="1303.0" name="_top"/>
  <outline>
    <contour>
      <point x="844.2" y="1489.0" type="line"/>
      <point x="154.0" y="1489.0" type="line"/>
      <point x="154.0" y="1336.4" type="line"/>
      <point x="844.2" y="1336.4" type="line"/>
    </contour>
  </outline>
</glyph>
<glyph name="degree" format="2">
  <advance height="2479.0" width="934.4"/>
  <unicode hex="00B0"/>
  <outline>
    <contour>
      <point x="466.8" y="816.2" type="curve" smooth="yes"/>
      <point x="656.0" y="816.2"/>
      <point x="809.4" y="969.6"/>
      <point x="809.4" y="1158.8" type="curve" smooth="yes"/>
      <point x="809.4" y="1347.2"/>
      <point x="656.0" y="1500.4"/>
      <point x="466.8" y="1500.4" type="curve" smooth="yes"/>
      <point x="278.4" y="1500.4"/>
      <point x="125.2" y="1347.2"/>
      <point x="125.2" y="1158.8" type="curve" smooth="yes"/>
      <point x="125.2" y="969.6"/>
      <point x="278.4" y="816.2"/>
    </contour>
    <contour>
      <point x="466.8" y="981.8" type="curve" smooth="yes"/>
      <point x="369.8" y="981.8"/>
      <point x="290.6" y="1061.0"/>
      <point x="290.6" y="1158.8" type="curve" smooth="yes"/>
      <point x="290.6" y="1255.8"/>
      <point x="369.8" y="1335.0"/>
      <point x="466.8" y="1335.0" type="curve" smooth="yes"/>
      <point x="564.6" y="1335.0"/>
      <point x="643.8" y="1255.8"/>
      <point x="643.8" y="1158.8" type="curve" smooth="yes"/>
      <point x="643.8" y="1061.0"/>
      <point x="564.6" y="981.8"/>
    </contour>
  </outline>
</glyph>
<glyph name="plusminus" format="2">
  <advance height="2479.0" width="1364.0"/>
  <unicode hex="00B1"/>
  <outline>
    <contour>
      <point x="199.4" y="65.4" type="line"/>
      <point x="1164.6" y="65.4" type="line"/>
      <point x="1164.6" y="256.2" type="line"/>
      <point x="199.4" y="256.2" type="line"/>
    </contour>
    <contour>
      <point x="199.4" y="658.2" type="line"/>
      <point x="1164.6" y="658.2" type="line"/>
      <point x="1164.6" y="846.8" type="line"/>
      <point x="199.4" y="846.8" type="line"/>
    </contour>
    <contour>
      <point x="583.8" y="377.2" type="line"/>
      <point x="779.4" y="377.2" type="line"/>
      <point x="779.4" y="1128.6" type="line"/>
      <point x="583.8" y="1128.6" type="line"/>
    </contour>
  </outline>
</glyph>
<glyph name="twosuperior" format="2">
  <advance height="2479.0" width="863.4"/>
  <unicode hex="00B2"/>
  <anchor x="586.0" y="1223.0" name="cross"/>
  <outline>
    <contour>
      <point x="97.8" y="745.0" type="line"/>
      <point x="782.6" y="745.0" type="line"/>
      <point x="782.6" y="891.0" type="line"/>
      <point x="356.2" y="891.0" type="line"/>
      <point x="356.2" y="897.6" type="line"/>
      <point x="525.6" y="1039.4" type="line" smooth="yes"/>
      <point x="689.6" y="1171.2"/>
      <point x="761.8" y="1256.4"/>
      <point x="761.8" y="1379.2" type="curve" smooth="yes"/>
      <point x="761.8" y="1532.6"/>
      <point x="628.0" y="1649.0"/>
      <point x="427.8" y="1649.0" type="curve" smooth="yes"/>
      <point x="229.4" y="1649.0"/>
      <point x="87.8" y="1538.4"/>
      <point x="87.8" y="1365.4" type="curve"/>
      <point x="259.8" y="1365.4" type="line"/>
      <point x="259.8" y="1452.0"/>
      <point x="325.8" y="1507.2"/>
      <point x="424.8" y="1507.2" type="curve" smooth="yes"/>
      <point x="518.0" y="1507.2"/>
      <point x="589.6" y="1457.4"/>
      <point x="589.6" y="1376.2" type="curve" smooth="yes"/>
      <point x="589.6" y="1303.2"/>
      <point x="537.6" y="1252.2"/>
      <point x="442.6" y="1170.2" type="curve" smooth="yes"/>
      <point x="97.8" y="873.8" type="line"/>
    </contour>
  </outline>
</glyph>
<glyph name="threesuperior" format="2">
  <advance height="2479.0" width="889.2"/>
  <unicode hex="00B3"/>
  <outline>
    <contour>
      <point x="442.6" y="733.0" type="curve" smooth="yes"/>
      <point x="657.6" y="733.0"/>
      <point x="811.0" y="844.0"/>
      <point x="811.0" y="995.0" type="curve" smooth="yes"/>
      <point x="811.0" y="1104.6"/>
      <point x="731.8" y="1185.8"/>
      <point x="589.4" y="1203.4" type="curve"/>
      <point x="589.4" y="1210.0" type="line"/>
      <point x="693.2" y="1226.8"/>
      <point x="774.8" y="1294.2"/>
      <point x="774.8" y="1399.2" type="curve" smooth="yes"/>
      <point x="774.8" y="1542.0"/>
      <point x="641.6" y="1649.0"/>
      <point x="446.2" y="1649.0" type="curve" smooth="yes"/>
      <point x="253.6" y="1649.0"/>
      <point x="104.0" y="1543.8"/>
      <point x="101.0" y="1388.6" type="curve"/>
      <point x="273.0" y="1388.6" type="line"/>
      <point x="276.0" y="1460.4"/>
      <point x="351.8" y="1507.2"/>
      <point x="445.6" y="1507.2" type="curve" smooth="yes"/>
      <point x="537.6" y="1507.2"/>
      <point x="599.8" y="1458.0"/>
      <point x="599.8" y="1388.4" type="curve" smooth="yes"/>
      <point x="599.8" y="1315.4"/>
      <point x="525.8" y="1267.4"/>
      <point x="423.6" y="1267.4" type="curve" smooth="yes"/>
      <point x="340.8" y="1267.4" type="line"/>
      <point x="340.8" y="1134.4" type="line"/>
      <point x="423.6" y="1134.4" type="line" smooth="yes"/>
      <point x="547.0" y="1134.4"/>
      <point x="624.8" y="1081.6"/>
      <point x="624.8" y="1008.0" type="curve" smooth="yes"/>
      <point x="624.8" y="932.6"/>
      <point x="547.8" y="882.0"/>
      <point x="442.6" y="882.0" type="curve" smooth="yes"/>
      <point x="343.0" y="882.0"/>
      <point x="266.4" y="927.2"/>
      <point x="262.8" y="997.8" type="curve"/>
      <point x="80.0" y="997.8" type="line"/>
      <point x="83.6" y="841.6"/>
      <point x="236.0" y="733.0"/>
    </contour>
  </outline>
</glyph>
<glyph name="acute" format="2">
  <advance height="2479.0" width="1018.0"/>
  <unicode hex="00B4"/>
  <anchor x="490.6" y="1303.0" name="_top"/>
  <anchor x="509.0" y="1676.0" name="top"/>
  <outline>
    <contour>
      <point x="400.6" y="1265.8" type="line"/>
      <point x="575.2" y="1265.8" type="line"/>
      <point x="799.6" y="1601.4" type="line"/>
      <point x="571.0" y="1601.4" type="line"/>
    </contour>
  </outline>
</glyph>
<glyph name="micro" format="2">
  <advance height="2479.0" width="1304.2"/>
  <unicode hex="00B5"/>
  <outline>
    <contour>
      <point x="146.0" y="-414.4" type="line"/>
      <point x="359.8" y="-414.4" type="line"/>
      <point x="359.8" y="163.6" type="line"/>
      <point x="368.0" y="163.6" type="line"/>
      <point x="424.4" y="52.6"/>
      <point x="532.2" y="-8.0"/>
      <point x="652.2" y="-8.0" type="curve" smooth="yes"/>
      <point x="772.0" y="-8.0"/>
      <point x="880.8" y="52.6"/>
      <point x="936.4" y="163.6" type="curve"/>
      <point x="944.6" y="163.6" type="line"/>
      <point x="944.6" y="0.0" type="line"/>
      <point x="1158.4" y="0.0" type="line"/>
      <point x="1158.4" y="1117.0" type="line"/>
      <point x="940.4" y="1117.0" type="line"/>
      <point x="940.4" y="463.4" type="line" smooth="yes"/>
      <point x="940.6" y="297.8"/>
      <point x="825.6" y="183.0"/>
      <point x="652.2" y="183.0" type="curve" smooth="yes"/>
      <point x="479.0" y="183.0"/>
      <point x="364.0" y="297.0"/>
      <point x="363.8" y="463.4" type="curve" smooth="yes"/>
      <point x="363.8" y="1117.0" type="line"/>
      <point x="146.0" y="1117.0" type="line"/>
    </contour>
  </outline>
</glyph>
<glyph name="paragraph" format="2">
  <advance height="2479.0" width="1235.0"/>
  <unicode hex="00B6"/>
  <outline>
    <contour>
      <point x="1025.6" y="1303.0" type="line"/>
      <point x="1025.6" y="1489.0" type="line"/>
      <point x="603.2" y="1489.0" type="line" smooth="yes"/>
      <point x="282.6" y="1489.0"/>
      <point x="107.4" y="1289.0"/>
      <point x="107.4" y="1021.0" type="curve" smooth="yes"/>
      <point x="107.4" y="751.0"/>
      <point x="282.6" y="553.0"/>
      <point x="603.2" y="553.0" type="curve" smooth="yes"/>
      <point x="688.6" y="553.0" type="line"/>
      <point x="688.6" y="1303.0" type="line"/>
    </contour>
    <contour>
      <point x="868.8" y="0.0" type="line"/>
      <point x="1071.0" y="0.0" type="line"/>
      <point x="1071.0" y="1489.0" type="line"/>
      <point x="868.8" y="1489.0" type="line"/>
    </contour>
  </outline>
</glyph>
<glyph name="cedilla" format="2">
  <advance height="2479.0" width="620.2"/>
  <unicode hex="00B8"/>
  <anchor x="314.6" y="0.0" name="_cedilla"/>
  <outline>
    <contour>
      <point x="240.6" y="6.0" type="line"/>
      <point x="210.4" y="-138.6" type="line"/>
      <point x="317.2" y="-148.0"/>
      <point x="364.0" y="-169.6"/>
      <point x="363.4" y="-234.0" type="curve" smooth="yes"/>
      <point x="362.6" y="-299.4"/>
      <point x="293.6" y="-326.4"/>
      <point x="193.0" y="-326.4" type="curve"/>
      <point x="197.0" y="-447.8" type="line"/>
      <point x="412.2" y="-447.8"/>
      <point x="529.4" y="-359.0"/>
      <point x="529.0" y="-227.4" type="curve" smooth="yes"/>
      <point x="528.8" y="-118.2"/>
      <point x="454.6" y="-67.0"/>
      <point x="371.6" y="-53.8" type="curve"/>
      <point x="382.6" y="6.0" type="line"/>
    </contour>
  </outline>
</glyph>
<glyph name="onesuperior" format="2">
  <advance height="2479.0" width="646.4"/>
  <unicode hex="00B9"/>
  <outline>
    <contour>
      <point x="310.8" y="745.0" type="line"/>
      <point x="482.2" y="745.0" type="line"/>
      <point x="482.2" y="1638.0" type="line"/>
      <point x="314.8" y="1638.0" type="line"/>
      <point x="78.8" y="1484.4" type="line"/>
      <point x="78.8" y="1318.2" type="line"/>
      <point x="303.4" y="1464.2" type="line"/>
      <point x="310.8" y="1464.2" type="line"/>
    </contour>
  </outline>
</glyph>
<glyph name="ordmasculine" format="2">
  <advance height="2479.0" width="943.4"/>
  <unicode hex="00BA"/>
  <outline>
    <contour>
      <point x="121.8" y="1044.0" type="line"/>
      <point x="121.8" y="838.0"/>
      <point x="257.0" y="691.4"/>
      <point x="475.2" y="691.4" type="curve" smooth="yes"/>
      <point x="689.6" y="691.4"/>
      <point x="821.6" y="838.0"/>
      <point x="821.6" y="1044.0" type="curve"/>
      <point x="821.6" y="1122.4" type="line"/>
      <point x="821.6" y="1329.0"/>
      <point x="689.0" y="1478.0"/>
      <point x="472.2" y="1478.0" type="curve" smooth="yes"/>
      <point x="257.6" y="1478.0"/>
      <point x="121.8" y="1329.0"/>
      <point x="121.8" y="1122.4" type="curve"/>
    </contour>
    <contour>
      <point x="298.4" y="1122.4" type="line"/>
      <point x="298.4" y="1238.4"/>
      <point x="357.0" y="1329.0"/>
      <point x="472.2" y="1329.0" type="curve" smooth="yes"/>
      <point x="589.4" y="1329.0"/>
      <point x="645.0" y="1238.4"/>
      <point x="645.0" y="1122.4" type="curve"/>
      <point x="645.0" y="1044.0" type="line"/>
      <point x="645.0" y="925.0"/>
      <point x="589.4" y="838.0"/>
      <point x="475.2" y="838.0" type="curve" smooth="yes"/>
      <point x="357.0" y="838.0"/>
      <point x="298.4" y="925.0"/>
      <point x="298.4" y="1044.0" type="curve"/>
    </contour>
  </outline>
</glyph>
<glyph name="AE" format="2">
  <advance height="2479.0" width="2055.4"/>
  <unicode hex="00C6"/>
  <anchor x="1329.8" y="1676.0" name="top"/>
  <outline>
    <contour>
      <point x="51.0" y="0.0" type="line"/>
      <point x="298.4" y="0.0" type="line"/>
      <point x="877.6" y="1279.0" type="line"/>
      <point x="983.6" y="1279.0" type="line"/>
      <point x="983.6" y="0.0" type="line"/>
      <point x="1926.6" y="0.0" type="line"/>
      <point x="1926.6" y="193.2" type="line"/>
      <point x="1209.4" y="193.2" type="line"/>
      <point x="1209.4" y="649.2" type="line"/>
      <point x="1869.6" y="649.2" type="line"/>
      <point x="1869.6" y="842.4" type="line"/>
      <point x="1209.4" y="842.4" type="line"/>
      <point x="1209.4" y="1296.0" type="line"/>
      <point x="1917.6" y="1296.0" type="line"/>
      <point x="1917.6" y="1489.0" type="line"/>
      <point x="744.8" y="1489.0" type="line"/>
    </contour>
    <contour>
      <point x="376.0" y="394.6" type="line"/>
      <point x="1103.4" y="394.6" type="line"/>
      <point x="1103.4" y="583.2" type="line"/>
      <point x="376.0" y="583.2" type="line"/>
    </contour>
  </outline>
</glyph>
<glyph name="multiply" format="2">
  <advance height="2479.0" width="1364.0"/>
  <unicode hex="00D7"/>
  <outline>
    <contour>
      <point x="1031.8" y="99.2" type="line"/>
      <point x="1168.6" y="236.8" type="line"/>
      <point x="332.2" y="1073.2" type="line"/>
      <point x="194.6" y="935.8" type="line"/>
    </contour>
    <contour>
      <point x="332.2" y="99.2" type="line"/>
      <point x="1168.6" y="935.8" type="line"/>
      <point x="1031.8" y="1073.2" type="line"/>
      <point x="194.6" y="236.8" type="line"/>
    </contour>
  </outline>
</glyph>
<glyph name="Oslash" format="2">
  <advance height="2479.0" width="1573.0"/>
  <unicode hex="00D8"/>
  <anchor x="787.0" y="0.0" name="bottom"/>
  <anchor x="941.8" y="-3.5999999999999996" name="ogonek"/>
  <anchor x="192.8" y="1489.0" name="tonos"/>
  <anchor x="787.0" y="1676.0" name="top"/>
  <outline>
    <contour>
      <point x="321.6" y="-64.6" type="line"/>
      <point x="1368.0" y="1468.6" type="line"/>
      <point x="1246.6" y="1551.4" type="line"/>
      <point x="201.0" y="18.4" type="line"/>
    </contour>
    <component base="O"/>
  </outline>
</glyph>
<glyph name="Thorn" format="2">
  <advance height="2479.0" width="1319.2"/>
  <unicode hex="00DE"/>
  <outline>
    <contour>
      <point x="155.0" y="1489.0" type="line"/>
      <point x="155.0" y="0.0" type="line"/>
      <point x="379.8" y="0.0" type="line"/>
      <point x="379.8" y="1489.0" type="line"/>
    </contour>
    <contour>
      <point x="259.4" y="1192.6" type="line"/>
      <point x="259.4" y="1004.8" type="line"/>
      <point x="644.6" y="1004.8" type="line" smooth="yes"/>
      <point x="842.2" y="1004.8"/>
      <point x="943.0" y="904.0"/>
      <point x="943.0" y="753.2" type="curve" smooth="yes"/>
      <point x="943.0" y="602.4"/>
      <point x="842.2" y="507.0"/>
      <point x="644.6" y="507.0" type="curve" smooth="yes"/>
      <point x="259.4" y="507.0" type="line"/>
      <point x="259.4" y="319.6" type="line"/>
      <point x="644.6" y="319.6" type="line" smooth="yes"/>
      <point x="975.6" y="319.6"/>
      <point x="1158.0" y="511.6"/>
      <point x="1158.0" y="755.4" type="curve" smooth="yes"/>
      <point x="1158.0" y="1000.0"/>
      <point x="975.6" y="1192.6"/>
      <point x="644.6" y="1192.6" type="curve" smooth="yes"/>
    </contour>
  </outline>
</glyph>
<glyph name="germandbls" format="2">
  <advance height="2479.0" width="1281.6"/>
  <unicode hex="00DF"/>
  <outline>
    <contour>
      <point x="163.2" y="0.0" type="line"/>
      <point x="381.0" y="0.0" type="line"/>
      <point x="381.0" y="1088.8" type="line" smooth="yes"/>
      <point x="381.0" y="1224.6"/>
      <point x="483.6" y="1316.8"/>
      <point x="626.8" y="1316.8" type="curve" smooth="yes"/>
      <point x="776.2" y="1316.8"/>
      <point x="868.0" y="1216.0"/>
      <point x="867.8" y="1087.2" type="curve" smooth="yes"/>
      <point x="867.4" y="963.2"/>
      <point x="783.4" y="850.2"/>
      <point x="650.4" y="850.2" type="curve" smooth="yes"/>
      <point x="562.6" y="850.2" type="line"/>
      <point x="562.6" y="661.0" type="line"/>
      <point x="688.2" y="661.0" type="line" smooth="yes"/>
      <point x="855.6" y="661.0"/>
      <point x="960.2" y="561.6"/>
      <point x="960.6" y="420.0" type="curve" smooth="yes"/>
      <point x="960.8" y="285.0"/>
      <point x="865.2" y="190.8"/>
      <point x="716.2" y="190.8" type="curve" smooth="yes"/>
      <point x="556.6" y="190.8" type="line"/>
      <point x="556.6" y="0.0" type="line"/>
      <point x="730.6" y="0.0" type="line" smooth="yes"/>
      <point x="999.6" y="0.0"/>
      <point x="1179.2" y="166.4"/>
      <point x="1179.6" y="410.0" type="curve" smooth="yes"/>
      <point x="1180.0" y="617.6"/>
      <point x="1049.4" y="759.8"/>
      <point x="859.0" y="776.8" type="curve"/>
      <point x="859.0" y="791.6" type="line"/>
      <point x="996.0" y="836.8"/>
      <point x="1087.2" y="955.0"/>
      <point x="1087.2" y="1119.6" type="curve" smooth="yes"/>
      <point x="1087.2" y="1366.6"/>
      <point x="882.6" y="1510.0"/>
      <point x="621.4" y="1510.0" type="curve" smooth="yes"/>
      <point x="349.4" y="1510.0"/>
      <point x="163.2" y="1355.8"/>
      <point x="163.2" y="1104.0" type="curve" smooth="yes"/>
    </contour>
  </outline>
</glyph>
<glyph name="ae" format="2">
  <advance height="2479.0" width="1886.4"/>
  <unicode hex="00E6"/>
  <anchor x="927.6" y="1303.0" name="top"/>
  <outline>
    <contour>
      <point x="1317.6" y="-22.4" type="curve"/>
      <point x="1552.6" y="-22.4"/>
      <point x="1726.6" y="97.6"/>
      <point x="1776.6" y="279.4" type="curve"/>
      <point x="1570.4" y="316.2" type="line"/>
      <point x="1530.6" y="210.6"/>
      <point x="1436.6" y="157.2"/>
      <point x="1313.0" y="157.2" type="curve" smooth="yes"/>
      <point x="1123.4" y="157.2"/>
      <point x="995.2" y="284.8"/>
      <point x="995.2" y="508.8" type="curve" smooth="yes"/>
      <point x="995.2" y="635.8" type="line" smooth="yes"/>
      <point x="995.8" y="801.4"/>
      <point x="1112.2" y="951.4"/>
      <point x="1296.8" y="951.4" type="curve"/>
      <point x="1465.4" y="951.4"/>
      <point x="1576.6" y="827.0"/>
      <point x="1577.0" y="656.6" type="curve"/>
      <point x="909.4" y="656.6" type="line"/>
      <point x="909.4" y="493.0" type="line"/>
      <point x="1790.2" y="493.0" type="line"/>
      <point x="1790.2" y="570.2" type="line" smooth="yes"/>
      <point x="1790.2" y="974.0"/>
      <point x="1549.0" y="1132.0"/>
      <point x="1295.0" y="1132.0" type="curve" smooth="yes"/>
      <point x="1102.4" y="1132.0"/>
      <point x="964.4" y="1039.2"/>
      <point x="885.0" y="872.6" type="curve"/>
      <point x="867.0" y="283.0" type="line"/>
      <point x="911.4" y="98.2"/>
      <point x="1083.0" y="-22.4"/>
    </contour>
    <contour>
      <point x="518.4" y="149.6" type="curve" smooth="yes"/>
      <point x="395.2" y="149.6"/>
      <point x="306.4" y="205.0"/>
      <point x="306.4" y="312.8" type="curve" smooth="yes"/>
      <point x="306.4" y="429.0"/>
      <point x="410.4" y="470.6"/>
      <point x="535.4" y="487.2" type="curve" smooth="yes"/>
      <point x="606.6" y="496.4"/>
      <point x="773.4" y="515.8"/>
      <point x="805.0" y="546.6" type="curve"/>
      <point x="805.0" y="402.4" type="line" smooth="yes"/>
      <point x="805.0" y="270.8"/>
      <point x="699.8" y="149.6"/>
    </contour>
    <contour>
      <point x="477.2" y="-24.2" type="curve" smooth="yes"/>
      <point x="670.6" y="-24.2"/>
      <point x="842.8" y="72.0"/>
      <point x="892.0" y="197.0" type="curve"/>
      <point x="908.6" y="197.0" type="line"/>
      <point x="964.8" y="906.2" type="line"/>
      <point x="902.2" y="1097.6"/>
      <point x="715.6" y="1132.0"/>
      <point x="590.8" y="1132.0" type="curve" smooth="yes"/>
      <point x="386.4" y="1132.0"/>
      <point x="200.8" y="1049.8"/>
      <point x="128.2" y="846.6" type="curve"/>
      <point x="332.6" y="800.2" type="line"/>
      <point x="363.8" y="879.0"/>
      <point x="447.2" y="955.0"/>
      <point x="592.6" y="955.0" type="curve" smooth="yes"/>
      <point x="732.4" y="955.0"/>
      <point x="804.6" y="881.6"/>
      <point x="804.6" y="755.4" type="curve" smooth="yes"/>
      <point x="804.6" y="750.8" type="line" smooth="yes"/>
      <point x="804.6" y="672.4"/>
      <point x="723.4" y="673.2"/>
      <point x="522.4" y="649.4" type="curve" smooth="yes"/>
      <point x="311.6" y="625.2"/>
      <point x="93.8" y="569.0"/>
      <point x="93.8" y="315.2" type="curve" smooth="yes"/>
      <point x="93.8" y="96.6"/>
      <point x="258.2" y="-24.2"/>
    </contour>
  </outline>
</glyph>
<glyph name="eth" format="2">
  <advance height="2479.0" width="1200.6"/>
  <unicode hex="00F0"/>
  <outline>
    <contour>
      <point x="961.4" y="1412.2" type="line"/>
      <point x="921.4" y="1530.4" type="line"/>
      <point x="296.8" y="1222.6" type="line"/>
      <point x="336.0" y="1104.6" type="line"/>
    </contour>
    <contour>
      <point x="598.4" y="-23.0" type="curve" smooth="yes"/>
      <point x="905.4" y="-23.0"/>
      <point x="1104.4" y="193.8"/>
      <point x="1104.4" y="555.8" type="curve" smooth="yes"/>
      <point x="1104.4" y="1071.8"/>
      <point x="731.4" y="1430.4"/>
      <point x="366.4" y="1579.2" type="curve"/>
      <point x="306.4" y="1442.0" type="line"/>
      <point x="623.6" y="1288.6"/>
      <point x="796.2" y="1062.0"/>
      <point x="870.4" y="872.6" type="curve"/>
      <point x="856.0" y="872.6" type="line"/>
      <point x="803.4" y="953.8"/>
      <point x="702.0" y="1042.6"/>
      <point x="544.2" y="1042.6" type="curve" smooth="yes"/>
      <point x="289.6" y="1042.6"/>
      <point x="96.2" y="822.0"/>
      <point x="96.2" y="512.0" type="curve" smooth="yes"/>
      <point x="96.2" y="198.6"/>
      <point x="292.6" y="-23.0"/>
    </contour>
    <contour>
      <point x="601.0" y="158.6" type="curve" smooth="yes"/>
      <point x="398.2" y="158.6"/>
      <point x="308.6" y="325.4"/>
      <point x="308.6" y="518.2" type="curve" smooth="yes"/>
      <point x="308.6" y="717.4"/>
      <point x="405.6" y="883.4"/>
      <point x="601.0" y="883.4" type="curve" smooth="yes"/>
      <point x="810.2" y="883.4"/>
      <point x="898.0" y="692.0"/>
      <point x="898.0" y="508.6" type="curve" smooth="yes"/>
      <point x="898.0" y="309.0"/>
      <point x="794.6" y="158.6"/>
    </contour>
  </outline>
</glyph>
<glyph name="divide" format="2">
  <advance height="2479.0" width="1364.0"/>
  <unicode hex="00F7"/>
  <outline>
    <contour>
      <point x="1161.6" y="681.6" type="line"/>
      <point x="201.6" y="681.6" type="line"/>
      <point x="201.6" y="490.8" type="line"/>
      <point x="1161.6" y="490.8" type="line"/>
    </contour>
    <contour>
      <point x="682.0" y="56.2" type="curve" smooth="yes"/>
      <point x="760.4" y="56.2"/>
      <point x="825.0" y="120.8"/>
      <point x="825.0" y="202.2" type="curve" smooth="yes"/>
      <point x="825.0" y="279.8"/>
      <point x="760.4" y="345.4"/>
      <point x="682.0" y="345.4" type="curve" smooth="yes"/>
      <point x="600.6" y="345.4"/>
      <point x="535.8" y="279.8"/>
      <point x="535.8" y="202.2" type="curve" smooth="yes"/>
      <point x="535.8" y="120.8"/>
      <point x="600.6" y="56.2"/>
    </contour>
    <contour>
      <point x="682.0" y="827.8" type="curve" smooth="yes"/>
      <point x="760.6" y="827.8"/>
      <point x="825.0" y="892.8"/>
      <point x="825.0" y="974.0" type="curve" smooth="yes"/>
      <point x="825.0" y="1052.6"/>
      <point x="760.6" y="1117.0"/>
      <point x="682.0" y="1117.0" type="curve" smooth="yes"/>
      <point x="600.8" y="1117.0"/>
      <point x="535.8" y="1052.6"/>
      <point x="535.8" y="974.0" type="curve" smooth="yes"/>
      <point x="535.8" y="892.8"/>
      <point x="600.8" y="827.8"/>
    </contour>
  </outline>
</glyph>
<glyph name="oslash" format="2">
  <advance height="2479.0" width="1233.6"/>
  <unicode hex="00F8"/>
  <anchor x="616.8" y="-0.6000000000000001" name="bottom"/>
  <anchor x="752.4" y="-0.6000000000000001" name="ogonek"/>
  <anchor x="616.8" y="1302.4" name="top"/>
  <outline>
    <contour>
      <point x="283.0" y="-64.6" type="line"/>
      <point x="1071.2" y="1090.4" type="line"/>
      <point x="949.2" y="1172.6" type="line"/>
      <point x="162.4" y="18.4" type="line"/>
    </contour>
    <component base="o" yOffset="-0.6000000000000001"/>
  </outline>
</glyph>
<glyph name="thorn" format="2">
  <advance height="2479.0" width="1250.4"/>
  <unicode hex="00FE"/>
  <outline>
    <contour>
      <point x="146.0" y="1489.0" type="line"/>
      <point x="146.0" y="-419.0" type="line"/>
      <point x="363.8" y="-419.0" type="line"/>
      <point x="363.8" y="212.6" type="line"/>
      <point x="298.4" y="561.8" type="line"/>
      <point x="363.8" y="872.4" type="line"/>
      <point x="363.8" y="1489.0" type="line"/>
    </contour>
    <contour>
      <point x="275.8" y="956.2" type="line"/>
      <point x="275.8" y="155.6" type="line"/>
      <point x="377.4" y="155.6" type="line"/>
      <point x="416.0" y="88.2"/>
      <point x="495.4" y="-21.4"/>
      <point x="685.8" y="-21.4" type="curve" smooth="yes"/>
      <point x="955.8" y="-21.4"/>
      <point x="1153.0" y="194.6"/>
      <point x="1153.0" y="556.6" type="curve" smooth="yes"/>
      <point x="1153.0" y="919.0"/>
      <point x="952.8" y="1132.0"/>
      <point x="684.0" y="1132.0" type="curve" smooth="yes"/>
      <point x="489.4" y="1132.0"/>
      <point x="415.4" y="1020.6"/>
      <point x="377.4" y="956.2" type="curve"/>
    </contour>
    <contour>
      <point x="941.0" y="559.0" type="curve" smooth="yes"/>
      <point x="941.2" y="332.2"/>
      <point x="839.6" y="163.6"/>
      <point x="641.8" y="163.6" type="curve" smooth="yes"/>
      <point x="446.8" y="163.6"/>
      <point x="351.8" y="329.0"/>
      <point x="351.6" y="559.0" type="curve" smooth="yes"/>
      <point x="351.8" y="786.8"/>
      <point x="445.6" y="946.2"/>
      <point x="641.8" y="946.2" type="curve" smooth="yes"/>
      <point x="842.0" y="946.2"/>
      <point x="941.2" y="782.4"/>
    </contour>
  </outline>
</glyph>
<glyph name="dcroat" format="2">
  <advance height="2479.0" width="1281.8"/>
  <unicode hex="0111"/>
  <anchor x="624.0" y="0.0" name="bottom"/>
  <anchor x="1008.8" y="1280.0" name="cross"/>
  <anchor x="1254.6" y="1489.0" name="raccent"/>
  <anchor x="588.6" y="1489.0" name="top"/>
  <outline>
    <contour>
      <point x="598.2" y="1207.4" type="line"/>
      <point x="1266.8" y="1207.4" type="line"/>
      <point x="1266.8" y="1356.8" type="line"/>
      <point x="598.2" y="1356.8" type="line"/>
    </contour>
    <component base="d"/>
  </outline>
</glyph>
<glyph name="Hbar" format="2">
  <advance height="2479.0" width="1613.6"/>
  <unicode hex="0126"/>
  <anchor x="805.6" y="0.0" name="bottom"/>
  <anchor x="340.0" y="-2.4" name="cedilla"/>
  <anchor x="1495.2" y="83.8" name="cyrtic"/>
  <anchor x="1403.2" y="0.0" name="right"/>
  <anchor x="175.4" y="1489.0" name="tonos"/>
  <anchor x="812.8" y="1678.4" name="top"/>
  <outline>
    <contour>
      <point x="1523.4" y="1193.6" type="line"/>
      <point x="90.2" y="1193.6" type="line"/>
      <point x="90.2" y="1034.4" type="line"/>
      <point x="1523.4" y="1034.4" type="line"/>
    </contour>
    <component base="H" xOffset="47.2"/>
  </outline>
</glyph>
<glyph name="idotless" format="2">
  <advance height="2479.0" width="509.8"/>
  <unicode hex="0131"/>
  <anchor x="256.2" y="0.0" name="bottom"/>
  <anchor x="255.2" y="596.6" name="cross"/>
  <anchor x="363.8" y="0.0" name="ogonek"/>
  <anchor x="255.8" y="1303.0" name="top"/>
  <outline>
    <contour>
      <point x="146.0" y="0.0" type="line"/>
      <point x="363.8" y="0.0" type="line"/>
      <point x="363.8" y="1117.0" type="line"/>
      <point x="146.0" y="1117.0" type="line"/>
    </contour>
  </outline>
</glyph>
<glyph name="kgreenlandic" format="2">
  <advance height="2479.0" width="1139.6"/>
  <unicode hex="0138"/>
  <outline>
    <contour>
      <point x="346.2" y="378.6" type="line"/>
      <point x="546.4" y="579.2" type="line"/>
      <point x="580.2" y="579.2" type="line"/>
      <point x="1087.8" y="1117.0" type="line"/>
      <point x="828.0" y="1117.0" type="line"/>
      <point x="382.8" y="644.4" type="line"/>
      <point x="344.2" y="644.4" type="line"/>
    </contour>
    <contour>
      <point x="146.0" y="0.0" type="line"/>
      <point x="363.8" y="0.0" type="line"/>
      <point x="363.8" y="1117.0" type="line"/>
      <point x="146.0" y="1117.0" type="line"/>
    </contour>
    <contour>
      <point x="851.8" y="0.0" type="line"/>
      <point x="1118.2" y="0.0" type="line"/>
      <point x="601.8" y="683.0" type="line"/>
      <point x="451.8" y="530.8" type="line"/>
    </contour>
  </outline>
</glyph>
<glyph name="Lslash" format="2">
  <advance height="2479.0" width="1167.8"/>
  <unicode hex="0141"/>
  <anchor x="634.4" y="0.0" name="bottom"/>
  <anchor x="297.2" y="772.0" name="cross"/>
  <anchor x="626.0" y="809.8" name="dot"/>
  <anchor x="653.0" y="1489.0" name="raccent"/>
  <anchor x="296.6" y="1676.0" name="top"/>
  <outline>
    <contour>
      <point x="657.4" y="941.4" type="line"/>
      <point x="39.2" y="754.8" type="line"/>
      <point x="39.2" y="610.4" type="line"/>
      <point x="657.4" y="796.6" type="line"/>
    </contour>
    <component base="L" xOffset="21.0"/>
  </outline>
</glyph>
<glyph name="lslash" format="2">
  <advance height="2479.0" width="509.8"/>
  <unicode hex="0142"/>
  <anchor x="255.0" y="0.0" name="bottom"/>
  <anchor x="255.0" y="768.0" name="cross"/>
  <anchor x="500.8" y="1489.0" name="raccent"/>
  <anchor x="253.4" y="1676.0" name="top"/>
  <outline>
    <contour>
      <point x="516.8" y="943.8" type="line"/>
      <point x="-7.0" y="757.2" type="line"/>
      <point x="-7.0" y="614.6" type="line"/>
      <point x="516.8" y="801.2" type="line"/>
    </contour>
    <component base="l"/>
  </outline>
</glyph>
<glyph name="Eng" format="2">
  <advance height="2479.0" width="1529.8"/>
  <unicode hex="014A"/>
  <anchor x="765.2" y="0.0" name="bottom"/>
  <anchor x="1378.2" y="0.0" name="right"/>
  <anchor x="765.2" y="1676.0" name="top"/>
  <outline>
    <contour>
      <point x="1159.0" y="0.0" type="line"/>
      <point x="1159.0" y="-98.6" type="line" smooth="yes"/>
      <point x="1159.0" y="-208.6"/>
      <point x="1087.4" y="-246.4"/>
      <point x="991.4" y="-246.4" type="curve" smooth="yes"/>
      <point x="965.4" y="-246.4"/>
      <point x="937.8" y="-242.8"/>
      <point x="918.8" y="-238.6" type="curve"/>
      <point x="918.8" y="-415.2" type="line"/>
      <point x="947.4" y="-425.0"/>
      <point x="987.2" y="-426.6"/>
      <point x="1022.4" y="-426.6" type="curve" smooth="yes"/>
      <point x="1219.0" y="-426.6"/>
      <point x="1365.8" y="-321.6"/>
      <point x="1365.8" y="-99.2" type="curve" smooth="yes"/>
      <point x="1365.8" y="0.0" type="line"/>
    </contour>
    <component base="N"/>
  </outline>
</glyph>
<glyph name="eng" format="2">
  <advance height="2479.0" width="1224.4"/>
  <unicode hex="014B"/>
  <anchor x="611.8" y="0.0" name="bottom"/>
  <anchor x="611.8" y="1303.0" name="top"/>
  <outline>
    <contour>
      <point x="861.2" y="4.6000000000000005" type="line"/>
      <point x="861.2" y="-95.2" type="line" smooth="yes"/>
      <point x="861.2" y="-201.4"/>
      <point x="797.8" y="-236.0"/>
      <point x="708.2" y="-236.0" type="curve" smooth="yes"/>
      <point x="683.0" y="-236.0"/>
      <point x="659.2" y="-232.4"/>
      <point x="640.8" y="-228.2" type="curve"/>
      <point x="633.8" y="-408.8" type="line"/>
      <point x="668.2" y="-418.4"/>
      <point x="710.8" y="-419.0"/>
      <point x="752.0" y="-419.0" type="curve" smooth="yes"/>
      <point x="939.4" y="-419.0"/>
      <point x="1078.4" y="-305.4"/>
      <point x="1078.4" y="-95.2" type="curve" smooth="yes"/>
      <point x="1078.4" y="4.6000000000000005" type="line"/>
    </contour>
    <component base="n"/>
  </outline>
</glyph>
<glyph name="OE" format="2">
  <advance height="2479.0" width="1996.2"/>
  <unicode hex="0152"/>
  <anchor x="1380.0" y="0.0" name="bottom"/>
  <anchor x="1383.0" y="0.0" name="cedilla"/>
  <anchor x="1867.6" y="0.0" name="ogonek"/>
  <anchor x="879.6" y="1489.0" name="tonos"/>
  <anchor x="1391.2" y="1676.0" name="top"/>
  <outline>
    <contour>
      <point x="780.0" y="0.0" type="curve" smooth="yes"/>
      <point x="1013.2" y="0.0" type="line"/>
      <point x="1013.2" y="193.2" type="line"/>
      <point x="780.0" y="193.2" type="line" smooth="yes"/>
      <point x="517.4" y="193.2"/>
      <point x="337.6" y="399.4"/>
      <point x="337.6" y="744.4" type="curve" smooth="yes"/>
      <point x="337.6" y="1091.2"/>
      <point x="517.4" y="1296.0"/>
      <point x="780.0" y="1296.0" type="curve" smooth="yes"/>
      <point x="1013.2" y="1296.0" type="line"/>
      <point x="1013.2" y="1489.0" type="line"/>
      <point x="780.0" y="1489.0" type="line" smooth="yes"/>
      <point x="388.6" y="1489.0"/>
      <point x="115.4" y="1204.6"/>
      <point x="115.6" y="744.4" type="curve" smooth="yes"/>
      <point x="115.4" y="287.2"/>
      <point x="388.6" y="0.0"/>
    </contour>
    <component base="E" xOffset="761.4"/>
  </outline>
</glyph>
<glyph name="tbar" format="2">
  <advance height="2479.0" width="761.8"/>
  <unicode hex="0167"/>
  <anchor x="425.6" y="0.0" name="bottom"/>
  <anchor x="514.0" y="0.0" name="cedilla"/>
  <anchor x="563.4" y="1562.0" name="raccent"/>
  <anchor x="331.0" y="1499.6" name="top"/>
  <outline>
    <contour>
      <point x="57.6" y="594.2" type="line"/>
      <point x="668.0" y="594.2" type="line"/>
      <point x="668.0" y="732.8" type="line"/>
      <point x="57.6" y="732.8" type="line"/>
    </contour>
    <component base="t"/>
  </outline>
</glyph>
<glyph name="Bhook" format="2">
  <advance height="2479.0" width="1686.8"/>
  <unicode hex="0181"/>
  <anchor x="997.2" y="0.0" name="bottom"/>
  <anchor x="990.6" y="1676.0" name="top"/>
  <outline>
    <contour>
      <point x="599.2" y="1296.6" type="line"/>
      <point x="599.2" y="1489.0" type="line"/>
      <point x="430.2" y="1489.0" type="line" smooth="yes"/>
      <point x="214.2" y="1489.0"/>
      <point x="90.0" y="1350.6"/>
      <point x="90.2" y="1163.8" type="curve" smooth="yes"/>
      <point x="90.2" y="1049.2" type="line"/>
      <point x="296.4" y="1049.2" type="line"/>
      <point x="296.4" y="1114.6" type="line" smooth="yes"/>
      <point x="296.2" y="1206.6"/>
      <point x="314.4" y="1296.6"/>
      <point x="432.6" y="1296.6" type="curve" smooth="yes"/>
    </contour>
    <component base="B" xOffset="347.8"/>
  </outline>
</glyph>
<glyph name="btopbar" format="2">
  <advance height="2479.0" width="1281.0"/>
  <unicode hex="0183"/>
  <anchor x="677.4" y="0.0" name="bottom"/>
  <anchor x="273.2" y="1280.0" name="cross"/>
  <anchor x="716.0" y="1303.0" name="top"/>
  <outline>
    <contour>
      <point x="1032.0" y="1489.0" type="line"/>
      <point x="323.2" y="1489.0" type="line"/>
      <point x="323.2" y="1308.2" type="line"/>
      <point x="1032.0" y="1308.2" type="line"/>
    </contour>
    <component base="b"/>
  </outline>
</glyph>
<glyph name="Tonesix" format="2">
  <advance height="2479.0" width="1510.8"/>
  <unicode hex="0184"/>
  <outline>
    <contour>
      <point x="582.6" y="1489.0" type="line"/>
      <point x="21.8" y="1489.0" type="line"/>
      <point x="21.8" y="1296.0" type="line"/>
      <point x="582.6" y="1296.0" type="line"/>
    </contour>
    <contour>
      <point x="531.0" y="889.0" type="line"/>
      <point x="531.0" y="699.4" type="line"/>
      <point x="932.6" y="699.4" type="line"/>
      <point x="1125.0" y="699.4"/>
      <point x="1231.0" y="589.0"/>
      <point x="1231.0" y="454.2" type="curve"/>
      <point x="1231.0" y="316.8"/>
      <point x="1125.0" y="189.0"/>
      <point x="932.6" y="189.0" type="curve"/>
      <point x="600.0" y="189.0" type="line"/>
      <point x="600.0" y="1489.0" type="line"/>
      <point x="374.4" y="1489.0" type="line"/>
      <point x="374.4" y="0.0" type="line"/>
      <point x="932.6" y="0.0" type="line"/>
      <point x="1263.8" y="0.0"/>
      <point x="1453.8" y="184.8"/>
      <point x="1453.8" y="451.2" type="curve"/>
      <point x="1453.8" y="717.8"/>
      <point x="1263.8" y="889.0"/>
      <point x="932.6" y="889.0" type="curve"/>
    </contour>
  </outline>
</glyph>
<glyph name="tonesix" format="2">
  <advance height="2479.0" width="1255.0"/>
  <unicode hex="0185"/>
  <outline>
    <contour>
      <point x="811.8" y="-23.0" type="curve" smooth="yes"/>
      <point x="1019.6" y="-23.0"/>
      <point x="1158.6" y="145.8"/>
      <point x="1158.4" y="416.2" type="curve" smooth="yes"/>
      <point x="1158.4" y="691.8"/>
      <point x="1015.0" y="849.4"/>
      <point x="817.0" y="848.6" type="curve" smooth="yes"/>
      <point x="678.8" y="849.4"/>
      <point x="600.4" y="782.4"/>
      <point x="558.2" y="700.2" type="curve"/>
      <point x="551.8" y="700.2" type="line"/>
      <point x="552.2" y="1117.0" type="line"/>
      <point x="339.8" y="1117.0" type="line"/>
      <point x="339.8" y="983.8" type="line"/>
      <point x="334.4" y="983.8" type="line"/>
      <point x="334.4" y="0.2" type="line"/>
      <point x="547.6" y="0.2" type="line"/>
      <point x="547.6" y="115.0" type="line"/>
      <point x="558.2" y="115.0" type="line"/>
      <point x="600.6" y="27.2"/>
      <point x="692.8" y="-23.0"/>
    </contour>
    <contour>
      <point x="744.4" y="159.0" type="curve" smooth="yes"/>
      <point x="622.4" y="159.0"/>
      <point x="549.8" y="261.6"/>
      <point x="549.8" y="416.6" type="curve" smooth="yes"/>
      <point x="549.8" y="572.6"/>
      <point x="622.4" y="666.6"/>
      <point x="746.0" y="666.6" type="curve" smooth="yes"/>
      <point x="870.2" y="666.6"/>
      <point x="941.2" y="569.4"/>
      <point x="941.4" y="417.8" type="curve" smooth="yes"/>
      <point x="941.6" y="266.4"/>
      <point x="870.4" y="159.0"/>
    </contour>
    <contour>
      <point x="193.6" y="707.8" type="line"/>
      <point x="473.0" y="983.8" type="line"/>
      <point x="339.8" y="1117.0" type="line"/>
      <point x="60.2" y="840.8" type="line"/>
    </contour>
  </outline>
</glyph>
<glyph name="Chook" format="2">
  <advance height="2479.0" width="1625.4"/>
  <unicode hex="0187"/>
  <anchor x="784.0" y="-8.4" name="cedilla"/>
  <anchor x="785.8" y="1676.0" name="top"/>
  <outline>
    <contour>
      <point x="1400.6" y="1005.4" type="line"/>
      <point x="1400.6" y="1171.0" type="line" smooth="yes"/>
      <point x="1400.6" y="1296.0"/>
      <point x="1483.2" y="1333.8"/>
      <point x="1576.2" y="1333.8" type="curve" smooth="yes"/>
      <point x="1597.6" y="1333.8"/>
      <point x="1625.4" y="1331.6"/>
      <point x="1642.4" y="1329.2" type="curve"/>
      <point x="1642.4" y="1509.2" type="line"/>
      <point x="1607.6" y="1518.2"/>
      <point x="1567.4" y="1518.2"/>
      <point x="1527.2" y="1518.2" type="curve" smooth="yes"/>
      <point x="1339.2" y="1518.2"/>
      <point x="1185.0" y="1399.2"/>
      <point x="1185.0" y="1184.4" type="curve" smooth="yes"/>
      <point x="1185.0" y="1005.4" type="line"/>
    </contour>
    <component base="C"/>
  </outline>
</glyph>
<glyph name="chook" format="2">
  <advance height="2479.0" width="1273.0"/>
  <unicode hex="0188"/>
  <anchor x="612.6" y="0.0" name="cedilla"/>
  <anchor x="612.6" y="1303.0" name="top"/>
  <outline>
    <contour>
      <point x="1076.8" y="756.8" type="line"/>
      <point x="1076.8" y="909.4" type="line" smooth="yes"/>
      <point x="1076.8" y="1020.8"/>
      <point x="1138.2" y="1057.0"/>
      <point x="1229.4" y="1057.0" type="curve" smooth="yes"/>
      <point x="1251.8" y="1057.0"/>
      <point x="1273.8" y="1053.4"/>
      <point x="1291.4" y="1050.4" type="curve"/>
      <point x="1291.4" y="1215.4" type="line"/>
      <point x="1259.6" y="1225.6"/>
      <point x="1220.0" y="1227.4"/>
      <point x="1182.4" y="1227.4" type="curve" smooth="yes"/>
      <point x="1005.4" y="1227.4"/>
      <point x="867.2" y="1113.0"/>
      <point x="867.2" y="910.0" type="curve" smooth="yes"/>
      <point x="867.2" y="756.8" type="line"/>
    </contour>
    <component base="c"/>
  </outline>
</glyph>
<glyph name="Dhook" format="2">
  <advance height="2479.0" width="1835.6"/>
  <unicode hex="018A"/>
  <anchor x="991.2" y="0.0" name="bottom"/>
  <anchor x="634.0" y="772.0" name="cross"/>
  <anchor x="970.0" y="1676.0" name="top"/>
  <outline>
    <contour>
      <point x="90.2" y="1049.2" type="line"/>
      <point x="296.4" y="1049.2" type="line"/>
      <point x="296.4" y="1114.6" type="line" smooth="yes"/>
      <point x="296.2" y="1206.6"/>
      <point x="314.4" y="1292.4"/>
      <point x="432.6" y="1292.4" type="curve" smooth="yes"/>
      <point x="599.2" y="1292.4" type="line"/>
      <point x="599.2" y="1489.0" type="line"/>
      <point x="430.2" y="1489.0" type="line" smooth="yes"/>
      <point x="214.2" y="1489.0"/>
      <point x="90.0" y="1350.6"/>
      <point x="90.2" y="1163.8" type="curve" smooth="yes"/>
    </contour>
    <component base="D" xOffset="357.8"/>
  </outline>
</glyph>
<glyph name="Dtopbar" format="2">
  <advance height="2479.0" width="1343.8"/>
  <unicode hex="018B"/>
  <outline>
    <contour>
      <point x="623.0" y="0.0" type="curve" smooth="yes"/>
      <point x="1180.6" y="0.0" type="line"/>
      <point x="1180.6" y="1489.0" type="line"/>
      <point x="252.6" y="1489.0" type="line"/>
      <point x="252.6" y="1296.0" type="line"/>
      <point x="955.6" y="1296.0" type="line"/>
      <point x="955.6" y="889.0" type="line"/>
      <point x="623.0" y="889.0" type="line" smooth="yes"/>
      <point x="292.0" y="889.0"/>
      <point x="102.0" y="717.8"/>
      <point x="102.0" y="451.2" type="curve" smooth="yes"/>
      <point x="102.0" y="184.8"/>
      <point x="292.0" y="0.0"/>
    </contour>
    <contour>
      <point x="623.0" y="189.0" type="line" smooth="yes"/>
      <point x="430.8" y="189.0"/>
      <point x="324.6" y="316.8"/>
      <point x="324.6" y="454.2" type="curve" smooth="yes"/>
      <point x="324.6" y="589.0"/>
      <point x="430.8" y="699.4"/>
      <point x="623.0" y="699.4" type="curve" smooth="yes"/>
      <point x="955.6" y="699.4" type="line"/>
      <point x="955.6" y="189.0" type="line"/>
    </contour>
  </outline>
</glyph>
<glyph name="deltaturned" format="2">
  <advance height="2479.0" width="1191.4"/>
  <unicode hex="018D"/>
  <outline>
    <contour>
      <point x="585.8" y="-450.4" type="curve" smooth="yes"/>
      <point x="815.6" y="-450.4"/>
      <point x="972.2" y="-334.2"/>
      <point x="972.0" y="-162.4" type="curve" smooth="yes"/>
      <point x="971.8" y="-43.8"/>
      <point x="895.8" y="60.4"/>
      <point x="772.0" y="115.2" type="curve"/>
      <point x="772.0" y="121.0" type="line"/>
      <point x="967.2" y="169.2"/>
      <point x="1095.2" y="356.2"/>
      <point x="1095.2" y="605.4" type="curve" smooth="yes"/>
      <point x="1095.2" y="917.6"/>
      <point x="893.6" y="1130.4"/>
      <point x="596.2" y="1130.4" type="curve" smooth="yes"/>
      <point x="293.2" y="1130.4"/>
      <point x="96.2" y="910.4"/>
      <point x="96.2" y="611.6" type="curve" smooth="yes"/>
      <point x="96.2" y="327.8"/>
      <point x="272.6" y="121.4"/>
      <point x="531.4" y="30.2" type="curve" smooth="yes"/>
      <point x="669.6" y="-19.4"/>
      <point x="755.0" y="-92.2"/>
      <point x="755.0" y="-160.8" type="curve" smooth="yes"/>
      <point x="755.0" y="-226.2"/>
      <point x="679.4" y="-272.0"/>
      <point x="578.0" y="-272.0" type="curve" smooth="yes"/>
      <point x="503.6" y="-272.0"/>
      <point x="402.0" y="-247.4"/>
      <point x="306.4" y="-209.0" type="curve"/>
      <point x="306.4" y="-400.6" type="line"/>
      <point x="390.8" y="-431.2"/>
      <point x="493.8" y="-450.4"/>
    </contour>
    <contour>
      <point x="594.4" y="214.0" type="curve"/>
      <point x="420.0" y="249.6"/>
      <point x="315.0" y="397.6"/>
      <point x="315.0" y="606.0" type="curve" smooth="yes"/>
      <point x="315.0" y="789.6"/>
      <point x="415.0" y="948.4"/>
      <point x="594.6" y="948.4" type="curve" smooth="yes"/>
      <point x="774.4" y="948.4"/>
      <point x="876.4" y="791.2"/>
      <point x="876.4" y="583.0" type="curve" smooth="yes"/>
      <point x="876.4" y="361.6"/>
      <point x="771.6" y="214.0"/>
    </contour>
  </outline>
</glyph>
<glyph name="Schwa" format="2">
  <advance height="2479.0" width="1533.4"/>
  <unicode hex="018F"/>
  <outline>
    <contour>
      <point x="741.4" y="-20.0" type="curve" smooth="yes"/>
      <point x="1145.2" y="-20.0"/>
      <point x="1417.8" y="272.6"/>
      <point x="1417.8" y="744.4" type="curve" smooth="yes"/>
      <point x="1417.8" y="1219.4"/>
      <point x="1136.8" y="1510.0"/>
      <point x="751.6" y="1510.0" type="curve" smooth="yes"/>
      <point x="429.2" y="1510.0"/>
      <point x="182.2" y="1309.0"/>
      <point x="132.0" y="1018.8" type="curve"/>
      <point x="362.4" y="1018.8" type="line"/>
      <point x="417.8" y="1196.0"/>
      <point x="551.8" y="1304.4"/>
      <point x="749.8" y="1304.4" type="curve" smooth="yes"/>
      <point x="1001.8" y="1304.4"/>
      <point x="1195.4" y="1106.8"/>
      <point x="1195.4" y="745.6" type="curve" smooth="yes"/>
      <point x="1195.4" y="383.6"/>
      <point x="1003.6" y="184.8"/>
      <point x="740.8" y="184.8" type="curve" smooth="yes"/>
      <point x="499.2" y="184.8"/>
      <point x="339.2" y="341.0"/>
      <point x="339.2" y="587.0" type="curve"/>
      <point x="280.4" y="576.8" type="line"/>
      <point x="1312.4" y="576.8" type="line"/>
      <point x="1312.4" y="762.4" type="line"/>
      <point x="121.2" y="762.4" type="line"/>
      <point x="121.2" y="593.0" type="line" smooth="yes"/>
      <point x="121.2" y="216.4"/>
      <point x="379.4" y="-20.0"/>
    </contour>
  </outline>
</glyph>
<glyph name="Eopen" format="2">
  <advance height="2479.0" width="1319.2"/>
  <unicode hex="0190"/>
  <outline>
    <contour>
      <point x="651.6" y="-23.0" type="curve" smooth="yes"/>
      <point x="952.0" y="-23.0"/>
      <point x="1200.2" y="117.0"/>
      <point x="1200.6" y="404.0" type="curve"/>
      <point x="978.2" y="404.0" type="line"/>
      <point x="978.0" y="280.8"/>
      <point x="853.8" y="181.8"/>
      <point x="657.6" y="181.8" type="curve" smooth="yes"/>
      <point x="492.4" y="181.8"/>
      <point x="340.8" y="251.2"/>
      <point x="340.8" y="421.8" type="curve" smooth="yes"/>
      <point x="340.8" y="578.6"/>
      <point x="467.6" y="657.4"/>
      <point x="658.8" y="657.4" type="curve" smooth="yes"/>
      <point x="828.2" y="657.4" type="line"/>
      <point x="828.2" y="801.6" type="line"/>
      <point x="639.4" y="801.6" type="line"/>
      <point x="312.2" y="801.6"/>
      <point x="117.6" y="665.0"/>
      <point x="117.6" y="402.6" type="curve" smooth="yes"/>
      <point x="117.6" y="109.4"/>
      <point x="360.0" y="-23.0"/>
    </contour>
    <contour>
      <point x="639.4" y="710.4" type="curve"/>
      <point x="828.2" y="710.4" type="line"/>
      <point x="828.2" y="857.8" type="line"/>
      <point x="658.8" y="857.8" type="line" smooth="yes"/>
      <point x="466.6" y="857.8"/>
      <point x="368.6" y="964.8"/>
      <point x="368.6" y="1085.8" type="curve" smooth="yes"/>
      <point x="368.6" y="1216.6"/>
      <point x="484.4" y="1304.4"/>
      <point x="662.2" y="1304.4" type="curve" smooth="yes"/>
      <point x="832.6" y="1304.4"/>
      <point x="952.6" y="1222.4"/>
      <point x="952.8" y="1104.0" type="curve"/>
      <point x="1180.0" y="1104.0" type="line"/>
      <point x="1179.6" y="1351.2"/>
      <point x="965.6" y="1510.0"/>
      <point x="662.8" y="1510.0" type="curve" smooth="yes"/>
      <point x="362.6" y="1510.0"/>
      <point x="141.4" y="1355.4"/>
      <point x="141.4" y="1101.4" type="curve" smooth="yes"/>
      <point x="141.4" y="856.4"/>
      <point x="346.2" y="711.2"/>
    </contour>
  </outline>
</glyph>
<glyph name="Fhook" format="2">
  <advance height="2479.0" width="1215.2"/>
  <unicode hex="0191"/>
  <anchor x="591.0" y="12.0" name="bottom"/>
  <anchor x="291.4" y="329.2" name="cross"/>
  <anchor x="656.6" y="1676.0" name="top"/>
  <outline>
    <contour>
      <point x="178.4" y="0.0" type="line"/>
      <point x="178.4" y="-99.8" type="line" smooth="yes"/>
      <point x="178.4" y="-206.8"/>
      <point x="109.4" y="-237.6"/>
      <point x="20.0" y="-237.6" type="curve" smooth="yes"/>
      <point x="0.8" y="-237.6"/>
      <point x="-21.0" y="-235.8"/>
      <point x="-37.4" y="-232.8" type="curve"/>
      <point x="-37.4" y="-410.6" type="line"/>
      <point x="6.4" y="-419.0"/>
      <point x="25.0" y="-419.0"/>
      <point x="41.6" y="-419.0" type="curve" smooth="yes"/>
      <point x="263.0" y="-419.0"/>
      <point x="404.0" y="-326.2"/>
      <point x="404.0" y="-102.2" type="curve" smooth="yes"/>
      <point x="404.0" y="0.0" type="line"/>
    </contour>
    <component base="F" xOffset="15.200000000000001"/>
  </outline>
</glyph>
<glyph name="florin" format="2">
  <advance height="2479.0" width="847.4"/>
  <unicode hex="0192"/>
  <outline>
    <contour>
      <point x="716.0" y="1082.0" type="line"/>
      <point x="508.2" y="1082.0" type="line"/>
      <point x="508.2" y="1186.6" type="line" smooth="yes"/>
      <point x="508.6" y="1302.4"/>
      <point x="567.8" y="1360.6"/>
      <point x="676.0" y="1360.6" type="curve" smooth="yes"/>
      <point x="715.4" y="1360.6"/>
      <point x="741.4" y="1355.2"/>
      <point x="764.2" y="1349.2" type="curve"/>
      <point x="802.8" y="1531.8" type="line"/>
      <point x="761.0" y="1545.6"/>
      <point x="688.8" y="1556.0"/>
      <point x="631.0" y="1556.0" type="curve" smooth="yes"/>
      <point x="426.6" y="1556.0"/>
      <point x="287.4" y="1426.4"/>
      <point x="287.2" y="1186.6" type="curve" smooth="yes"/>
      <point x="287.2" y="1082.0" type="line"/>
      <point x="111.2" y="1082.0" type="line"/>
      <point x="111.2" y="910.2" type="line"/>
      <point x="287.2" y="910.2" type="line"/>
      <point x="287.2" y="-57.2" type="line" smooth="yes"/>
      <point x="287.2" y="-165.2"/>
      <point x="240.0" y="-231.0"/>
      <point x="157.4" y="-231.0" type="curve" smooth="yes"/>
      <point x="137.0" y="-231.0"/>
      <point x="80.6" y="-227.4"/>
      <point x="59.6" y="-219.2" type="curve"/>
      <point x="44.8" y="-404.0" type="line"/>
      <point x="88.2" y="-416.0"/>
      <point x="126.6" y="-419.0"/>
      <point x="170.8" y="-419.0" type="curve" smooth="yes"/>
      <point x="385.8" y="-419.0"/>
      <point x="508.2" y="-291.8"/>
      <point x="508.2" y="-57.2" type="curve" smooth="yes"/>
      <point x="508.2" y="910.2" type="line"/>
      <point x="716.0" y="910.2" type="line"/>
    </contour>
  </outline>
</glyph>
<glyph name="Ghook" format="2">
  <advance height="2479.0" width="1624.8"/>
  <unicode hex="0193"/>
  <anchor x="777.4" y="1.2000000000000002" name="bottom"/>
  <anchor x="780.4" y="1676.0" name="top"/>
  <outline>
    <contour>
      <point x="1400.0" y="1018.8" type="line"/>
      <point x="1400.0" y="1199.0" type="line" smooth="yes"/>
      <point x="1400.0" y="1316.8"/>
      <point x="1477.0" y="1348.4"/>
      <point x="1572.8" y="1348.4" type="curve" smooth="yes"/>
      <point x="1595.8" y="1348.4"/>
      <point x="1618.8" y="1344.8"/>
      <point x="1638.4" y="1342.6" type="curve"/>
      <point x="1638.4" y="1521.4" type="line"/>
      <point x="1604.2" y="1531.6"/>
      <point x="1563.4" y="1533.4"/>
      <point x="1523.8" y="1533.4" type="curve" smooth="yes"/>
      <point x="1318.4" y="1533.4"/>
      <point x="1185.8" y="1413.8"/>
      <point x="1176.8" y="1199.0" type="curve" smooth="yes"/>
      <point x="1171.0" y="1018.8" type="line"/>
    </contour>
    <component base="G"/>
  </outline>
</glyph>
<glyph name="Gamma-latin" format="2">
  <advance height="2479.0" width="1369.8"/>
  <unicode hex="0194"/>
  <outline>
    <contour>
      <point x="35.8" y="1489.0" type="line"/>
      <point x="654.2" y="124.2" type="line" smooth="yes"/>
      <point x="723.6" y="-33.0"/>
      <point x="762.6" y="-119.2"/>
      <point x="762.6" y="-181.6" type="curve" smooth="yes"/>
      <point x="762.6" y="-225.8"/>
      <point x="732.2" y="-260.4"/>
      <point x="685.0" y="-260.4" type="curve" smooth="yes"/>
      <point x="636.8" y="-260.4"/>
      <point x="607.2" y="-228.0"/>
      <point x="607.2" y="-182.0" type="curve" smooth="yes"/>
      <point x="607.2" y="-119.6"/>
      <point x="650.2" y="-29.2"/>
      <point x="718.6" y="124.2" type="curve" smooth="yes"/>
      <point x="1333.4" y="1489.0" type="line"/>
      <point x="1083.6" y="1489.0" type="line"/>
      <point x="596.6" y="363.2" type="line" smooth="yes"/>
      <point x="446.0" y="21.2"/>
      <point x="380.2" y="-90.2"/>
      <point x="380.2" y="-186.4" type="curve" smooth="yes"/>
      <point x="380.2" y="-349.4"/>
      <point x="497.8" y="-442.0"/>
      <point x="685.0" y="-442.0" type="curve" smooth="yes"/>
      <point x="871.0" y="-442.0"/>
      <point x="985.8" y="-347.0"/>
      <point x="985.8" y="-188.6" type="curve" smooth="yes"/>
      <point x="985.8" y="-89.6"/>
      <point x="902.2" y="61.0"/>
      <point x="768.8" y="363.0" type="curve" smooth="yes"/>
      <point x="284.8" y="1489.0" type="line"/>
    </contour>
  </outline>
</glyph>
<glyph name="hv" format="2">
  <advance height="2479.0" width="1962.0"/>
  <unicode hex="0195"/>
  <outline>
    <contour>
      <point x="146.0" y="0.0" type="line"/>
      <point x="363.8" y="0.0" type="line"/>
      <point x="363.8" y="663.2" type="line" smooth="yes"/>
      <point x="364.0" y="841.4"/>
      <point x="476.0" y="942.8"/>
      <point x="631.6" y="942.8" type="curve" smooth="yes"/>
      <point x="781.0" y="942.8"/>
      <point x="870.0" y="848.6"/>
      <point x="870.0" y="684.0" type="curve" smooth="yes"/>
      <point x="870.0" y="559.0" type="line"/>
      <point x="1088.0" y="559.0" type="line"/>
      <point x="1088.0" y="710.6" type="line" smooth="yes"/>
      <point x="1088.0" y="989.0"/>
      <point x="934.8" y="1132.0"/>
      <point x="705.2" y="1132.0" type="curve" smooth="yes"/>
      <point x="531.4" y="1132.0"/>
      <point x="427.0" y="1055.8"/>
      <point x="374.4" y="935.4" type="curve"/>
      <point x="361.0" y="935.4" type="line"/>
      <point x="361.0" y="1489.0" type="line"/>
      <point x="146.0" y="1489.0" type="line"/>
    </contour>
    <contour>
      <point x="1269.0" y="-20.0" type="curve" smooth="yes"/>
      <point x="1601.0" y="-20.0"/>
      <point x="1816.2" y="281.4"/>
      <point x="1816.2" y="975.2" type="curve" smooth="yes"/>
      <point x="1816.2" y="1117.0" type="line"/>
      <point x="1599.0" y="1117.0" type="line"/>
      <point x="1599.0" y="975.2" type="line" smooth="yes"/>
      <point x="1599.0" y="393.0"/>
      <point x="1459.2" y="165.8"/>
      <point x="1280.2" y="165.8" type="curve" smooth="yes"/>
      <point x="1197.4" y="165.8"/>
      <point x="1088.0" y="214.6"/>
      <point x="1088.0" y="439.8" type="curve" smooth="yes"/>
      <point x="1088.0" y="559.0" type="line"/>
      <point x="870.0" y="559.0" type="line"/>
      <point x="870.0" y="439.8" type="line" smooth="yes"/>
      <point x="870.0" y="128.8"/>
      <point x="1035.8" y="-20.0"/>
    </contour>
  </outline>
</glyph>
<glyph name="Khook" format="2">
  <advance height="2479.0" width="1415.0"/>
  <unicode hex="0198"/>
  <outline>
    <contour>
      <point x="163.2" y="0.0" type="line"/>
      <point x="388.8" y="0.0" type="line"/>
      <point x="388.8" y="449.8" type="line"/>
      <point x="573.8" y="654.2" type="line"/>
      <point x="1065.0" y="0.0" type="line"/>
      <point x="1336.0" y="0.0" type="line"/>
      <point x="713.6" y="811.8" type="line"/>
      <point x="1114.0" y="1238.6" type="line" smooth="yes"/>
      <point x="1185.8" y="1315.0"/>
      <point x="1247.0" y="1326.4"/>
      <point x="1316.8" y="1284.8" type="curve"/>
      <point x="1399.0" y="1448.4" type="line"/>
      <point x="1256.6" y="1541.2"/>
      <point x="1092.0" y="1528.2"/>
      <point x="963.8" y="1389.8" type="curve" smooth="yes"/>
      <point x="406.6" y="783.4" type="line"/>
      <point x="388.8" y="783.4" type="line"/>
      <point x="388.8" y="1489.0" type="line"/>
      <point x="163.2" y="1489.0" type="line"/>
    </contour>
  </outline>
</glyph>
<glyph name="khook" format="2">
  <advance height="2479.0" width="1121.2"/>
  <unicode hex="0199"/>
  <outline>
    <contour>
      <point x="848.6" y="0.0" type="line"/>
      <point x="1099.8" y="0.0" type="line"/>
      <point x="626.6" y="640.0" type="line"/>
      <point x="1059.8" y="1117.0" type="line"/>
      <point x="794.2" y="1117.0" type="line"/>
      <point x="378.0" y="651.2" type="line"/>
      <point x="363.8" y="651.2" type="line"/>
      <point x="363.8" y="1137.8" type="line"/>
      <point x="146.0" y="1137.8" type="line"/>
      <point x="146.0" y="0.0" type="line"/>
      <point x="363.8" y="0.0" type="line"/>
      <point x="363.8" y="346.4" type="line"/>
      <point x="489.0" y="483.0" type="line"/>
    </contour>
    <contour>
      <point x="363.8" y="1034.6" type="line"/>
      <point x="363.8" y="1193.2" type="line" smooth="yes"/>
      <point x="364.0" y="1300.2"/>
      <point x="436.2" y="1330.2"/>
      <point x="524.6" y="1330.2" type="curve" smooth="yes"/>
      <point x="546.4" y="1330.2"/>
      <point x="568.2" y="1328.0"/>
      <point x="586.6" y="1325.0" type="curve"/>
      <point x="586.6" y="1500.4" type="line"/>
      <point x="556.6" y="1508.2"/>
      <point x="512.8" y="1510.0"/>
      <point x="467.8" y="1510.0" type="curve" smooth="yes"/>
      <point x="296.2" y="1510.0"/>
      <point x="146.2" y="1417.2"/>
      <point x="146.0" y="1193.2" type="curve" smooth="yes"/>
      <point x="146.0" y="1034.6" type="line"/>
    </contour>
  </outline>
</glyph>
<glyph name="lambdastroke" format="2">
  <advance height="2479.0" width="1214.0"/>
  <unicode hex="019B"/>
  <outline>
    <contour>
      <point x="200.2" y="1028.2" type="line"/>
      <point x="738.2" y="1220.6" type="line"/>
      <point x="738.2" y="1400.8" type="line"/>
      <point x="200.2" y="1207.0" type="line"/>
    </contour>
    <component base="lambda"/>
  </outline>
</glyph>
<glyph name="Mturned" format="2">
  <advance height="2479.0" width="1885.0"/>
  <unicode hex="019C"/>
  <outline>
    <contour>
      <point x="527.2" y="-22.8" type="curve" smooth="yes"/>
      <point x="827.0" y="-22.8"/>
      <point x="950.4" y="202.2"/>
      <point x="950.4" y="506.0" type="curve"/>
      <point x="855.2" y="503.0" type="line"/>
      <point x="855.2" y="316.8"/>
      <point x="784.0" y="171.6"/>
      <point x="602.8" y="171.6" type="curve" smooth="yes"/>
      <point x="488.0" y="171.6"/>
      <point x="388.8" y="230.2"/>
      <point x="388.8" y="436.2" type="curve" smooth="yes"/>
      <point x="388.8" y="1489.0" type="line"/>
      <point x="163.2" y="1489.0" type="line"/>
      <point x="163.2" y="436.2" type="line" smooth="yes"/>
      <point x="163.2" y="97.2"/>
      <point x="308.0" y="-22.8"/>
    </contour>
    <contour>
      <point x="1194.2" y="-22.8" type="curve" smooth="yes"/>
      <point x="1489.2" y="-22.8"/>
      <point x="1612.2" y="204.0"/>
      <point x="1612.2" y="506.0" type="curve"/>
      <point x="1518.0" y="503.0" type="line"/>
      <point x="1518.0" y="317.4"/>
      <point x="1448.6" y="171.6"/>
      <point x="1267.2" y="171.6" type="curve" smooth="yes"/>
      <point x="1153.2" y="171.6"/>
      <point x="1053.4" y="230.2"/>
      <point x="1053.4" y="436.2" type="curve"/>
      <point x="1053.4" y="1489.0" type="line"/>
      <point x="828.4" y="1489.0" type="line"/>
      <point x="828.4" y="436.2" type="line"/>
      <point x="828.4" y="94.2"/>
      <point x="981.4" y="-22.8"/>
    </contour>
    <contour>
      <point x="1496.0" y="0.0" type="line"/>
      <point x="1721.0" y="0.0" type="line"/>
      <point x="1721.0" y="1489.0" type="line"/>
      <point x="1496.0" y="1489.0" type="line"/>
    </contour>
  </outline>
</glyph>
<glyph name="Nhookleft" format="2">
  <advance height="2479.0" width="1547.4"/>
  <unicode hex="019D"/>
  <anchor x="782.8" y="0.0" name="bottom"/>
  <anchor x="1395.8" y="0.0" name="right"/>
  <anchor x="782.8" y="1676.0" name="top"/>
  <outline>
    <contour>
      <point x="180.8" y="0.0" type="line"/>
      <point x="180.8" y="-99.8" type="line" smooth="yes"/>
      <point x="180.8" y="-206.8"/>
      <point x="111.8" y="-237.6"/>
      <point x="22.6" y="-237.6" type="curve" smooth="yes"/>
      <point x="3.3999999999999995" y="-237.6"/>
      <point x="-19.2" y="-235.8"/>
      <point x="-34.8" y="-232.8" type="curve"/>
      <point x="-34.8" y="-410.6" type="line"/>
      <point x="-5.6000000000000005" y="-419.0"/>
      <point x="43.4" y="-419.0"/>
      <point x="79.4" y="-419.0" type="curve" smooth="yes"/>
      <point x="252.0" y="-419.0"/>
      <point x="405.8" y="-326.2"/>
      <point x="405.8" y="-102.2" type="curve" smooth="yes"/>
      <point x="405.8" y="0.0" type="line"/>
    </contour>
    <component base="N" xOffset="17.6"/>
  </outline>
</glyph>
<glyph name="Ohorn" format="2">
  <advance height="2479.0" width="1611.8"/>
  <unicode hex="01A0"/>
  <anchor x="787.0" y="0.0" name="bottom"/>
  <anchor x="941.8" y="-3.5999999999999996" name="ogonek"/>
  <anchor x="192.8" y="1489.0" name="tonos"/>
  <anchor x="787.0" y="1676.0" name="top"/>
  <outline>
    <contour>
      <point x="1403.6" y="1585.4" type="line"/>
      <point x="1403.6" y="1412.4"/>
      <point x="1344.2" y="1311.0"/>
      <point x="1196.6" y="1311.0" type="curve"/>
      <point x="1196.6" y="1163.2" type="line"/>
      <point x="1457.0" y="1163.2"/>
      <point x="1584.0" y="1316.4"/>
      <point x="1584.0" y="1585.4" type="curve"/>
    </contour>
    <component base="O"/>
  </outline>
</glyph>
<glyph name="ohorn" format="2">
  <advance height="2479.0" width="1248.2"/>
  <unicode hex="01A1"/>
  <anchor x="616.8" y="0.0" name="bottom"/>
  <anchor x="752.4" y="0.0" name="ogonek"/>
  <anchor x="616.8" y="1303.0" name="top"/>
  <outline>
    <contour>
      <point x="1080.0" y="1194.6" type="line"/>
      <point x="1080.0" y="1045.0"/>
      <point x="1055.2" y="947.2"/>
      <point x="907.2" y="947.2" type="curve"/>
      <point x="907.2" y="824.6" type="line"/>
      <point x="1154.6" y="824.6"/>
      <point x="1248.2" y="965.6"/>
      <point x="1248.2" y="1194.6" type="curve"/>
    </contour>
    <component base="o"/>
  </outline>
</glyph>
<glyph name="Oi" format="2">
  <advance height="2479.0" width="1817.2"/>
  <unicode hex="01A2"/>
  <outline>
    <contour>
      <point x="1271.8" y="800.4" type="line" name="hr00"/>
      <point x="1037.8" y="800.4" type="line"/>
      <point x="1037.8" y="268.0" type="line"/>
      <point x="978.6" y="207.4"/>
      <point x="878.2" y="174.2"/>
      <point x="764.8" y="174.2" type="curve" smooth="yes"/>
      <point x="489.2" y="174.2"/>
      <point x="361.0" y="363.8"/>
      <point x="361.0" y="680.2" type="curve" smooth="yes"/>
      <point x="361.0" y="800.2" type="line"/>
      <point x="115.6" y="797.2" type="line"/>
      <point x="115.6" y="680.2" type="line" smooth="yes"/>
      <point x="115.6" y="247.4"/>
      <point x="351.8" y="-20.0"/>
      <point x="753.4" y="-20.0" type="curve" smooth="yes"/>
      <point x="986.2" y="-20.0"/>
      <point x="1184.2" y="67.2"/>
      <point x="1271.8" y="193.8" type="curve"/>
    </contour>
    <contour>
      <point x="1271.8" y="1296.0" type="line"/>
      <point x="1187.4" y="1418.4"/>
      <point x="993.2" y="1510.0"/>
      <point x="767.0" y="1510.0" type="curve" smooth="yes"/>
      <point x="358.2" y="1510.0"/>
      <point x="115.6" y="1249.4"/>
      <point x="115.6" y="809.6" type="curve" smooth="yes"/>
      <point x="115.6" y="695.6" type="line"/>
      <point x="361.0" y="695.0" type="line"/>
      <point x="361.0" y="809.6" type="line" smooth="yes"/>
      <point x="361.0" y="1137.8"/>
      <point x="490.0" y="1312.6"/>
      <point x="767.8" y="1312.6" type="curve" smooth="yes"/>
      <point x="880.6" y="1312.6"/>
      <point x="983.4" y="1278.2"/>
      <point x="1037.8" y="1219.2" type="curve"/>
      <point x="1037.8" y="699.4" type="line"/>
      <point x="1271.8" y="700.6" type="line"/>
    </contour>
    <contour>
      <point x="1653.2" y="1489.0" type="line"/>
      <point x="1474.2" y="1489.0" type="line"/>
      <point x="1156.8" y="1353.8" type="line"/>
      <point x="1156.8" y="1132.0" type="line"/>
      <point x="1418.8" y="1236.6" type="line"/>
      <point x="1418.8" y="-419.0" type="line"/>
      <point x="1653.2" y="-419.0" type="line"/>
    </contour>
  </outline>
</glyph>
<glyph name="oi" format="2">
  <advance height="2479.0" width="1463.0"/>
  <unicode hex="01A3"/>
  <outline>
    <contour>
      <point x="590.4" y="161.2" type="curve" smooth="yes"/>
      <point x="419.4" y="161.2"/>
      <point x="308.2" y="306.4"/>
      <point x="308.4" y="523.2" type="curve" smooth="yes"/>
      <point x="308.4" y="558.8" type="line" smooth="yes"/>
      <point x="308.4" y="761.2"/>
      <point x="382.4" y="948.0"/>
      <point x="584.4" y="948.0" type="curve" smooth="yes"/>
      <point x="648.8" y="948.0"/>
      <point x="695.6" y="925.0"/>
      <point x="731.4" y="893.0" type="curve"/>
      <point x="731.4" y="534.6" type="line"/>
      <point x="967.2" y="527.6" type="line"/>
      <point x="967.2" y="946.2" type="line"/>
      <point x="895.8" y="1047.0"/>
      <point x="765.6" y="1132.0"/>
      <point x="592.0" y="1132.0" type="curve" smooth="yes"/>
      <point x="257.2" y="1132.0"/>
      <point x="96.2" y="883.0"/>
      <point x="96.2" y="558.8" type="curve" smooth="yes"/>
      <point x="96.2" y="523.2" type="line" smooth="yes"/>
      <point x="96.0" y="228.2"/>
      <point x="262.0" y="-20.0"/>
      <point x="584.8" y="-20.0" type="curve" smooth="yes"/>
      <point x="769.2" y="-20.0"/>
      <point x="889.4" y="56.2"/>
      <point x="967.2" y="159.0" type="curve"/>
      <point x="967.2" y="572.6" type="line"/>
      <point x="731.4" y="572.6" type="line"/>
      <point x="731.4" y="212.2" type="line"/>
      <point x="693.8" y="185.0"/>
      <point x="650.6" y="161.2"/>
    </contour>
    <contour>
      <point x="1317.4" y="1117.0" type="line"/>
      <point x="1143.0" y="1117.0" type="line"/>
      <point x="858.4" y="979.0" type="line"/>
      <point x="858.4" y="713.2" type="line"/>
      <point x="1097.8" y="839.8" type="line"/>
      <point x="1097.8" y="-413.4" type="line"/>
      <point x="1317.4" y="-419.0" type="line"/>
    </contour>
  </outline>
</glyph>
<glyph name="Phook" format="2">
  <advance height="2479.0" width="1656.6"/>
  <unicode hex="01A4"/>
  <anchor x="479.0" y="1489.0" name="tonos"/>
  <anchor x="998.4" y="1676.0" name="top"/>
  <outline>
    <contour>
      <point x="296.4" y="1049.2" type="line"/>
      <point x="296.4" y="1114.6" type="line" smooth="yes"/>
      <point x="296.2" y="1206.6"/>
      <point x="314.4" y="1296.6"/>
      <point x="432.6" y="1296.6" type="curve" smooth="yes"/>
      <point x="599.2" y="1296.6" type="line"/>
      <point x="599.2" y="1489.0" type="line"/>
      <point x="430.2" y="1489.0" type="line" smooth="yes"/>
      <point x="214.2" y="1489.0"/>
      <point x="90.0" y="1350.6"/>
      <point x="90.2" y="1163.8" type="curve" smooth="yes"/>
      <point x="90.2" y="1049.2" type="line"/>
    </contour>
    <component base="P" xOffset="347.8"/>
  </outline>
</glyph>
<glyph name="phook" format="2">
  <advance height="2479.0" width="1263.8"/>
  <unicode hex="01A5"/>
  <anchor x="253.8" y="-415.4" name="bottom"/>
  <anchor x="1266.4" y="-491.4" name="bottom0315"/>
  <anchor x="255.2" y="-163.0" name="cross"/>
  <anchor x="671.0" y="1303.0" name="top"/>
  <outline>
    <contour>
      <point x="358.4" y="1117.0" type="line"/>
      <point x="358.4" y="1187.2"/>
      <point x="411.4" y="1223.6"/>
      <point x="507.4" y="1223.2" type="curve" smooth="yes"/>
      <point x="531.4" y="1222.8"/>
      <point x="559.4" y="1218.6"/>
      <point x="577.0" y="1215.2" type="curve"/>
      <point x="577.0" y="1380.6" type="line"/>
      <point x="556.8" y="1386.4"/>
      <point x="512.6" y="1392.4"/>
      <point x="458.4" y="1392.4" type="curve" smooth="yes"/>
      <point x="256.6" y="1392.4"/>
      <point x="146.0" y="1300.2"/>
      <point x="146.0" y="1117.0" type="curve"/>
    </contour>
    <component base="p"/>
  </outline>
</glyph>
<glyph name="Yr" format="2">
  <advance height="2479.0" width="1430.8"/>
  <unicode hex="01A6"/>
  <outline>
    <contour>
      <point x="269.2" y="319.6" type="line"/>
      <point x="654.4" y="319.6" type="line" smooth="yes"/>
      <point x="985.4" y="319.6"/>
      <point x="1167.8" y="511.6"/>
      <point x="1167.8" y="755.4" type="curve" smooth="yes"/>
      <point x="1167.8" y="1000.0"/>
      <point x="985.4" y="1192.6"/>
      <point x="654.4" y="1192.6" type="curve" smooth="yes"/>
      <point x="269.2" y="1192.6" type="line"/>
      <point x="269.2" y="1004.8" type="line"/>
      <point x="654.4" y="1004.8" type="line" smooth="yes"/>
      <point x="852.0" y="1004.8"/>
      <point x="952.8" y="904.0"/>
      <point x="952.8" y="753.2" type="curve" smooth="yes"/>
      <point x="952.8" y="602.4"/>
      <point x="852.0" y="507.0"/>
      <point x="654.4" y="507.0" type="curve" smooth="yes"/>
      <point x="269.2" y="507.0" type="line"/>
    </contour>
    <contour>
      <point x="1104.0" y="-419.0" type="line"/>
      <point x="1359.0" y="-419.0" type="line"/>
      <point x="902.4" y="416.4" type="line"/>
      <point x="653.8" y="416.4" type="line"/>
    </contour>
    <contour>
      <point x="163.2" y="0.0" type="line"/>
      <point x="388.8" y="0.0" type="line"/>
      <point x="388.8" y="1489.0" type="line"/>
      <point x="163.2" y="1489.0" type="line"/>
    </contour>
  </outline>
</glyph>
<glyph name="Tonetwo" format="2">
  <advance height="2479.0" width="1317.6"/>
  <unicode hex="01A7"/>
  <anchor x="656.6" y="-20.8" name="bottom"/>
  <anchor x="657.2" y="0.0" name="cedilla"/>
  <anchor x="660.2" y="1676.0" name="top"/>
  <outline>
    <contour>
      <point x="341.8" y="1098.4" type="line"/>
      <point x="357.8" y="1235.4"/>
      <point x="479.0" y="1315.6"/>
      <point x="650.0" y="1315.6" type="curve" smooth="yes"/>
      <point x="833.4" y="1315.6"/>
      <point x="949.2" y="1222.0"/>
      <point x="949.4" y="1095.4" type="curve" smooth="yes"/>
      <point x="950.0" y="953.0"/>
      <point x="795.0" y="897.6"/>
      <point x="678.8" y="868.4" type="curve" smooth="yes"/>
      <point x="532.8" y="831.2" type="line" smooth="yes"/>
      <point x="343.8" y="784.2"/>
      <point x="104.8" y="680.4"/>
      <point x="104.4" y="411.0" type="curve" smooth="yes"/>
      <point x="104.8" y="159.4"/>
      <point x="306.0" y="-24.2"/>
      <point x="656.6" y="-24.2" type="curve" smooth="yes"/>
      <point x="990.4" y="-24.2"/>
      <point x="1198.6" y="142.0"/>
      <point x="1213.2" y="412.0" type="curve"/>
      <point x="987.6" y="412.0" type="line"/>
      <point x="974.4" y="249.4"/>
      <point x="830.4" y="172.4"/>
      <point x="657.8" y="172.4" type="curve" smooth="yes"/>
      <point x="466.4" y="172.4"/>
      <point x="327.4" y="268.4"/>
      <point x="327.0" y="413.4" type="curve" smooth="yes"/>
      <point x="327.4" y="546.2"/>
      <point x="450.6" y="598.4"/>
      <point x="609.4" y="641.0" type="curve" smooth="yes"/>
      <point x="785.6" y="689.0" type="line" smooth="yes"/>
      <point x="1024.8" y="753.8"/>
      <point x="1173.0" y="875.0"/>
      <point x="1172.8" y="1082.4" type="curve" smooth="yes"/>
      <point x="1173.4" y="1339.0"/>
      <point x="944.0" y="1510.0"/>
      <point x="645.2" y="1510.0" type="curve" smooth="yes"/>
      <point x="342.6" y="1510.0"/>
      <point x="132.0" y="1336.8"/>
      <point x="125.4" y="1098.4" type="curve"/>
    </contour>
  </outline>
</glyph>
<glyph name="tonetwo" format="2">
  <advance height="2479.0" width="1097.6"/>
  <unicode hex="01A8"/>
  <outline>
    <contour>
      <point x="548.6" y="-22.4" type="curve" smooth="yes"/>
      <point x="800.0" y="-22.4"/>
      <point x="964.4" y="88.8"/>
      <point x="1000.8" y="286.6" type="curve"/>
      <point x="790.6" y="318.6" type="line"/>
      <point x="763.8" y="208.2"/>
      <point x="680.6" y="152.4"/>
      <point x="550.4" y="152.4" type="curve" smooth="yes"/>
      <point x="407.6" y="152.4"/>
      <point x="315.4" y="220.8"/>
      <point x="315.2" y="307.0" type="curve" smooth="yes"/>
      <point x="315.4" y="377.0"/>
      <point x="365.6" y="424.0"/>
      <point x="473.6" y="448.8" type="curve" smooth="yes"/>
      <point x="661.8" y="490.2" type="line" smooth="yes"/>
      <point x="871.4" y="536.6"/>
      <point x="967.8" y="642.4"/>
      <point x="967.6" y="800.8" type="curve" smooth="yes"/>
      <point x="967.8" y="998.6"/>
      <point x="788.4" y="1132.0"/>
      <point x="536.6" y="1132.0" type="curve" smooth="yes"/>
      <point x="295.2" y="1132.0"/>
      <point x="159.2" y="1018.0"/>
      <point x="113.8" y="844.2" type="curve"/>
      <point x="311.0" y="809.0" type="line"/>
      <point x="336.2" y="884.4"/>
      <point x="399.0" y="959.2"/>
      <point x="534.8" y="959.2" type="curve" smooth="yes"/>
      <point x="658.2" y="959.2"/>
      <point x="750.6" y="898.0"/>
      <point x="750.2" y="811.8" type="curve" smooth="yes"/>
      <point x="750.6" y="737.4"/>
      <point x="698.6" y="695.2"/>
      <point x="575.2" y="666.6" type="curve" smooth="yes"/>
      <point x="397.8" y="625.6" type="line" smooth="yes"/>
      <point x="192.0" y="578.2"/>
      <point x="92.4" y="480.6"/>
      <point x="92.0" y="322.6" type="curve" smooth="yes"/>
      <point x="92.4" y="121.2"/>
      <point x="279.4" y="-22.4"/>
    </contour>
  </outline>
</glyph>
<glyph name="eshreversedloop" format="2">
  <advance height="2479.0" width="1181.8"/>
  <unicode hex="01AA"/>
  <outline>
    <contour>
      <point x="617.0" y="1087.2" type="line" name="hr00"/>
      <point x="617.0" y="-54.2" type="line" smooth="yes"/>
      <point x="617.0" y="-294.0"/>
      <point x="727.4" y="-423.6"/>
      <point x="934.2" y="-423.6" type="curve" smooth="yes"/>
      <point x="975.2" y="-423.6"/>
      <point x="1027.2" y="-418.2"/>
      <point x="1061.8" y="-406.4" type="curve"/>
      <point x="1061.8" y="-222.0" type="line"/>
      <point x="1036.8" y="-228.0"/>
      <point x="1009.4" y="-231.0"/>
      <point x="989.0" y="-231.0" type="curve" smooth="yes"/>
      <point x="901.2" y="-231.0"/>
      <point x="852.8" y="-183.0"/>
      <point x="852.8" y="-54.2" type="curve" smooth="yes"/>
      <point x="852.8" y="1195.2" type="line"/>
    </contour>
    <contour>
      <point x="120.0" y="1195.2" type="curve" smooth="yes"/>
      <point x="120.4" y="995.8"/>
      <point x="283.8" y="831.8"/>
      <point x="486.6" y="831.8" type="curve" smooth="yes"/>
      <point x="686.8" y="831.8"/>
      <point x="852.6" y="996.2"/>
      <point x="852.8" y="1195.2" type="curve" smooth="yes"/>
      <point x="853.0" y="1395.8"/>
      <point x="686.8" y="1557.6"/>
      <point x="486.6" y="1557.6" type="curve" smooth="yes"/>
      <point x="283.2" y="1557.6"/>
      <point x="119.8" y="1395.8"/>
    </contour>
    <contour>
      <point x="487.2" y="1040.4" type="curve" smooth="yes"/>
      <point x="399.8" y="1040.4"/>
      <point x="334.0" y="1092.0"/>
      <point x="334.2" y="1198.2" type="curve" smooth="yes"/>
      <point x="334.6" y="1300.8"/>
      <point x="399.8" y="1354.6"/>
      <point x="487.2" y="1354.6" type="curve" smooth="yes"/>
      <point x="569.2" y="1354.6"/>
      <point x="636.2" y="1301.4"/>
      <point x="636.4" y="1198.2" type="curve" smooth="yes"/>
      <point x="636.8" y="1092.0"/>
      <point x="569.8" y="1040.4"/>
    </contour>
  </outline>
</glyph>
<glyph name="tpalatalhook" format="2">
  <advance height="2479.0" width="768.4"/>
  <unicode hex="01AB"/>
  <anchor x="425.6" y="0.0" name="bottom"/>
  <anchor x="514.0" y="0.0" name="cedilla"/>
  <anchor x="563.4" y="1562.0" name="raccent"/>
  <anchor x="331.0" y="1499.6" name="top"/>
  <outline>
    <contour>
      <point x="507.6" y="160.8" type="line"/>
      <point x="507.6" y="-102.2" type="line" smooth="yes"/>
      <point x="507.6" y="-217.4"/>
      <point x="429.6" y="-248.8"/>
      <point x="341.4" y="-248.8" type="curve" smooth="yes"/>
      <point x="316.8" y="-248.8"/>
      <point x="295.6" y="-245.8"/>
      <point x="277.8" y="-242.8" type="curve"/>
      <point x="277.8" y="-407.8" type="line"/>
      <point x="309.6" y="-417.2"/>
      <point x="348.2" y="-418.4"/>
      <point x="387.4" y="-418.4" type="curve" smooth="yes"/>
      <point x="564.8" y="-418.4"/>
      <point x="694.6" y="-304.6"/>
      <point x="694.6" y="-102.2" type="curve" smooth="yes"/>
      <point x="694.6" y="199.2" type="line"/>
    </contour>
    <component base="t"/>
  </outline>
</glyph>
<glyph name="Thook" format="2">
  <advance height="2479.0" width="1410.6"/>
  <unicode hex="01AC"/>
  <outline>
    <contour>
      <point x="744.2" y="1489.0" type="line"/>
      <point x="424.4" y="1489.0" type="line" smooth="yes"/>
      <point x="213.6" y="1489.0"/>
      <point x="90.2" y="1360.8"/>
      <point x="90.2" y="1165.6" type="curve" smooth="yes"/>
      <point x="90.2" y="1059.2" type="line"/>
      <point x="285.8" y="1059.2" type="line"/>
      <point x="285.8" y="1125.6" type="line" smooth="yes"/>
      <point x="285.8" y="1211.4"/>
      <point x="316.4" y="1296.0"/>
      <point x="424.4" y="1296.0" type="curve" smooth="yes"/>
      <point x="744.2" y="1296.0" type="line"/>
    </contour>
    <contour>
      <point x="1320.4" y="1489.0" type="line"/>
      <point x="516.0" y="1489.0" type="line"/>
      <point x="516.0" y="1296.0" type="line"/>
      <point x="632.6" y="1296.0" type="line"/>
      <point x="632.6" y="0.0" type="line"/>
      <point x="856.4" y="0.0" type="line"/>
      <point x="856.4" y="1296.0" type="line"/>
      <point x="1320.4" y="1296.0" type="line"/>
    </contour>
  </outline>
</glyph>
<glyph name="thook" format="2">
  <advance height="2479.0" width="767.6"/>
  <unicode hex="01AD"/>
  <outline>
    <contour>
      <point x="546.6" y="-15.2" type="curve" smooth="yes"/>
      <point x="616.0" y="-14.2"/>
      <point x="662.4" y="-0.7999999999999998"/>
      <point x="688.0" y="8.6" type="curve"/>
      <point x="648.4" y="188.2" type="line"/>
      <point x="634.2" y="185.0"/>
      <point x="608.0" y="178.6"/>
      <point x="572.8" y="178.6" type="curve" smooth="yes"/>
      <point x="501.4" y="178.6"/>
      <point x="438.4" y="202.6"/>
      <point x="438.4" y="327.8" type="curve" smooth="yes"/>
      <point x="438.4" y="1156.4" type="line"/>
      <point x="221.4" y="1156.4" type="line"/>
      <point x="221.4" y="282.6" type="line" smooth="yes"/>
      <point x="220.8" y="80.6"/>
      <point x="375.2" y="-18.2"/>
    </contour>
    <contour>
      <point x="57.6" y="942.8" type="line"/>
      <point x="668.0" y="942.8" type="line"/>
      <point x="668.0" y="1117.0" type="line"/>
      <point x="57.6" y="1117.0" type="line"/>
    </contour>
    <contour>
      <point x="221.4" y="1034.6" type="line"/>
      <point x="438.4" y="1034.6" type="line"/>
      <point x="438.4" y="1193.2" type="line" smooth="yes"/>
      <point x="438.4" y="1300.2"/>
      <point x="510.8" y="1330.2"/>
      <point x="599.0" y="1330.2" type="curve" smooth="yes"/>
      <point x="621.8" y="1330.2"/>
      <point x="643.6" y="1328.0"/>
      <point x="661.8" y="1325.0" type="curve"/>
      <point x="661.8" y="1500.4" type="line"/>
      <point x="631.2" y="1508.2"/>
      <point x="588.2" y="1510.0"/>
      <point x="543.2" y="1510.0" type="curve" smooth="yes"/>
      <point x="371.6" y="1510.0"/>
      <point x="221.4" y="1417.2"/>
      <point x="221.4" y="1193.2" type="curve" smooth="yes"/>
    </contour>
  </outline>
</glyph>
<glyph name="Tretroflexhook" format="2">
  <advance height="2479.0" width="1333.0"/>
  <unicode hex="01AE"/>
  <anchor x="665.8" y="0.0" name="bottom"/>
  <anchor x="683.8" y="0.0" name="cedilla"/>
  <anchor x="665.8" y="747.6" name="cross"/>
  <anchor x="878.4" y="83.8" name="cyrtic"/>
  <anchor x="729.4" y="0.0" name="right"/>
  <anchor x="666.4" y="1676.0" name="top"/>
  <outline>
    <contour>
      <point x="778.8" y="0.0" type="line"/>
      <point x="554.2" y="0.0" type="line"/>
      <point x="554.2" y="-104.0" type="line" smooth="yes"/>
      <point x="554.2" y="-328.0"/>
      <point x="718.6" y="-419.0"/>
      <point x="891.8" y="-419.0" type="curve"/>
      <point x="1005.0" y="-419.0" type="line"/>
      <point x="1005.0" y="-231.0" type="line"/>
      <point x="947.6" y="-231.0" type="line"/>
      <point x="859.0" y="-231.0"/>
      <point x="778.8" y="-209.2"/>
      <point x="778.8" y="-102.2" type="curve" smooth="yes"/>
    </contour>
    <component base="T"/>
  </outline>
</glyph>
<glyph name="Uhorn" format="2">
  <advance height="2479.0" width="1775.4"/>
  <unicode hex="01AF"/>
  <anchor x="755.0" y="-14.2" name="bottom"/>
  <anchor x="913.6" y="2.0" name="ogonek"/>
  <anchor x="848.6" y="0.0" name="right"/>
  <anchor x="755.0" y="1676.0" name="top"/>
  <outline>
    <contour>
      <point x="1505.8" y="1567.8" type="line"/>
      <point x="1505.8" y="1375.8"/>
      <point x="1462.4" y="1269.0"/>
      <point x="1252.0" y="1269.0" type="curve"/>
      <point x="1252.0" y="1119.2" type="line"/>
      <point x="1571.2" y="1119.2"/>
      <point x="1685.2" y="1278.6"/>
      <point x="1685.2" y="1567.8" type="curve"/>
    </contour>
    <component base="U"/>
  </outline>
</glyph>
<glyph name="uhorn" format="2">
  <advance height="2479.0" width="1333.4"/>
  <unicode hex="01B0"/>
  <anchor x="627.6" y="0.0" name="bottom"/>
  <anchor x="1074.4" y="0.0" name="ogonek"/>
  <anchor x="612.4" y="1303.0" name="top"/>
  <outline>
    <contour>
      <point x="1211.0" y="1171.0" type="line"/>
      <point x="1210.8" y="1014.4"/>
      <point x="1201.4" y="945.2"/>
      <point x="1013.2" y="945.2" type="curve"/>
      <point x="1013.2" y="819.8" type="line"/>
      <point x="1290.0" y="819.8"/>
      <point x="1371.2" y="938.6"/>
      <point x="1371.4" y="1171.0" type="curve"/>
    </contour>
    <component base="u" xOffset="2.4000000000000004"/>
  </outline>
</glyph>
<glyph name="Upsilon-latin" format="2">
  <advance height="2479.0" width="1570.6"/>
  <unicode hex="01B1"/>
  <outline>
    <contour>
      <point x="112.2" y="696.4" type="curve" smooth="yes"/>
      <point x="112.2" y="276.2"/>
      <point x="392.4" y="-20.0"/>
      <point x="785.8" y="-20.0" type="curve" smooth="yes"/>
      <point x="1179.0" y="-20.0"/>
      <point x="1458.6" y="276.2"/>
      <point x="1458.6" y="696.4" type="curve" smooth="yes"/>
      <point x="1458.6" y="967.4"/>
      <point x="1343.6" y="1167.4"/>
      <point x="1158.6" y="1284.8" type="curve"/>
      <point x="1158.6" y="1296.0" type="line"/>
      <point x="1458.6" y="1296.0" type="line"/>
      <point x="1458.6" y="1489.0" type="line"/>
      <point x="909.0" y="1489.0" type="line"/>
      <point x="909.0" y="1245.2" type="line"/>
      <point x="1089.4" y="1169.2"/>
      <point x="1236.8" y="962.6"/>
      <point x="1236.8" y="704.6" type="curve" smooth="yes"/>
      <point x="1236.8" y="412.2"/>
      <point x="1049.2" y="185.4"/>
      <point x="785.8" y="185.4" type="curve" smooth="yes"/>
      <point x="521.6" y="185.4"/>
      <point x="334.8" y="412.2"/>
      <point x="334.8" y="704.6" type="curve" smooth="yes"/>
      <point x="334.8" y="962.6"/>
      <point x="482.0" y="1169.2"/>
      <point x="662.4" y="1245.2" type="curve"/>
      <point x="662.4" y="1489.0" type="line"/>
      <point x="112.2" y="1489.0" type="line"/>
      <point x="112.2" y="1296.0" type="line"/>
      <point x="412.2" y="1296.0" type="line"/>
      <point x="412.2" y="1284.8" type="line"/>
      <point x="227.2" y="1165.0"/>
      <point x="112.2" y="967.4"/>
    </contour>
  </outline>
</glyph>
<glyph name="Vhook" format="2">
  <advance height="2479.0" width="1565.6"/>
  <unicode hex="01B2"/>
  <outline>
    <contour>
      <point x="747.8" y="-23.0" type="curve"/>
      <point x="1147.4" y="-23.8"/>
      <point x="1400.8" y="303.4"/>
      <point x="1401.6" y="806.4" type="curve" smooth="yes"/>
      <point x="1401.6" y="1228.2"/>
      <point x="1224.2" y="1505.2"/>
      <point x="963.0" y="1505.2" type="curve" smooth="yes"/>
      <point x="892.4" y="1505.2"/>
      <point x="809.4" y="1484.6"/>
      <point x="744.2" y="1454.0" type="curve"/>
      <point x="774.8" y="1269.6" type="line"/>
      <point x="824.4" y="1299.8"/>
      <point x="886.6" y="1307.0"/>
      <point x="915.8" y="1307.0" type="curve" smooth="yes"/>
      <point x="1065.2" y="1307.0"/>
      <point x="1178.2" y="1117.4"/>
      <point x="1180.8" y="809.4" type="curve" smooth="yes"/>
      <point x="1183.0" y="435.8"/>
      <point x="1017.4" y="183.4"/>
      <point x="739.8" y="181.8" type="curve" smooth="yes"/>
      <point x="535.2" y="181.8"/>
      <point x="388.8" y="319.8"/>
      <point x="388.8" y="528.4" type="curve" smooth="yes"/>
      <point x="388.8" y="1489.0" type="line"/>
      <point x="163.2" y="1489.0" type="line"/>
      <point x="163.2" y="509.4" type="line" smooth="yes"/>
      <point x="163.2" y="186.2"/>
      <point x="398.6" y="-23.0"/>
    </contour>
  </outline>
</glyph>
<glyph name="Yhook" format="2">
  <advance height="2479.0" width="1503.0"/>
  <unicode hex="01B3"/>
  <outline>
    <contour>
      <point x="701.0" y="777.0" type="line"/>
      <point x="736.0" y="777.0" type="line"/>
      <point x="736.0" y="812.0" type="line"/>
      <point x="701.0" y="812.0" type="line"/>
    </contour>
    <contour>
      <point x="54.4" y="1489.0" type="line"/>
      <point x="605.8" y="601.2" type="line"/>
      <point x="605.8" y="0.0" type="line"/>
      <point x="831.0" y="0.0" type="line"/>
      <point x="831.0" y="601.2" type="line"/>
      <point x="1218.6" y="1228.2" type="line" smooth="yes"/>
      <point x="1273.2" y="1315.6"/>
      <point x="1332.8" y="1329.6"/>
      <point x="1412.4" y="1300.0" type="curve"/>
      <point x="1465.6" y="1476.2" type="line"/>
      <point x="1309.8" y="1544.4"/>
      <point x="1141.6" y="1506.4"/>
      <point x="1035.8" y="1328.8" type="curve" smooth="yes"/>
      <point x="718.8" y="798.0" type="line"/>
      <point x="306.8" y="1489.0" type="line"/>
    </contour>
  </outline>
</glyph>
